<mxfile host="app.diagrams.net" modified="2023-10-24T09:02:24.421Z" agent="Mozilla/5.0 (Macintosh; Intel Mac OS X 10_15_7) AppleWebKit/537.36 (KHTML, like Gecko) Chrome/118.0.0.0 Safari/537.36" etag="33LSnJOqRXn3xcyjx0VF" version="22.0.6" type="device">
  <diagram id="DgoBivOxxG0Gd0louSud" name="Page-1">
    <mxGraphModel dx="1026" dy="1823" grid="1" gridSize="10" guides="1" tooltips="1" connect="1" arrows="1" fold="1" page="1" pageScale="1" pageWidth="827" pageHeight="1169" math="0" shadow="0">
      <root>
        <mxCell id="0" />
        <mxCell id="1" parent="0" />
        <mxCell id="HCJ9zdkblOyx9PFgzRYO-3" value="" style="shape=table;startSize=0;container=1;collapsible=0;childLayout=tableLayout;fontSize=16;" parent="1" vertex="1">
          <mxGeometry x="70" y="280" width="180" height="120" as="geometry" />
        </mxCell>
        <mxCell id="HCJ9zdkblOyx9PFgzRYO-4" value="" style="shape=tableRow;horizontal=0;startSize=0;swimlaneHead=0;swimlaneBody=0;strokeColor=inherit;top=0;left=0;bottom=0;right=0;collapsible=0;dropTarget=0;fillColor=none;points=[[0,0.5],[1,0.5]];portConstraint=eastwest;fontSize=16;" parent="HCJ9zdkblOyx9PFgzRYO-3" vertex="1">
          <mxGeometry width="180" height="40" as="geometry" />
        </mxCell>
        <mxCell id="HCJ9zdkblOyx9PFgzRYO-5" value="ES" style="shape=partialRectangle;html=1;whiteSpace=wrap;connectable=0;strokeColor=inherit;overflow=hidden;fillColor=none;top=0;left=0;bottom=0;right=0;pointerEvents=1;fontSize=16;" parent="HCJ9zdkblOyx9PFgzRYO-4" vertex="1">
          <mxGeometry width="60" height="40" as="geometry">
            <mxRectangle width="60" height="40" as="alternateBounds" />
          </mxGeometry>
        </mxCell>
        <mxCell id="HCJ9zdkblOyx9PFgzRYO-6" value="DUR" style="shape=partialRectangle;html=1;whiteSpace=wrap;connectable=0;strokeColor=inherit;overflow=hidden;fillColor=none;top=0;left=0;bottom=0;right=0;pointerEvents=1;fontSize=16;" parent="HCJ9zdkblOyx9PFgzRYO-4" vertex="1">
          <mxGeometry x="60" width="60" height="40" as="geometry">
            <mxRectangle width="60" height="40" as="alternateBounds" />
          </mxGeometry>
        </mxCell>
        <mxCell id="HCJ9zdkblOyx9PFgzRYO-7" value="EF" style="shape=partialRectangle;html=1;whiteSpace=wrap;connectable=0;strokeColor=inherit;overflow=hidden;fillColor=none;top=0;left=0;bottom=0;right=0;pointerEvents=1;fontSize=16;" parent="HCJ9zdkblOyx9PFgzRYO-4" vertex="1">
          <mxGeometry x="120" width="60" height="40" as="geometry">
            <mxRectangle width="60" height="40" as="alternateBounds" />
          </mxGeometry>
        </mxCell>
        <mxCell id="HCJ9zdkblOyx9PFgzRYO-8" value="" style="shape=tableRow;horizontal=0;startSize=0;swimlaneHead=0;swimlaneBody=0;strokeColor=inherit;top=0;left=0;bottom=0;right=0;collapsible=0;dropTarget=0;fillColor=none;points=[[0,0.5],[1,0.5]];portConstraint=eastwest;fontSize=16;" parent="HCJ9zdkblOyx9PFgzRYO-3" vertex="1">
          <mxGeometry y="40" width="180" height="40" as="geometry" />
        </mxCell>
        <mxCell id="HCJ9zdkblOyx9PFgzRYO-9" value="TASK ID" style="shape=partialRectangle;html=1;whiteSpace=wrap;connectable=0;strokeColor=inherit;overflow=hidden;fillColor=none;top=0;left=0;bottom=0;right=0;pointerEvents=1;fontSize=16;rowspan=1;colspan=3;" parent="HCJ9zdkblOyx9PFgzRYO-8" vertex="1">
          <mxGeometry width="180" height="40" as="geometry">
            <mxRectangle width="60" height="40" as="alternateBounds" />
          </mxGeometry>
        </mxCell>
        <mxCell id="HCJ9zdkblOyx9PFgzRYO-10" value="" style="shape=partialRectangle;html=1;whiteSpace=wrap;connectable=0;strokeColor=inherit;overflow=hidden;fillColor=none;top=0;left=0;bottom=0;right=0;pointerEvents=1;fontSize=16;" parent="HCJ9zdkblOyx9PFgzRYO-8" vertex="1" visible="0">
          <mxGeometry x="60" width="60" height="40" as="geometry">
            <mxRectangle width="60" height="40" as="alternateBounds" />
          </mxGeometry>
        </mxCell>
        <mxCell id="HCJ9zdkblOyx9PFgzRYO-11" value="" style="shape=partialRectangle;html=1;whiteSpace=wrap;connectable=0;strokeColor=inherit;overflow=hidden;fillColor=none;top=0;left=0;bottom=0;right=0;pointerEvents=1;fontSize=16;" parent="HCJ9zdkblOyx9PFgzRYO-8" vertex="1" visible="0">
          <mxGeometry x="120" width="60" height="40" as="geometry">
            <mxRectangle width="60" height="40" as="alternateBounds" />
          </mxGeometry>
        </mxCell>
        <mxCell id="HCJ9zdkblOyx9PFgzRYO-12" value="" style="shape=tableRow;horizontal=0;startSize=0;swimlaneHead=0;swimlaneBody=0;strokeColor=inherit;top=0;left=0;bottom=0;right=0;collapsible=0;dropTarget=0;fillColor=none;points=[[0,0.5],[1,0.5]];portConstraint=eastwest;fontSize=16;" parent="HCJ9zdkblOyx9PFgzRYO-3" vertex="1">
          <mxGeometry y="80" width="180" height="40" as="geometry" />
        </mxCell>
        <mxCell id="HCJ9zdkblOyx9PFgzRYO-13" value="LS" style="shape=partialRectangle;html=1;whiteSpace=wrap;connectable=0;strokeColor=inherit;overflow=hidden;fillColor=none;top=0;left=0;bottom=0;right=0;pointerEvents=1;fontSize=16;" parent="HCJ9zdkblOyx9PFgzRYO-12" vertex="1">
          <mxGeometry width="60" height="40" as="geometry">
            <mxRectangle width="60" height="40" as="alternateBounds" />
          </mxGeometry>
        </mxCell>
        <mxCell id="HCJ9zdkblOyx9PFgzRYO-14" value="SL" style="shape=partialRectangle;html=1;whiteSpace=wrap;connectable=0;strokeColor=inherit;overflow=hidden;fillColor=none;top=0;left=0;bottom=0;right=0;pointerEvents=1;fontSize=16;" parent="HCJ9zdkblOyx9PFgzRYO-12" vertex="1">
          <mxGeometry x="60" width="60" height="40" as="geometry">
            <mxRectangle width="60" height="40" as="alternateBounds" />
          </mxGeometry>
        </mxCell>
        <mxCell id="HCJ9zdkblOyx9PFgzRYO-15" value="LF" style="shape=partialRectangle;html=1;whiteSpace=wrap;connectable=0;strokeColor=inherit;overflow=hidden;fillColor=none;top=0;left=0;bottom=0;right=0;pointerEvents=1;fontSize=16;" parent="HCJ9zdkblOyx9PFgzRYO-12" vertex="1">
          <mxGeometry x="120" width="60" height="40" as="geometry">
            <mxRectangle width="60" height="40" as="alternateBounds" />
          </mxGeometry>
        </mxCell>
        <mxCell id="HCJ9zdkblOyx9PFgzRYO-16" value="Legend" style="text;strokeColor=none;fillColor=none;html=1;fontSize=24;fontStyle=1;verticalAlign=middle;align=center;" parent="1" vertex="1">
          <mxGeometry x="70" y="240" width="90" height="30" as="geometry" />
        </mxCell>
        <mxCell id="HCJ9zdkblOyx9PFgzRYO-17" value="Use red arrows to illustrate the critical path" style="text;html=1;strokeColor=none;fillColor=none;align=center;verticalAlign=middle;whiteSpace=wrap;rounded=0;" parent="1" vertex="1">
          <mxGeometry x="70" y="410" width="240" height="30" as="geometry" />
        </mxCell>
        <mxCell id="HCJ9zdkblOyx9PFgzRYO-18" value="&lt;div style=&quot;text-align: left;&quot;&gt;&lt;span style=&quot;background-color: initial;&quot;&gt;ES = Earilest Start&lt;/span&gt;&lt;/div&gt;&lt;div style=&quot;text-align: left;&quot;&gt;&lt;span style=&quot;background-color: initial;&quot;&gt;DUR = Duration&lt;/span&gt;&lt;/div&gt;&lt;div style=&quot;text-align: left;&quot;&gt;&lt;span style=&quot;background-color: initial;&quot;&gt;EF = Earliest Finish&lt;/span&gt;&lt;/div&gt;&lt;div style=&quot;text-align: left;&quot;&gt;LS = Late Start&lt;span style=&quot;background-color: initial;&quot;&gt;&lt;br&gt;&lt;/span&gt;&lt;/div&gt;&lt;div style=&quot;text-align: left;&quot;&gt;&lt;span style=&quot;background-color: initial;&quot;&gt;SL = Slack&lt;/span&gt;&lt;/div&gt;&lt;div style=&quot;text-align: left;&quot;&gt;&lt;span style=&quot;background-color: initial;&quot;&gt;LF = Latest Finish&lt;/span&gt;&lt;/div&gt;" style="text;html=1;strokeColor=none;fillColor=none;align=center;verticalAlign=middle;whiteSpace=wrap;rounded=0;" parent="1" vertex="1">
          <mxGeometry x="260" y="285" width="140" height="110" as="geometry" />
        </mxCell>
        <mxCell id="HCJ9zdkblOyx9PFgzRYO-19" value="" style="endArrow=classic;html=1;rounded=0;" parent="1" edge="1">
          <mxGeometry width="50" height="50" relative="1" as="geometry">
            <mxPoint x="330" y="417.3" as="sourcePoint" />
            <mxPoint x="390" y="417.3" as="targetPoint" />
          </mxGeometry>
        </mxCell>
        <mxCell id="HCJ9zdkblOyx9PFgzRYO-20" value="" style="endArrow=classic;html=1;rounded=0;strokeColor=#FF3333;" parent="1" edge="1">
          <mxGeometry width="50" height="50" relative="1" as="geometry">
            <mxPoint x="330" y="431.90000000000003" as="sourcePoint" />
            <mxPoint x="390" y="431.90000000000003" as="targetPoint" />
          </mxGeometry>
        </mxCell>
        <mxCell id="HCJ9zdkblOyx9PFgzRYO-22" value="" style="shape=table;startSize=0;container=1;collapsible=0;childLayout=tableLayout;fontSize=16;" parent="1" vertex="1">
          <mxGeometry x="80" y="-50" width="150" height="100" as="geometry" />
        </mxCell>
        <mxCell id="HCJ9zdkblOyx9PFgzRYO-23" value="" style="shape=tableRow;horizontal=0;startSize=0;swimlaneHead=0;swimlaneBody=0;strokeColor=inherit;top=0;left=0;bottom=0;right=0;collapsible=0;dropTarget=0;fillColor=none;points=[[0,0.5],[1,0.5]];portConstraint=eastwest;fontSize=16;" parent="HCJ9zdkblOyx9PFgzRYO-22" vertex="1">
          <mxGeometry width="150" height="33" as="geometry" />
        </mxCell>
        <mxCell id="HCJ9zdkblOyx9PFgzRYO-24" value="0" style="shape=partialRectangle;html=1;whiteSpace=wrap;connectable=0;strokeColor=inherit;overflow=hidden;fillColor=none;top=0;left=0;bottom=0;right=0;pointerEvents=1;fontSize=16;" parent="HCJ9zdkblOyx9PFgzRYO-23" vertex="1">
          <mxGeometry width="50" height="33" as="geometry">
            <mxRectangle width="50" height="33" as="alternateBounds" />
          </mxGeometry>
        </mxCell>
        <mxCell id="HCJ9zdkblOyx9PFgzRYO-25" value="5" style="shape=partialRectangle;html=1;whiteSpace=wrap;connectable=0;strokeColor=inherit;overflow=hidden;fillColor=none;top=0;left=0;bottom=0;right=0;pointerEvents=1;fontSize=16;" parent="HCJ9zdkblOyx9PFgzRYO-23" vertex="1">
          <mxGeometry x="50" width="50" height="33" as="geometry">
            <mxRectangle width="50" height="33" as="alternateBounds" />
          </mxGeometry>
        </mxCell>
        <mxCell id="HCJ9zdkblOyx9PFgzRYO-26" value="5" style="shape=partialRectangle;html=1;whiteSpace=wrap;connectable=0;strokeColor=inherit;overflow=hidden;fillColor=none;top=0;left=0;bottom=0;right=0;pointerEvents=1;fontSize=16;" parent="HCJ9zdkblOyx9PFgzRYO-23" vertex="1">
          <mxGeometry x="100" width="50" height="33" as="geometry">
            <mxRectangle width="50" height="33" as="alternateBounds" />
          </mxGeometry>
        </mxCell>
        <mxCell id="HCJ9zdkblOyx9PFgzRYO-27" value="" style="shape=tableRow;horizontal=0;startSize=0;swimlaneHead=0;swimlaneBody=0;strokeColor=inherit;top=0;left=0;bottom=0;right=0;collapsible=0;dropTarget=0;fillColor=none;points=[[0,0.5],[1,0.5]];portConstraint=eastwest;fontSize=16;" parent="HCJ9zdkblOyx9PFgzRYO-22" vertex="1">
          <mxGeometry y="33" width="150" height="34" as="geometry" />
        </mxCell>
        <mxCell id="HCJ9zdkblOyx9PFgzRYO-28" value="&lt;font style=&quot;font-size: 12px;&quot;&gt;2.1 Purpose and Scope&lt;/font&gt;" style="shape=partialRectangle;html=1;whiteSpace=wrap;connectable=0;strokeColor=inherit;overflow=hidden;fillColor=none;top=0;left=0;bottom=0;right=0;pointerEvents=1;fontSize=16;rowspan=1;colspan=3;" parent="HCJ9zdkblOyx9PFgzRYO-27" vertex="1">
          <mxGeometry width="150" height="34" as="geometry">
            <mxRectangle width="50" height="34" as="alternateBounds" />
          </mxGeometry>
        </mxCell>
        <mxCell id="HCJ9zdkblOyx9PFgzRYO-29" value="" style="shape=partialRectangle;html=1;whiteSpace=wrap;connectable=0;strokeColor=inherit;overflow=hidden;fillColor=none;top=0;left=0;bottom=0;right=0;pointerEvents=1;fontSize=16;" parent="HCJ9zdkblOyx9PFgzRYO-27" vertex="1" visible="0">
          <mxGeometry x="50" width="50" height="34" as="geometry">
            <mxRectangle width="50" height="34" as="alternateBounds" />
          </mxGeometry>
        </mxCell>
        <mxCell id="HCJ9zdkblOyx9PFgzRYO-30" value="" style="shape=partialRectangle;html=1;whiteSpace=wrap;connectable=0;strokeColor=inherit;overflow=hidden;fillColor=none;top=0;left=0;bottom=0;right=0;pointerEvents=1;fontSize=16;" parent="HCJ9zdkblOyx9PFgzRYO-27" vertex="1" visible="0">
          <mxGeometry x="100" width="50" height="34" as="geometry">
            <mxRectangle width="50" height="34" as="alternateBounds" />
          </mxGeometry>
        </mxCell>
        <mxCell id="HCJ9zdkblOyx9PFgzRYO-31" value="" style="shape=tableRow;horizontal=0;startSize=0;swimlaneHead=0;swimlaneBody=0;strokeColor=inherit;top=0;left=0;bottom=0;right=0;collapsible=0;dropTarget=0;fillColor=none;points=[[0,0.5],[1,0.5]];portConstraint=eastwest;fontSize=16;" parent="HCJ9zdkblOyx9PFgzRYO-22" vertex="1">
          <mxGeometry y="67" width="150" height="33" as="geometry" />
        </mxCell>
        <mxCell id="HCJ9zdkblOyx9PFgzRYO-32" value="0" style="shape=partialRectangle;html=1;whiteSpace=wrap;connectable=0;strokeColor=inherit;overflow=hidden;fillColor=none;top=0;left=0;bottom=0;right=0;pointerEvents=1;fontSize=16;" parent="HCJ9zdkblOyx9PFgzRYO-31" vertex="1">
          <mxGeometry width="50" height="33" as="geometry">
            <mxRectangle width="50" height="33" as="alternateBounds" />
          </mxGeometry>
        </mxCell>
        <mxCell id="HCJ9zdkblOyx9PFgzRYO-33" value="2" style="shape=partialRectangle;html=1;whiteSpace=wrap;connectable=0;strokeColor=inherit;overflow=hidden;fillColor=none;top=0;left=0;bottom=0;right=0;pointerEvents=1;fontSize=16;" parent="HCJ9zdkblOyx9PFgzRYO-31" vertex="1">
          <mxGeometry x="50" width="50" height="33" as="geometry">
            <mxRectangle width="50" height="33" as="alternateBounds" />
          </mxGeometry>
        </mxCell>
        <mxCell id="HCJ9zdkblOyx9PFgzRYO-34" value="7" style="shape=partialRectangle;html=1;whiteSpace=wrap;connectable=0;strokeColor=inherit;overflow=hidden;fillColor=none;top=0;left=0;bottom=0;right=0;pointerEvents=1;fontSize=16;" parent="HCJ9zdkblOyx9PFgzRYO-31" vertex="1">
          <mxGeometry x="100" width="50" height="33" as="geometry">
            <mxRectangle width="50" height="33" as="alternateBounds" />
          </mxGeometry>
        </mxCell>
        <mxCell id="HCJ9zdkblOyx9PFgzRYO-35" value="" style="shape=table;startSize=0;container=1;collapsible=0;childLayout=tableLayout;fontSize=16;" parent="1" vertex="1">
          <mxGeometry x="290" y="-200" width="150" height="100" as="geometry" />
        </mxCell>
        <mxCell id="HCJ9zdkblOyx9PFgzRYO-36" value="" style="shape=tableRow;horizontal=0;startSize=0;swimlaneHead=0;swimlaneBody=0;strokeColor=inherit;top=0;left=0;bottom=0;right=0;collapsible=0;dropTarget=0;fillColor=none;points=[[0,0.5],[1,0.5]];portConstraint=eastwest;fontSize=16;" parent="HCJ9zdkblOyx9PFgzRYO-35" vertex="1">
          <mxGeometry width="150" height="33" as="geometry" />
        </mxCell>
        <mxCell id="HCJ9zdkblOyx9PFgzRYO-37" value="6" style="shape=partialRectangle;html=1;whiteSpace=wrap;connectable=0;strokeColor=inherit;overflow=hidden;fillColor=none;top=0;left=0;bottom=0;right=0;pointerEvents=1;fontSize=16;" parent="HCJ9zdkblOyx9PFgzRYO-36" vertex="1">
          <mxGeometry width="50" height="33" as="geometry">
            <mxRectangle width="50" height="33" as="alternateBounds" />
          </mxGeometry>
        </mxCell>
        <mxCell id="HCJ9zdkblOyx9PFgzRYO-38" value="5" style="shape=partialRectangle;html=1;whiteSpace=wrap;connectable=0;strokeColor=inherit;overflow=hidden;fillColor=none;top=0;left=0;bottom=0;right=0;pointerEvents=1;fontSize=16;" parent="HCJ9zdkblOyx9PFgzRYO-36" vertex="1">
          <mxGeometry x="50" width="50" height="33" as="geometry">
            <mxRectangle width="50" height="33" as="alternateBounds" />
          </mxGeometry>
        </mxCell>
        <mxCell id="HCJ9zdkblOyx9PFgzRYO-39" value="10" style="shape=partialRectangle;html=1;whiteSpace=wrap;connectable=0;strokeColor=inherit;overflow=hidden;fillColor=none;top=0;left=0;bottom=0;right=0;pointerEvents=1;fontSize=16;" parent="HCJ9zdkblOyx9PFgzRYO-36" vertex="1">
          <mxGeometry x="100" width="50" height="33" as="geometry">
            <mxRectangle width="50" height="33" as="alternateBounds" />
          </mxGeometry>
        </mxCell>
        <mxCell id="HCJ9zdkblOyx9PFgzRYO-40" value="" style="shape=tableRow;horizontal=0;startSize=0;swimlaneHead=0;swimlaneBody=0;strokeColor=inherit;top=0;left=0;bottom=0;right=0;collapsible=0;dropTarget=0;fillColor=none;points=[[0,0.5],[1,0.5]];portConstraint=eastwest;fontSize=16;" parent="HCJ9zdkblOyx9PFgzRYO-35" vertex="1">
          <mxGeometry y="33" width="150" height="34" as="geometry" />
        </mxCell>
        <mxCell id="HCJ9zdkblOyx9PFgzRYO-41" value="&lt;font style=&quot;font-size: 12px;&quot;&gt;1.1 People and Structure&lt;/font&gt;" style="shape=partialRectangle;html=1;whiteSpace=wrap;connectable=0;strokeColor=inherit;overflow=hidden;fillColor=none;top=0;left=0;bottom=0;right=0;pointerEvents=1;fontSize=16;rowspan=1;colspan=3;" parent="HCJ9zdkblOyx9PFgzRYO-40" vertex="1">
          <mxGeometry width="150" height="34" as="geometry">
            <mxRectangle width="50" height="34" as="alternateBounds" />
          </mxGeometry>
        </mxCell>
        <mxCell id="HCJ9zdkblOyx9PFgzRYO-42" value="" style="shape=partialRectangle;html=1;whiteSpace=wrap;connectable=0;strokeColor=inherit;overflow=hidden;fillColor=none;top=0;left=0;bottom=0;right=0;pointerEvents=1;fontSize=16;" parent="HCJ9zdkblOyx9PFgzRYO-40" vertex="1" visible="0">
          <mxGeometry x="50" width="50" height="34" as="geometry">
            <mxRectangle width="50" height="34" as="alternateBounds" />
          </mxGeometry>
        </mxCell>
        <mxCell id="HCJ9zdkblOyx9PFgzRYO-43" value="" style="shape=partialRectangle;html=1;whiteSpace=wrap;connectable=0;strokeColor=inherit;overflow=hidden;fillColor=none;top=0;left=0;bottom=0;right=0;pointerEvents=1;fontSize=16;" parent="HCJ9zdkblOyx9PFgzRYO-40" vertex="1" visible="0">
          <mxGeometry x="100" width="50" height="34" as="geometry">
            <mxRectangle width="50" height="34" as="alternateBounds" />
          </mxGeometry>
        </mxCell>
        <mxCell id="HCJ9zdkblOyx9PFgzRYO-44" value="" style="shape=tableRow;horizontal=0;startSize=0;swimlaneHead=0;swimlaneBody=0;strokeColor=inherit;top=0;left=0;bottom=0;right=0;collapsible=0;dropTarget=0;fillColor=none;points=[[0,0.5],[1,0.5]];portConstraint=eastwest;fontSize=16;" parent="HCJ9zdkblOyx9PFgzRYO-35" vertex="1">
          <mxGeometry y="67" width="150" height="33" as="geometry" />
        </mxCell>
        <mxCell id="HCJ9zdkblOyx9PFgzRYO-45" value="8" style="shape=partialRectangle;html=1;whiteSpace=wrap;connectable=0;strokeColor=inherit;overflow=hidden;fillColor=none;top=0;left=0;bottom=0;right=0;pointerEvents=1;fontSize=16;" parent="HCJ9zdkblOyx9PFgzRYO-44" vertex="1">
          <mxGeometry width="50" height="33" as="geometry">
            <mxRectangle width="50" height="33" as="alternateBounds" />
          </mxGeometry>
        </mxCell>
        <mxCell id="HCJ9zdkblOyx9PFgzRYO-46" value="2" style="shape=partialRectangle;html=1;whiteSpace=wrap;connectable=0;strokeColor=inherit;overflow=hidden;fillColor=none;top=0;left=0;bottom=0;right=0;pointerEvents=1;fontSize=16;" parent="HCJ9zdkblOyx9PFgzRYO-44" vertex="1">
          <mxGeometry x="50" width="50" height="33" as="geometry">
            <mxRectangle width="50" height="33" as="alternateBounds" />
          </mxGeometry>
        </mxCell>
        <mxCell id="HCJ9zdkblOyx9PFgzRYO-47" value="14" style="shape=partialRectangle;html=1;whiteSpace=wrap;connectable=0;strokeColor=inherit;overflow=hidden;fillColor=none;top=0;left=0;bottom=0;right=0;pointerEvents=1;fontSize=16;" parent="HCJ9zdkblOyx9PFgzRYO-44" vertex="1">
          <mxGeometry x="100" width="50" height="33" as="geometry">
            <mxRectangle width="50" height="33" as="alternateBounds" />
          </mxGeometry>
        </mxCell>
        <mxCell id="HCJ9zdkblOyx9PFgzRYO-61" value="" style="shape=table;startSize=0;container=1;collapsible=0;childLayout=tableLayout;fontSize=16;" parent="1" vertex="1">
          <mxGeometry x="290" y="-50" width="150" height="100" as="geometry" />
        </mxCell>
        <mxCell id="HCJ9zdkblOyx9PFgzRYO-62" value="" style="shape=tableRow;horizontal=0;startSize=0;swimlaneHead=0;swimlaneBody=0;strokeColor=inherit;top=0;left=0;bottom=0;right=0;collapsible=0;dropTarget=0;fillColor=none;points=[[0,0.5],[1,0.5]];portConstraint=eastwest;fontSize=16;" parent="HCJ9zdkblOyx9PFgzRYO-61" vertex="1">
          <mxGeometry width="150" height="33" as="geometry" />
        </mxCell>
        <mxCell id="HCJ9zdkblOyx9PFgzRYO-63" value="6" style="shape=partialRectangle;html=1;whiteSpace=wrap;connectable=0;strokeColor=inherit;overflow=hidden;fillColor=none;top=0;left=0;bottom=0;right=0;pointerEvents=1;fontSize=16;" parent="HCJ9zdkblOyx9PFgzRYO-62" vertex="1">
          <mxGeometry width="50" height="33" as="geometry">
            <mxRectangle width="50" height="33" as="alternateBounds" />
          </mxGeometry>
        </mxCell>
        <mxCell id="HCJ9zdkblOyx9PFgzRYO-64" value="5" style="shape=partialRectangle;html=1;whiteSpace=wrap;connectable=0;strokeColor=inherit;overflow=hidden;fillColor=none;top=0;left=0;bottom=0;right=0;pointerEvents=1;fontSize=16;" parent="HCJ9zdkblOyx9PFgzRYO-62" vertex="1">
          <mxGeometry x="50" width="50" height="33" as="geometry">
            <mxRectangle width="50" height="33" as="alternateBounds" />
          </mxGeometry>
        </mxCell>
        <mxCell id="HCJ9zdkblOyx9PFgzRYO-65" value="10" style="shape=partialRectangle;html=1;whiteSpace=wrap;connectable=0;strokeColor=inherit;overflow=hidden;fillColor=none;top=0;left=0;bottom=0;right=0;pointerEvents=1;fontSize=16;" parent="HCJ9zdkblOyx9PFgzRYO-62" vertex="1">
          <mxGeometry x="100" width="50" height="33" as="geometry">
            <mxRectangle width="50" height="33" as="alternateBounds" />
          </mxGeometry>
        </mxCell>
        <mxCell id="HCJ9zdkblOyx9PFgzRYO-66" value="" style="shape=tableRow;horizontal=0;startSize=0;swimlaneHead=0;swimlaneBody=0;strokeColor=inherit;top=0;left=0;bottom=0;right=0;collapsible=0;dropTarget=0;fillColor=none;points=[[0,0.5],[1,0.5]];portConstraint=eastwest;fontSize=16;" parent="HCJ9zdkblOyx9PFgzRYO-61" vertex="1">
          <mxGeometry y="33" width="150" height="34" as="geometry" />
        </mxCell>
        <mxCell id="HCJ9zdkblOyx9PFgzRYO-67" value="&lt;font style=&quot;font-size: 12px;&quot;&gt;1.3 Timetable&lt;/font&gt;" style="shape=partialRectangle;html=1;whiteSpace=wrap;connectable=0;strokeColor=inherit;overflow=hidden;fillColor=none;top=0;left=0;bottom=0;right=0;pointerEvents=1;fontSize=16;rowspan=1;colspan=3;" parent="HCJ9zdkblOyx9PFgzRYO-66" vertex="1">
          <mxGeometry width="150" height="34" as="geometry">
            <mxRectangle width="50" height="34" as="alternateBounds" />
          </mxGeometry>
        </mxCell>
        <mxCell id="HCJ9zdkblOyx9PFgzRYO-68" value="" style="shape=partialRectangle;html=1;whiteSpace=wrap;connectable=0;strokeColor=inherit;overflow=hidden;fillColor=none;top=0;left=0;bottom=0;right=0;pointerEvents=1;fontSize=16;" parent="HCJ9zdkblOyx9PFgzRYO-66" vertex="1" visible="0">
          <mxGeometry x="50" width="50" height="34" as="geometry">
            <mxRectangle width="50" height="34" as="alternateBounds" />
          </mxGeometry>
        </mxCell>
        <mxCell id="HCJ9zdkblOyx9PFgzRYO-69" value="" style="shape=partialRectangle;html=1;whiteSpace=wrap;connectable=0;strokeColor=inherit;overflow=hidden;fillColor=none;top=0;left=0;bottom=0;right=0;pointerEvents=1;fontSize=16;" parent="HCJ9zdkblOyx9PFgzRYO-66" vertex="1" visible="0">
          <mxGeometry x="100" width="50" height="34" as="geometry">
            <mxRectangle width="50" height="34" as="alternateBounds" />
          </mxGeometry>
        </mxCell>
        <mxCell id="HCJ9zdkblOyx9PFgzRYO-70" value="" style="shape=tableRow;horizontal=0;startSize=0;swimlaneHead=0;swimlaneBody=0;strokeColor=inherit;top=0;left=0;bottom=0;right=0;collapsible=0;dropTarget=0;fillColor=none;points=[[0,0.5],[1,0.5]];portConstraint=eastwest;fontSize=16;" parent="HCJ9zdkblOyx9PFgzRYO-61" vertex="1">
          <mxGeometry y="67" width="150" height="33" as="geometry" />
        </mxCell>
        <mxCell id="HCJ9zdkblOyx9PFgzRYO-71" value="8" style="shape=partialRectangle;html=1;whiteSpace=wrap;connectable=0;strokeColor=inherit;overflow=hidden;fillColor=none;top=0;left=0;bottom=0;right=0;pointerEvents=1;fontSize=16;" parent="HCJ9zdkblOyx9PFgzRYO-70" vertex="1">
          <mxGeometry width="50" height="33" as="geometry">
            <mxRectangle width="50" height="33" as="alternateBounds" />
          </mxGeometry>
        </mxCell>
        <mxCell id="HCJ9zdkblOyx9PFgzRYO-72" value="2" style="shape=partialRectangle;html=1;whiteSpace=wrap;connectable=0;strokeColor=inherit;overflow=hidden;fillColor=none;top=0;left=0;bottom=0;right=0;pointerEvents=1;fontSize=16;" parent="HCJ9zdkblOyx9PFgzRYO-70" vertex="1">
          <mxGeometry x="50" width="50" height="33" as="geometry">
            <mxRectangle width="50" height="33" as="alternateBounds" />
          </mxGeometry>
        </mxCell>
        <mxCell id="HCJ9zdkblOyx9PFgzRYO-73" value="14" style="shape=partialRectangle;html=1;whiteSpace=wrap;connectable=0;strokeColor=inherit;overflow=hidden;fillColor=none;top=0;left=0;bottom=0;right=0;pointerEvents=1;fontSize=16;" parent="HCJ9zdkblOyx9PFgzRYO-70" vertex="1">
          <mxGeometry x="100" width="50" height="33" as="geometry">
            <mxRectangle width="50" height="33" as="alternateBounds" />
          </mxGeometry>
        </mxCell>
        <mxCell id="HCJ9zdkblOyx9PFgzRYO-106" value="" style="shape=table;startSize=0;container=1;collapsible=0;childLayout=tableLayout;fontSize=16;verticalAlign=top;" parent="1" vertex="1">
          <mxGeometry x="290" y="90" width="150" height="120" as="geometry" />
        </mxCell>
        <mxCell id="HCJ9zdkblOyx9PFgzRYO-107" value="" style="shape=tableRow;horizontal=0;startSize=0;swimlaneHead=0;swimlaneBody=0;strokeColor=inherit;top=0;left=0;bottom=0;right=0;collapsible=0;dropTarget=0;fillColor=none;points=[[0,0.5],[1,0.5]];portConstraint=eastwest;fontSize=16;" parent="HCJ9zdkblOyx9PFgzRYO-106" vertex="1">
          <mxGeometry width="150" height="40" as="geometry" />
        </mxCell>
        <mxCell id="HCJ9zdkblOyx9PFgzRYO-108" value="6" style="shape=partialRectangle;html=1;whiteSpace=wrap;connectable=0;strokeColor=inherit;overflow=hidden;fillColor=none;top=0;left=0;bottom=0;right=0;pointerEvents=1;fontSize=16;" parent="HCJ9zdkblOyx9PFgzRYO-107" vertex="1">
          <mxGeometry width="50" height="40" as="geometry">
            <mxRectangle width="50" height="40" as="alternateBounds" />
          </mxGeometry>
        </mxCell>
        <mxCell id="HCJ9zdkblOyx9PFgzRYO-109" value="5" style="shape=partialRectangle;html=1;whiteSpace=wrap;connectable=0;strokeColor=inherit;overflow=hidden;fillColor=none;top=0;left=0;bottom=0;right=0;pointerEvents=1;fontSize=16;" parent="HCJ9zdkblOyx9PFgzRYO-107" vertex="1">
          <mxGeometry x="50" width="50" height="40" as="geometry">
            <mxRectangle width="50" height="40" as="alternateBounds" />
          </mxGeometry>
        </mxCell>
        <mxCell id="HCJ9zdkblOyx9PFgzRYO-110" value="10" style="shape=partialRectangle;html=1;whiteSpace=wrap;connectable=0;strokeColor=inherit;overflow=hidden;fillColor=none;top=0;left=0;bottom=0;right=0;pointerEvents=1;fontSize=16;" parent="HCJ9zdkblOyx9PFgzRYO-107" vertex="1">
          <mxGeometry x="100" width="50" height="40" as="geometry">
            <mxRectangle width="50" height="40" as="alternateBounds" />
          </mxGeometry>
        </mxCell>
        <mxCell id="HCJ9zdkblOyx9PFgzRYO-111" value="" style="shape=tableRow;horizontal=0;startSize=0;swimlaneHead=0;swimlaneBody=0;strokeColor=inherit;top=0;left=0;bottom=0;right=0;collapsible=0;dropTarget=0;fillColor=none;points=[[0,0.5],[1,0.5]];portConstraint=eastwest;fontSize=16;" parent="HCJ9zdkblOyx9PFgzRYO-106" vertex="1">
          <mxGeometry y="40" width="150" height="40" as="geometry" />
        </mxCell>
        <mxCell id="HCJ9zdkblOyx9PFgzRYO-112" value="&lt;font style=&quot;font-size: 12px;&quot;&gt;2.2 Requirements Analysis Document&lt;/font&gt;" style="shape=partialRectangle;html=1;whiteSpace=wrap;connectable=0;strokeColor=inherit;overflow=hidden;fillColor=none;top=0;left=0;bottom=0;right=0;pointerEvents=1;fontSize=16;rowspan=1;colspan=3;" parent="HCJ9zdkblOyx9PFgzRYO-111" vertex="1">
          <mxGeometry width="150" height="40" as="geometry">
            <mxRectangle width="50" height="40" as="alternateBounds" />
          </mxGeometry>
        </mxCell>
        <mxCell id="HCJ9zdkblOyx9PFgzRYO-113" value="" style="shape=partialRectangle;html=1;whiteSpace=wrap;connectable=0;strokeColor=inherit;overflow=hidden;fillColor=none;top=0;left=0;bottom=0;right=0;pointerEvents=1;fontSize=16;" parent="HCJ9zdkblOyx9PFgzRYO-111" vertex="1" visible="0">
          <mxGeometry x="50" width="50" height="40" as="geometry">
            <mxRectangle width="50" height="40" as="alternateBounds" />
          </mxGeometry>
        </mxCell>
        <mxCell id="HCJ9zdkblOyx9PFgzRYO-114" value="" style="shape=partialRectangle;html=1;whiteSpace=wrap;connectable=0;strokeColor=inherit;overflow=hidden;fillColor=none;top=0;left=0;bottom=0;right=0;pointerEvents=1;fontSize=16;" parent="HCJ9zdkblOyx9PFgzRYO-111" vertex="1" visible="0">
          <mxGeometry x="100" width="50" height="40" as="geometry">
            <mxRectangle width="50" height="40" as="alternateBounds" />
          </mxGeometry>
        </mxCell>
        <mxCell id="HCJ9zdkblOyx9PFgzRYO-115" value="" style="shape=tableRow;horizontal=0;startSize=0;swimlaneHead=0;swimlaneBody=0;strokeColor=inherit;top=0;left=0;bottom=0;right=0;collapsible=0;dropTarget=0;fillColor=none;points=[[0,0.5],[1,0.5]];portConstraint=eastwest;fontSize=16;" parent="HCJ9zdkblOyx9PFgzRYO-106" vertex="1">
          <mxGeometry y="80" width="150" height="40" as="geometry" />
        </mxCell>
        <mxCell id="HCJ9zdkblOyx9PFgzRYO-116" value="8" style="shape=partialRectangle;html=1;whiteSpace=wrap;connectable=0;strokeColor=inherit;overflow=hidden;fillColor=none;top=0;left=0;bottom=0;right=0;pointerEvents=1;fontSize=16;" parent="HCJ9zdkblOyx9PFgzRYO-115" vertex="1">
          <mxGeometry width="50" height="40" as="geometry">
            <mxRectangle width="50" height="40" as="alternateBounds" />
          </mxGeometry>
        </mxCell>
        <mxCell id="HCJ9zdkblOyx9PFgzRYO-117" value="2" style="shape=partialRectangle;html=1;whiteSpace=wrap;connectable=0;strokeColor=inherit;overflow=hidden;fillColor=none;top=0;left=0;bottom=0;right=0;pointerEvents=1;fontSize=16;" parent="HCJ9zdkblOyx9PFgzRYO-115" vertex="1">
          <mxGeometry x="50" width="50" height="40" as="geometry">
            <mxRectangle width="50" height="40" as="alternateBounds" />
          </mxGeometry>
        </mxCell>
        <mxCell id="HCJ9zdkblOyx9PFgzRYO-118" value="14" style="shape=partialRectangle;html=1;whiteSpace=wrap;connectable=0;strokeColor=inherit;overflow=hidden;fillColor=none;top=0;left=0;bottom=0;right=0;pointerEvents=1;fontSize=16;" parent="HCJ9zdkblOyx9PFgzRYO-115" vertex="1">
          <mxGeometry x="100" width="50" height="40" as="geometry">
            <mxRectangle width="50" height="40" as="alternateBounds" />
          </mxGeometry>
        </mxCell>
        <mxCell id="HCJ9zdkblOyx9PFgzRYO-515" style="edgeStyle=orthogonalEdgeStyle;rounded=0;orthogonalLoop=1;jettySize=auto;html=1;exitX=1;exitY=0.5;exitDx=0;exitDy=0;entryX=0;entryY=0.5;entryDx=0;entryDy=0;strokeColor=#FF3333;" parent="1" source="HCJ9zdkblOyx9PFgzRYO-132" target="HCJ9zdkblOyx9PFgzRYO-177" edge="1">
          <mxGeometry relative="1" as="geometry" />
        </mxCell>
        <mxCell id="HCJ9zdkblOyx9PFgzRYO-132" value="" style="shape=table;startSize=0;container=1;collapsible=0;childLayout=tableLayout;fontSize=16;verticalAlign=top;" parent="1" vertex="1">
          <mxGeometry x="500" y="30" width="150" height="120" as="geometry" />
        </mxCell>
        <mxCell id="HCJ9zdkblOyx9PFgzRYO-133" value="" style="shape=tableRow;horizontal=0;startSize=0;swimlaneHead=0;swimlaneBody=0;strokeColor=inherit;top=0;left=0;bottom=0;right=0;collapsible=0;dropTarget=0;fillColor=none;points=[[0,0.5],[1,0.5]];portConstraint=eastwest;fontSize=16;" parent="HCJ9zdkblOyx9PFgzRYO-132" vertex="1">
          <mxGeometry width="150" height="40" as="geometry" />
        </mxCell>
        <mxCell id="HCJ9zdkblOyx9PFgzRYO-134" value="11" style="shape=partialRectangle;html=1;whiteSpace=wrap;connectable=0;strokeColor=inherit;overflow=hidden;fillColor=none;top=0;left=0;bottom=0;right=0;pointerEvents=1;fontSize=16;" parent="HCJ9zdkblOyx9PFgzRYO-133" vertex="1">
          <mxGeometry width="50" height="40" as="geometry">
            <mxRectangle width="50" height="40" as="alternateBounds" />
          </mxGeometry>
        </mxCell>
        <mxCell id="HCJ9zdkblOyx9PFgzRYO-135" value="5" style="shape=partialRectangle;html=1;whiteSpace=wrap;connectable=0;strokeColor=inherit;overflow=hidden;fillColor=none;top=0;left=0;bottom=0;right=0;pointerEvents=1;fontSize=16;" parent="HCJ9zdkblOyx9PFgzRYO-133" vertex="1">
          <mxGeometry x="50" width="50" height="40" as="geometry">
            <mxRectangle width="50" height="40" as="alternateBounds" />
          </mxGeometry>
        </mxCell>
        <mxCell id="HCJ9zdkblOyx9PFgzRYO-136" value="15" style="shape=partialRectangle;html=1;whiteSpace=wrap;connectable=0;strokeColor=inherit;overflow=hidden;fillColor=none;top=0;left=0;bottom=0;right=0;pointerEvents=1;fontSize=16;" parent="HCJ9zdkblOyx9PFgzRYO-133" vertex="1">
          <mxGeometry x="100" width="50" height="40" as="geometry">
            <mxRectangle width="50" height="40" as="alternateBounds" />
          </mxGeometry>
        </mxCell>
        <mxCell id="HCJ9zdkblOyx9PFgzRYO-137" value="" style="shape=tableRow;horizontal=0;startSize=0;swimlaneHead=0;swimlaneBody=0;strokeColor=inherit;top=0;left=0;bottom=0;right=0;collapsible=0;dropTarget=0;fillColor=none;points=[[0,0.5],[1,0.5]];portConstraint=eastwest;fontSize=16;" parent="HCJ9zdkblOyx9PFgzRYO-132" vertex="1">
          <mxGeometry y="40" width="150" height="40" as="geometry" />
        </mxCell>
        <mxCell id="HCJ9zdkblOyx9PFgzRYO-138" value="&lt;font style=&quot;font-size: 12px;&quot;&gt;2.3 Stakeholder Analysis Document&lt;/font&gt;" style="shape=partialRectangle;html=1;whiteSpace=wrap;connectable=0;strokeColor=inherit;overflow=hidden;fillColor=none;top=0;left=0;bottom=0;right=0;pointerEvents=1;fontSize=16;rowspan=1;colspan=3;" parent="HCJ9zdkblOyx9PFgzRYO-137" vertex="1">
          <mxGeometry width="150" height="40" as="geometry">
            <mxRectangle width="50" height="40" as="alternateBounds" />
          </mxGeometry>
        </mxCell>
        <mxCell id="HCJ9zdkblOyx9PFgzRYO-139" value="" style="shape=partialRectangle;html=1;whiteSpace=wrap;connectable=0;strokeColor=inherit;overflow=hidden;fillColor=none;top=0;left=0;bottom=0;right=0;pointerEvents=1;fontSize=16;" parent="HCJ9zdkblOyx9PFgzRYO-137" vertex="1" visible="0">
          <mxGeometry x="50" width="50" height="40" as="geometry">
            <mxRectangle width="50" height="40" as="alternateBounds" />
          </mxGeometry>
        </mxCell>
        <mxCell id="HCJ9zdkblOyx9PFgzRYO-140" value="" style="shape=partialRectangle;html=1;whiteSpace=wrap;connectable=0;strokeColor=inherit;overflow=hidden;fillColor=none;top=0;left=0;bottom=0;right=0;pointerEvents=1;fontSize=16;" parent="HCJ9zdkblOyx9PFgzRYO-137" vertex="1" visible="0">
          <mxGeometry x="100" width="50" height="40" as="geometry">
            <mxRectangle width="50" height="40" as="alternateBounds" />
          </mxGeometry>
        </mxCell>
        <mxCell id="HCJ9zdkblOyx9PFgzRYO-141" value="" style="shape=tableRow;horizontal=0;startSize=0;swimlaneHead=0;swimlaneBody=0;strokeColor=inherit;top=0;left=0;bottom=0;right=0;collapsible=0;dropTarget=0;fillColor=none;points=[[0,0.5],[1,0.5]];portConstraint=eastwest;fontSize=16;" parent="HCJ9zdkblOyx9PFgzRYO-132" vertex="1">
          <mxGeometry y="80" width="150" height="40" as="geometry" />
        </mxCell>
        <mxCell id="HCJ9zdkblOyx9PFgzRYO-142" value="15" style="shape=partialRectangle;html=1;whiteSpace=wrap;connectable=0;strokeColor=inherit;overflow=hidden;fillColor=none;top=0;left=0;bottom=0;right=0;pointerEvents=1;fontSize=16;" parent="HCJ9zdkblOyx9PFgzRYO-141" vertex="1">
          <mxGeometry width="50" height="40" as="geometry">
            <mxRectangle width="50" height="40" as="alternateBounds" />
          </mxGeometry>
        </mxCell>
        <mxCell id="HCJ9zdkblOyx9PFgzRYO-143" value="2" style="shape=partialRectangle;html=1;whiteSpace=wrap;connectable=0;strokeColor=inherit;overflow=hidden;fillColor=none;top=0;left=0;bottom=0;right=0;pointerEvents=1;fontSize=16;" parent="HCJ9zdkblOyx9PFgzRYO-141" vertex="1">
          <mxGeometry x="50" width="50" height="40" as="geometry">
            <mxRectangle width="50" height="40" as="alternateBounds" />
          </mxGeometry>
        </mxCell>
        <mxCell id="HCJ9zdkblOyx9PFgzRYO-144" value="21" style="shape=partialRectangle;html=1;whiteSpace=wrap;connectable=0;strokeColor=inherit;overflow=hidden;fillColor=none;top=0;left=0;bottom=0;right=0;pointerEvents=1;fontSize=16;" parent="HCJ9zdkblOyx9PFgzRYO-141" vertex="1">
          <mxGeometry x="100" width="50" height="40" as="geometry">
            <mxRectangle width="50" height="40" as="alternateBounds" />
          </mxGeometry>
        </mxCell>
        <mxCell id="HCJ9zdkblOyx9PFgzRYO-119" value="" style="shape=table;startSize=0;container=1;collapsible=0;childLayout=tableLayout;fontSize=16;verticalAlign=top;horizontal=0;" parent="1" vertex="1">
          <mxGeometry x="500" y="-140" width="150" height="120" as="geometry" />
        </mxCell>
        <mxCell id="HCJ9zdkblOyx9PFgzRYO-120" value="" style="shape=tableRow;horizontal=0;startSize=0;swimlaneHead=0;swimlaneBody=0;strokeColor=inherit;top=0;left=0;bottom=0;right=0;collapsible=0;dropTarget=0;fillColor=none;points=[[0,0.5],[1,0.5]];portConstraint=eastwest;fontSize=16;" parent="HCJ9zdkblOyx9PFgzRYO-119" vertex="1">
          <mxGeometry width="150" height="40" as="geometry" />
        </mxCell>
        <mxCell id="HCJ9zdkblOyx9PFgzRYO-121" value="11" style="shape=partialRectangle;html=1;whiteSpace=wrap;connectable=0;strokeColor=inherit;overflow=hidden;fillColor=none;top=0;left=0;bottom=0;right=0;pointerEvents=1;fontSize=16;" parent="HCJ9zdkblOyx9PFgzRYO-120" vertex="1">
          <mxGeometry width="50" height="40" as="geometry">
            <mxRectangle width="50" height="40" as="alternateBounds" />
          </mxGeometry>
        </mxCell>
        <mxCell id="HCJ9zdkblOyx9PFgzRYO-122" value="5" style="shape=partialRectangle;html=1;whiteSpace=wrap;connectable=0;strokeColor=inherit;overflow=hidden;fillColor=none;top=0;left=0;bottom=0;right=0;pointerEvents=1;fontSize=16;" parent="HCJ9zdkblOyx9PFgzRYO-120" vertex="1">
          <mxGeometry x="50" width="50" height="40" as="geometry">
            <mxRectangle width="50" height="40" as="alternateBounds" />
          </mxGeometry>
        </mxCell>
        <mxCell id="HCJ9zdkblOyx9PFgzRYO-123" value="15" style="shape=partialRectangle;html=1;whiteSpace=wrap;connectable=0;strokeColor=inherit;overflow=hidden;fillColor=none;top=0;left=0;bottom=0;right=0;pointerEvents=1;fontSize=16;" parent="HCJ9zdkblOyx9PFgzRYO-120" vertex="1">
          <mxGeometry x="100" width="50" height="40" as="geometry">
            <mxRectangle width="50" height="40" as="alternateBounds" />
          </mxGeometry>
        </mxCell>
        <mxCell id="HCJ9zdkblOyx9PFgzRYO-124" value="" style="shape=tableRow;horizontal=0;startSize=0;swimlaneHead=0;swimlaneBody=0;strokeColor=inherit;top=0;left=0;bottom=0;right=0;collapsible=0;dropTarget=0;fillColor=none;points=[[0,0.5],[1,0.5]];portConstraint=eastwest;fontSize=16;" parent="HCJ9zdkblOyx9PFgzRYO-119" vertex="1">
          <mxGeometry y="40" width="150" height="40" as="geometry" />
        </mxCell>
        <mxCell id="HCJ9zdkblOyx9PFgzRYO-125" value="&lt;font style=&quot;font-size: 14px;&quot;&gt;1.5 Communication Principles&lt;/font&gt;" style="shape=partialRectangle;html=1;whiteSpace=wrap;connectable=0;strokeColor=inherit;overflow=hidden;fillColor=none;top=0;left=0;bottom=0;right=0;pointerEvents=1;fontSize=16;rowspan=1;colspan=3;" parent="HCJ9zdkblOyx9PFgzRYO-124" vertex="1">
          <mxGeometry width="150" height="40" as="geometry">
            <mxRectangle width="50" height="40" as="alternateBounds" />
          </mxGeometry>
        </mxCell>
        <mxCell id="HCJ9zdkblOyx9PFgzRYO-126" value="" style="shape=partialRectangle;html=1;whiteSpace=wrap;connectable=0;strokeColor=inherit;overflow=hidden;fillColor=none;top=0;left=0;bottom=0;right=0;pointerEvents=1;fontSize=16;" parent="HCJ9zdkblOyx9PFgzRYO-124" vertex="1" visible="0">
          <mxGeometry x="50" width="50" height="40" as="geometry">
            <mxRectangle width="50" height="40" as="alternateBounds" />
          </mxGeometry>
        </mxCell>
        <mxCell id="HCJ9zdkblOyx9PFgzRYO-127" value="" style="shape=partialRectangle;html=1;whiteSpace=wrap;connectable=0;strokeColor=inherit;overflow=hidden;fillColor=none;top=0;left=0;bottom=0;right=0;pointerEvents=1;fontSize=16;" parent="HCJ9zdkblOyx9PFgzRYO-124" vertex="1" visible="0">
          <mxGeometry x="100" width="50" height="40" as="geometry">
            <mxRectangle width="50" height="40" as="alternateBounds" />
          </mxGeometry>
        </mxCell>
        <mxCell id="HCJ9zdkblOyx9PFgzRYO-128" value="" style="shape=tableRow;horizontal=0;startSize=0;swimlaneHead=0;swimlaneBody=0;strokeColor=inherit;top=0;left=0;bottom=0;right=0;collapsible=0;dropTarget=0;fillColor=none;points=[[0,0.5],[1,0.5]];portConstraint=eastwest;fontSize=16;" parent="HCJ9zdkblOyx9PFgzRYO-119" vertex="1">
          <mxGeometry y="80" width="150" height="40" as="geometry" />
        </mxCell>
        <mxCell id="HCJ9zdkblOyx9PFgzRYO-129" value="15" style="shape=partialRectangle;html=1;whiteSpace=wrap;connectable=0;strokeColor=inherit;overflow=hidden;fillColor=none;top=0;left=0;bottom=0;right=0;pointerEvents=1;fontSize=16;" parent="HCJ9zdkblOyx9PFgzRYO-128" vertex="1">
          <mxGeometry width="50" height="40" as="geometry">
            <mxRectangle width="50" height="40" as="alternateBounds" />
          </mxGeometry>
        </mxCell>
        <mxCell id="HCJ9zdkblOyx9PFgzRYO-130" value="2" style="shape=partialRectangle;html=1;whiteSpace=wrap;connectable=0;strokeColor=inherit;overflow=hidden;fillColor=none;top=0;left=0;bottom=0;right=0;pointerEvents=1;fontSize=16;" parent="HCJ9zdkblOyx9PFgzRYO-128" vertex="1">
          <mxGeometry x="50" width="50" height="40" as="geometry">
            <mxRectangle width="50" height="40" as="alternateBounds" />
          </mxGeometry>
        </mxCell>
        <mxCell id="HCJ9zdkblOyx9PFgzRYO-131" value="21" style="shape=partialRectangle;html=1;whiteSpace=wrap;connectable=0;strokeColor=inherit;overflow=hidden;fillColor=none;top=0;left=0;bottom=0;right=0;pointerEvents=1;fontSize=16;" parent="HCJ9zdkblOyx9PFgzRYO-128" vertex="1">
          <mxGeometry x="100" width="50" height="40" as="geometry">
            <mxRectangle width="50" height="40" as="alternateBounds" />
          </mxGeometry>
        </mxCell>
        <mxCell id="HCJ9zdkblOyx9PFgzRYO-145" value="" style="shape=table;startSize=0;container=1;collapsible=0;childLayout=tableLayout;fontSize=16;verticalAlign=top;horizontal=0;" parent="1" vertex="1">
          <mxGeometry x="710" y="-250" width="180" height="100" as="geometry" />
        </mxCell>
        <mxCell id="HCJ9zdkblOyx9PFgzRYO-146" value="" style="shape=tableRow;horizontal=0;startSize=0;swimlaneHead=0;swimlaneBody=0;strokeColor=inherit;top=0;left=0;bottom=0;right=0;collapsible=0;dropTarget=0;fillColor=none;points=[[0,0.5],[1,0.5]];portConstraint=eastwest;fontSize=16;" parent="HCJ9zdkblOyx9PFgzRYO-145" vertex="1">
          <mxGeometry width="180" height="33" as="geometry" />
        </mxCell>
        <mxCell id="HCJ9zdkblOyx9PFgzRYO-147" value="11" style="shape=partialRectangle;html=1;whiteSpace=wrap;connectable=0;strokeColor=inherit;overflow=hidden;fillColor=none;top=0;left=0;bottom=0;right=0;pointerEvents=1;fontSize=16;" parent="HCJ9zdkblOyx9PFgzRYO-146" vertex="1">
          <mxGeometry width="60" height="33" as="geometry">
            <mxRectangle width="60" height="33" as="alternateBounds" />
          </mxGeometry>
        </mxCell>
        <mxCell id="HCJ9zdkblOyx9PFgzRYO-148" value="10" style="shape=partialRectangle;html=1;whiteSpace=wrap;connectable=0;strokeColor=inherit;overflow=hidden;fillColor=none;top=0;left=0;bottom=0;right=0;pointerEvents=1;fontSize=16;" parent="HCJ9zdkblOyx9PFgzRYO-146" vertex="1">
          <mxGeometry x="60" width="70" height="33" as="geometry">
            <mxRectangle width="70" height="33" as="alternateBounds" />
          </mxGeometry>
        </mxCell>
        <mxCell id="HCJ9zdkblOyx9PFgzRYO-149" value="20" style="shape=partialRectangle;html=1;whiteSpace=wrap;connectable=0;strokeColor=inherit;overflow=hidden;fillColor=none;top=0;left=0;bottom=0;right=0;pointerEvents=1;fontSize=16;" parent="HCJ9zdkblOyx9PFgzRYO-146" vertex="1">
          <mxGeometry x="130" width="50" height="33" as="geometry">
            <mxRectangle width="50" height="33" as="alternateBounds" />
          </mxGeometry>
        </mxCell>
        <mxCell id="HCJ9zdkblOyx9PFgzRYO-150" value="" style="shape=tableRow;horizontal=0;startSize=0;swimlaneHead=0;swimlaneBody=0;strokeColor=inherit;top=0;left=0;bottom=0;right=0;collapsible=0;dropTarget=0;fillColor=none;points=[[0,0.5],[1,0.5]];portConstraint=eastwest;fontSize=16;" parent="HCJ9zdkblOyx9PFgzRYO-145" vertex="1">
          <mxGeometry y="33" width="180" height="34" as="geometry" />
        </mxCell>
        <mxCell id="HCJ9zdkblOyx9PFgzRYO-151" value="&lt;font style=&quot;font-size: 14px;&quot;&gt;1.2 Budget Analysis Report&lt;/font&gt;" style="shape=partialRectangle;html=1;whiteSpace=wrap;connectable=0;strokeColor=inherit;overflow=hidden;fillColor=none;top=0;left=0;bottom=0;right=0;pointerEvents=1;fontSize=16;rowspan=1;colspan=3;" parent="HCJ9zdkblOyx9PFgzRYO-150" vertex="1">
          <mxGeometry width="180" height="34" as="geometry">
            <mxRectangle width="60" height="34" as="alternateBounds" />
          </mxGeometry>
        </mxCell>
        <mxCell id="HCJ9zdkblOyx9PFgzRYO-152" value="" style="shape=partialRectangle;html=1;whiteSpace=wrap;connectable=0;strokeColor=inherit;overflow=hidden;fillColor=none;top=0;left=0;bottom=0;right=0;pointerEvents=1;fontSize=16;" parent="HCJ9zdkblOyx9PFgzRYO-150" vertex="1" visible="0">
          <mxGeometry x="60" width="70" height="34" as="geometry">
            <mxRectangle width="70" height="34" as="alternateBounds" />
          </mxGeometry>
        </mxCell>
        <mxCell id="HCJ9zdkblOyx9PFgzRYO-153" value="" style="shape=partialRectangle;html=1;whiteSpace=wrap;connectable=0;strokeColor=inherit;overflow=hidden;fillColor=none;top=0;left=0;bottom=0;right=0;pointerEvents=1;fontSize=16;" parent="HCJ9zdkblOyx9PFgzRYO-150" vertex="1" visible="0">
          <mxGeometry x="130" width="50" height="34" as="geometry">
            <mxRectangle width="50" height="34" as="alternateBounds" />
          </mxGeometry>
        </mxCell>
        <mxCell id="HCJ9zdkblOyx9PFgzRYO-154" value="" style="shape=tableRow;horizontal=0;startSize=0;swimlaneHead=0;swimlaneBody=0;strokeColor=inherit;top=0;left=0;bottom=0;right=0;collapsible=0;dropTarget=0;fillColor=none;points=[[0,0.5],[1,0.5]];portConstraint=eastwest;fontSize=16;" parent="HCJ9zdkblOyx9PFgzRYO-145" vertex="1">
          <mxGeometry y="67" width="180" height="33" as="geometry" />
        </mxCell>
        <mxCell id="HCJ9zdkblOyx9PFgzRYO-155" value="15" style="shape=partialRectangle;html=1;whiteSpace=wrap;connectable=0;strokeColor=inherit;overflow=hidden;fillColor=none;top=0;left=0;bottom=0;right=0;pointerEvents=1;fontSize=16;" parent="HCJ9zdkblOyx9PFgzRYO-154" vertex="1">
          <mxGeometry width="60" height="33" as="geometry">
            <mxRectangle width="60" height="33" as="alternateBounds" />
          </mxGeometry>
        </mxCell>
        <mxCell id="HCJ9zdkblOyx9PFgzRYO-156" value="4" style="shape=partialRectangle;html=1;whiteSpace=wrap;connectable=0;strokeColor=inherit;overflow=hidden;fillColor=none;top=0;left=0;bottom=0;right=0;pointerEvents=1;fontSize=16;" parent="HCJ9zdkblOyx9PFgzRYO-154" vertex="1">
          <mxGeometry x="60" width="70" height="33" as="geometry">
            <mxRectangle width="70" height="33" as="alternateBounds" />
          </mxGeometry>
        </mxCell>
        <mxCell id="HCJ9zdkblOyx9PFgzRYO-157" value="28" style="shape=partialRectangle;html=1;whiteSpace=wrap;connectable=0;strokeColor=inherit;overflow=hidden;fillColor=none;top=0;left=0;bottom=0;right=0;pointerEvents=1;fontSize=16;" parent="HCJ9zdkblOyx9PFgzRYO-154" vertex="1">
          <mxGeometry x="130" width="50" height="33" as="geometry">
            <mxRectangle width="50" height="33" as="alternateBounds" />
          </mxGeometry>
        </mxCell>
        <mxCell id="HCJ9zdkblOyx9PFgzRYO-521" style="edgeStyle=orthogonalEdgeStyle;rounded=0;orthogonalLoop=1;jettySize=auto;html=1;exitX=1;exitY=0.5;exitDx=0;exitDy=0;entryX=0;entryY=0.5;entryDx=0;entryDy=0;strokeColor=#FF3333;" parent="1" source="HCJ9zdkblOyx9PFgzRYO-185" target="HCJ9zdkblOyx9PFgzRYO-272" edge="1">
          <mxGeometry relative="1" as="geometry" />
        </mxCell>
        <mxCell id="HCJ9zdkblOyx9PFgzRYO-185" value="" style="shape=table;startSize=0;container=1;collapsible=0;childLayout=tableLayout;fontSize=16;verticalAlign=top;horizontal=0;" parent="1" vertex="1">
          <mxGeometry x="950" y="50" width="160" height="100" as="geometry" />
        </mxCell>
        <mxCell id="HCJ9zdkblOyx9PFgzRYO-186" value="" style="shape=tableRow;horizontal=0;startSize=0;swimlaneHead=0;swimlaneBody=0;strokeColor=inherit;top=0;left=0;bottom=0;right=0;collapsible=0;dropTarget=0;fillColor=none;points=[[0,0.5],[1,0.5]];portConstraint=eastwest;fontSize=16;" parent="HCJ9zdkblOyx9PFgzRYO-185" vertex="1">
          <mxGeometry width="160" height="33" as="geometry" />
        </mxCell>
        <mxCell id="HCJ9zdkblOyx9PFgzRYO-187" value="26" style="shape=partialRectangle;html=1;whiteSpace=wrap;connectable=0;strokeColor=inherit;overflow=hidden;fillColor=none;top=0;left=0;bottom=0;right=0;pointerEvents=1;fontSize=16;" parent="HCJ9zdkblOyx9PFgzRYO-186" vertex="1">
          <mxGeometry width="50" height="33" as="geometry">
            <mxRectangle width="50" height="33" as="alternateBounds" />
          </mxGeometry>
        </mxCell>
        <mxCell id="HCJ9zdkblOyx9PFgzRYO-188" value="5" style="shape=partialRectangle;html=1;whiteSpace=wrap;connectable=0;strokeColor=inherit;overflow=hidden;fillColor=none;top=0;left=0;bottom=0;right=0;pointerEvents=1;fontSize=16;" parent="HCJ9zdkblOyx9PFgzRYO-186" vertex="1">
          <mxGeometry x="50" width="50" height="33" as="geometry">
            <mxRectangle width="50" height="33" as="alternateBounds" />
          </mxGeometry>
        </mxCell>
        <mxCell id="HCJ9zdkblOyx9PFgzRYO-189" value="30" style="shape=partialRectangle;html=1;whiteSpace=wrap;connectable=0;strokeColor=inherit;overflow=hidden;fillColor=none;top=0;left=0;bottom=0;right=0;pointerEvents=1;fontSize=16;" parent="HCJ9zdkblOyx9PFgzRYO-186" vertex="1">
          <mxGeometry x="100" width="60" height="33" as="geometry">
            <mxRectangle width="60" height="33" as="alternateBounds" />
          </mxGeometry>
        </mxCell>
        <mxCell id="HCJ9zdkblOyx9PFgzRYO-190" value="" style="shape=tableRow;horizontal=0;startSize=0;swimlaneHead=0;swimlaneBody=0;strokeColor=inherit;top=0;left=0;bottom=0;right=0;collapsible=0;dropTarget=0;fillColor=none;points=[[0,0.5],[1,0.5]];portConstraint=eastwest;fontSize=16;" parent="HCJ9zdkblOyx9PFgzRYO-185" vertex="1">
          <mxGeometry y="33" width="160" height="34" as="geometry" />
        </mxCell>
        <mxCell id="HCJ9zdkblOyx9PFgzRYO-191" value="&lt;font style=&quot;font-size: 11px;&quot;&gt;3.4 Development Agreement&lt;/font&gt;" style="shape=partialRectangle;html=1;whiteSpace=wrap;connectable=0;strokeColor=inherit;overflow=hidden;fillColor=none;top=0;left=0;bottom=0;right=0;pointerEvents=1;fontSize=16;rowspan=1;colspan=3;" parent="HCJ9zdkblOyx9PFgzRYO-190" vertex="1">
          <mxGeometry width="160" height="34" as="geometry">
            <mxRectangle width="50" height="34" as="alternateBounds" />
          </mxGeometry>
        </mxCell>
        <mxCell id="HCJ9zdkblOyx9PFgzRYO-192" value="" style="shape=partialRectangle;html=1;whiteSpace=wrap;connectable=0;strokeColor=inherit;overflow=hidden;fillColor=none;top=0;left=0;bottom=0;right=0;pointerEvents=1;fontSize=16;" parent="HCJ9zdkblOyx9PFgzRYO-190" vertex="1" visible="0">
          <mxGeometry x="50" width="50" height="34" as="geometry">
            <mxRectangle width="50" height="34" as="alternateBounds" />
          </mxGeometry>
        </mxCell>
        <mxCell id="HCJ9zdkblOyx9PFgzRYO-193" value="" style="shape=partialRectangle;html=1;whiteSpace=wrap;connectable=0;strokeColor=inherit;overflow=hidden;fillColor=none;top=0;left=0;bottom=0;right=0;pointerEvents=1;fontSize=16;" parent="HCJ9zdkblOyx9PFgzRYO-190" vertex="1" visible="0">
          <mxGeometry x="100" width="60" height="34" as="geometry">
            <mxRectangle width="60" height="34" as="alternateBounds" />
          </mxGeometry>
        </mxCell>
        <mxCell id="HCJ9zdkblOyx9PFgzRYO-194" value="" style="shape=tableRow;horizontal=0;startSize=0;swimlaneHead=0;swimlaneBody=0;strokeColor=inherit;top=0;left=0;bottom=0;right=0;collapsible=0;dropTarget=0;fillColor=none;points=[[0,0.5],[1,0.5]];portConstraint=eastwest;fontSize=16;" parent="HCJ9zdkblOyx9PFgzRYO-185" vertex="1">
          <mxGeometry y="67" width="160" height="33" as="geometry" />
        </mxCell>
        <mxCell id="HCJ9zdkblOyx9PFgzRYO-195" value="38" style="shape=partialRectangle;html=1;whiteSpace=wrap;connectable=0;strokeColor=inherit;overflow=hidden;fillColor=none;top=0;left=0;bottom=0;right=0;pointerEvents=1;fontSize=16;" parent="HCJ9zdkblOyx9PFgzRYO-194" vertex="1">
          <mxGeometry width="50" height="33" as="geometry">
            <mxRectangle width="50" height="33" as="alternateBounds" />
          </mxGeometry>
        </mxCell>
        <mxCell id="HCJ9zdkblOyx9PFgzRYO-196" value="2" style="shape=partialRectangle;html=1;whiteSpace=wrap;connectable=0;strokeColor=inherit;overflow=hidden;fillColor=none;top=0;left=0;bottom=0;right=0;pointerEvents=1;fontSize=16;" parent="HCJ9zdkblOyx9PFgzRYO-194" vertex="1">
          <mxGeometry x="50" width="50" height="33" as="geometry">
            <mxRectangle width="50" height="33" as="alternateBounds" />
          </mxGeometry>
        </mxCell>
        <mxCell id="HCJ9zdkblOyx9PFgzRYO-197" value="44" style="shape=partialRectangle;html=1;whiteSpace=wrap;connectable=0;strokeColor=inherit;overflow=hidden;fillColor=none;top=0;left=0;bottom=0;right=0;pointerEvents=1;fontSize=16;" parent="HCJ9zdkblOyx9PFgzRYO-194" vertex="1">
          <mxGeometry x="100" width="60" height="33" as="geometry">
            <mxRectangle width="60" height="33" as="alternateBounds" />
          </mxGeometry>
        </mxCell>
        <mxCell id="HCJ9zdkblOyx9PFgzRYO-241" value="" style="shape=table;startSize=0;container=1;collapsible=0;childLayout=tableLayout;fontSize=16;verticalAlign=top;horizontal=0;" parent="1" vertex="1">
          <mxGeometry x="1240" y="-220" width="150" height="100" as="geometry" />
        </mxCell>
        <mxCell id="HCJ9zdkblOyx9PFgzRYO-242" value="" style="shape=tableRow;horizontal=0;startSize=0;swimlaneHead=0;swimlaneBody=0;strokeColor=inherit;top=0;left=0;bottom=0;right=0;collapsible=0;dropTarget=0;fillColor=none;points=[[0,0.5],[1,0.5]];portConstraint=eastwest;fontSize=16;" parent="HCJ9zdkblOyx9PFgzRYO-241" vertex="1">
          <mxGeometry width="150" height="33" as="geometry" />
        </mxCell>
        <mxCell id="HCJ9zdkblOyx9PFgzRYO-243" value="31" style="shape=partialRectangle;html=1;whiteSpace=wrap;connectable=0;strokeColor=inherit;overflow=hidden;fillColor=none;top=0;left=0;bottom=0;right=0;pointerEvents=1;fontSize=16;" parent="HCJ9zdkblOyx9PFgzRYO-242" vertex="1">
          <mxGeometry width="50" height="33" as="geometry">
            <mxRectangle width="50" height="33" as="alternateBounds" />
          </mxGeometry>
        </mxCell>
        <mxCell id="HCJ9zdkblOyx9PFgzRYO-244" value="5" style="shape=partialRectangle;html=1;whiteSpace=wrap;connectable=0;strokeColor=inherit;overflow=hidden;fillColor=none;top=0;left=0;bottom=0;right=0;pointerEvents=1;fontSize=16;" parent="HCJ9zdkblOyx9PFgzRYO-242" vertex="1">
          <mxGeometry x="50" width="50" height="33" as="geometry">
            <mxRectangle width="50" height="33" as="alternateBounds" />
          </mxGeometry>
        </mxCell>
        <mxCell id="HCJ9zdkblOyx9PFgzRYO-245" value="35" style="shape=partialRectangle;html=1;whiteSpace=wrap;connectable=0;strokeColor=inherit;overflow=hidden;fillColor=none;top=0;left=0;bottom=0;right=0;pointerEvents=1;fontSize=16;" parent="HCJ9zdkblOyx9PFgzRYO-242" vertex="1">
          <mxGeometry x="100" width="50" height="33" as="geometry">
            <mxRectangle width="50" height="33" as="alternateBounds" />
          </mxGeometry>
        </mxCell>
        <mxCell id="HCJ9zdkblOyx9PFgzRYO-246" value="" style="shape=tableRow;horizontal=0;startSize=0;swimlaneHead=0;swimlaneBody=0;strokeColor=inherit;top=0;left=0;bottom=0;right=0;collapsible=0;dropTarget=0;fillColor=none;points=[[0,0.5],[1,0.5]];portConstraint=eastwest;fontSize=16;" parent="HCJ9zdkblOyx9PFgzRYO-241" vertex="1">
          <mxGeometry y="33" width="150" height="34" as="geometry" />
        </mxCell>
        <mxCell id="HCJ9zdkblOyx9PFgzRYO-247" value="&lt;font style=&quot;font-size: 12px;&quot;&gt;3.1 Techinical Stack Report&lt;/font&gt;" style="shape=partialRectangle;html=1;whiteSpace=wrap;connectable=0;strokeColor=inherit;overflow=hidden;fillColor=none;top=0;left=0;bottom=0;right=0;pointerEvents=1;fontSize=16;rowspan=1;colspan=3;" parent="HCJ9zdkblOyx9PFgzRYO-246" vertex="1">
          <mxGeometry width="150" height="34" as="geometry">
            <mxRectangle width="50" height="34" as="alternateBounds" />
          </mxGeometry>
        </mxCell>
        <mxCell id="HCJ9zdkblOyx9PFgzRYO-248" value="" style="shape=partialRectangle;html=1;whiteSpace=wrap;connectable=0;strokeColor=inherit;overflow=hidden;fillColor=none;top=0;left=0;bottom=0;right=0;pointerEvents=1;fontSize=16;" parent="HCJ9zdkblOyx9PFgzRYO-246" vertex="1" visible="0">
          <mxGeometry x="50" width="50" height="34" as="geometry">
            <mxRectangle width="50" height="34" as="alternateBounds" />
          </mxGeometry>
        </mxCell>
        <mxCell id="HCJ9zdkblOyx9PFgzRYO-249" value="" style="shape=partialRectangle;html=1;whiteSpace=wrap;connectable=0;strokeColor=inherit;overflow=hidden;fillColor=none;top=0;left=0;bottom=0;right=0;pointerEvents=1;fontSize=16;" parent="HCJ9zdkblOyx9PFgzRYO-246" vertex="1" visible="0">
          <mxGeometry x="100" width="50" height="34" as="geometry">
            <mxRectangle width="50" height="34" as="alternateBounds" />
          </mxGeometry>
        </mxCell>
        <mxCell id="HCJ9zdkblOyx9PFgzRYO-250" value="" style="shape=tableRow;horizontal=0;startSize=0;swimlaneHead=0;swimlaneBody=0;strokeColor=inherit;top=0;left=0;bottom=0;right=0;collapsible=0;dropTarget=0;fillColor=none;points=[[0,0.5],[1,0.5]];portConstraint=eastwest;fontSize=16;" parent="HCJ9zdkblOyx9PFgzRYO-241" vertex="1">
          <mxGeometry y="67" width="150" height="33" as="geometry" />
        </mxCell>
        <mxCell id="HCJ9zdkblOyx9PFgzRYO-251" value="45" style="shape=partialRectangle;html=1;whiteSpace=wrap;connectable=0;strokeColor=inherit;overflow=hidden;fillColor=none;top=0;left=0;bottom=0;right=0;pointerEvents=1;fontSize=16;" parent="HCJ9zdkblOyx9PFgzRYO-250" vertex="1">
          <mxGeometry width="50" height="33" as="geometry">
            <mxRectangle width="50" height="33" as="alternateBounds" />
          </mxGeometry>
        </mxCell>
        <mxCell id="HCJ9zdkblOyx9PFgzRYO-252" value="2" style="shape=partialRectangle;html=1;whiteSpace=wrap;connectable=0;strokeColor=inherit;overflow=hidden;fillColor=none;top=0;left=0;bottom=0;right=0;pointerEvents=1;fontSize=16;" parent="HCJ9zdkblOyx9PFgzRYO-250" vertex="1">
          <mxGeometry x="50" width="50" height="33" as="geometry">
            <mxRectangle width="50" height="33" as="alternateBounds" />
          </mxGeometry>
        </mxCell>
        <mxCell id="HCJ9zdkblOyx9PFgzRYO-253" value="51" style="shape=partialRectangle;html=1;whiteSpace=wrap;connectable=0;strokeColor=inherit;overflow=hidden;fillColor=none;top=0;left=0;bottom=0;right=0;pointerEvents=1;fontSize=16;" parent="HCJ9zdkblOyx9PFgzRYO-250" vertex="1">
          <mxGeometry x="100" width="50" height="33" as="geometry">
            <mxRectangle width="50" height="33" as="alternateBounds" />
          </mxGeometry>
        </mxCell>
        <mxCell id="HCJ9zdkblOyx9PFgzRYO-254" value="" style="shape=table;startSize=0;container=1;collapsible=0;childLayout=tableLayout;fontSize=16;verticalAlign=top;horizontal=0;" parent="1" vertex="1">
          <mxGeometry x="1240" y="-60" width="150" height="100" as="geometry" />
        </mxCell>
        <mxCell id="HCJ9zdkblOyx9PFgzRYO-255" value="" style="shape=tableRow;horizontal=0;startSize=0;swimlaneHead=0;swimlaneBody=0;strokeColor=inherit;top=0;left=0;bottom=0;right=0;collapsible=0;dropTarget=0;fillColor=none;points=[[0,0.5],[1,0.5]];portConstraint=eastwest;fontSize=16;" parent="HCJ9zdkblOyx9PFgzRYO-254" vertex="1">
          <mxGeometry width="150" height="33" as="geometry" />
        </mxCell>
        <mxCell id="HCJ9zdkblOyx9PFgzRYO-256" value="31" style="shape=partialRectangle;html=1;whiteSpace=wrap;connectable=0;strokeColor=inherit;overflow=hidden;fillColor=none;top=0;left=0;bottom=0;right=0;pointerEvents=1;fontSize=16;" parent="HCJ9zdkblOyx9PFgzRYO-255" vertex="1">
          <mxGeometry width="50" height="33" as="geometry">
            <mxRectangle width="50" height="33" as="alternateBounds" />
          </mxGeometry>
        </mxCell>
        <mxCell id="HCJ9zdkblOyx9PFgzRYO-257" value="5" style="shape=partialRectangle;html=1;whiteSpace=wrap;connectable=0;strokeColor=inherit;overflow=hidden;fillColor=none;top=0;left=0;bottom=0;right=0;pointerEvents=1;fontSize=16;" parent="HCJ9zdkblOyx9PFgzRYO-255" vertex="1">
          <mxGeometry x="50" width="50" height="33" as="geometry">
            <mxRectangle width="50" height="33" as="alternateBounds" />
          </mxGeometry>
        </mxCell>
        <mxCell id="HCJ9zdkblOyx9PFgzRYO-258" value="35" style="shape=partialRectangle;html=1;whiteSpace=wrap;connectable=0;strokeColor=inherit;overflow=hidden;fillColor=none;top=0;left=0;bottom=0;right=0;pointerEvents=1;fontSize=16;" parent="HCJ9zdkblOyx9PFgzRYO-255" vertex="1">
          <mxGeometry x="100" width="50" height="33" as="geometry">
            <mxRectangle width="50" height="33" as="alternateBounds" />
          </mxGeometry>
        </mxCell>
        <mxCell id="HCJ9zdkblOyx9PFgzRYO-259" value="" style="shape=tableRow;horizontal=0;startSize=0;swimlaneHead=0;swimlaneBody=0;strokeColor=inherit;top=0;left=0;bottom=0;right=0;collapsible=0;dropTarget=0;fillColor=none;points=[[0,0.5],[1,0.5]];portConstraint=eastwest;fontSize=16;" parent="HCJ9zdkblOyx9PFgzRYO-254" vertex="1">
          <mxGeometry y="33" width="150" height="34" as="geometry" />
        </mxCell>
        <mxCell id="HCJ9zdkblOyx9PFgzRYO-260" value="&lt;font style=&quot;font-size: 16px;&quot;&gt;3.2 UX/UI&amp;nbsp;&lt;/font&gt;" style="shape=partialRectangle;html=1;whiteSpace=wrap;connectable=0;strokeColor=inherit;overflow=hidden;fillColor=none;top=0;left=0;bottom=0;right=0;pointerEvents=1;fontSize=16;rowspan=1;colspan=3;" parent="HCJ9zdkblOyx9PFgzRYO-259" vertex="1">
          <mxGeometry width="150" height="34" as="geometry">
            <mxRectangle width="50" height="34" as="alternateBounds" />
          </mxGeometry>
        </mxCell>
        <mxCell id="HCJ9zdkblOyx9PFgzRYO-261" value="" style="shape=partialRectangle;html=1;whiteSpace=wrap;connectable=0;strokeColor=inherit;overflow=hidden;fillColor=none;top=0;left=0;bottom=0;right=0;pointerEvents=1;fontSize=16;" parent="HCJ9zdkblOyx9PFgzRYO-259" vertex="1" visible="0">
          <mxGeometry x="50" width="50" height="34" as="geometry">
            <mxRectangle width="50" height="34" as="alternateBounds" />
          </mxGeometry>
        </mxCell>
        <mxCell id="HCJ9zdkblOyx9PFgzRYO-262" value="" style="shape=partialRectangle;html=1;whiteSpace=wrap;connectable=0;strokeColor=inherit;overflow=hidden;fillColor=none;top=0;left=0;bottom=0;right=0;pointerEvents=1;fontSize=16;" parent="HCJ9zdkblOyx9PFgzRYO-259" vertex="1" visible="0">
          <mxGeometry x="100" width="50" height="34" as="geometry">
            <mxRectangle width="50" height="34" as="alternateBounds" />
          </mxGeometry>
        </mxCell>
        <mxCell id="HCJ9zdkblOyx9PFgzRYO-263" value="" style="shape=tableRow;horizontal=0;startSize=0;swimlaneHead=0;swimlaneBody=0;strokeColor=inherit;top=0;left=0;bottom=0;right=0;collapsible=0;dropTarget=0;fillColor=none;points=[[0,0.5],[1,0.5]];portConstraint=eastwest;fontSize=16;" parent="HCJ9zdkblOyx9PFgzRYO-254" vertex="1">
          <mxGeometry y="67" width="150" height="33" as="geometry" />
        </mxCell>
        <mxCell id="HCJ9zdkblOyx9PFgzRYO-264" value="45" style="shape=partialRectangle;html=1;whiteSpace=wrap;connectable=0;strokeColor=inherit;overflow=hidden;fillColor=none;top=0;left=0;bottom=0;right=0;pointerEvents=1;fontSize=16;" parent="HCJ9zdkblOyx9PFgzRYO-263" vertex="1">
          <mxGeometry width="50" height="33" as="geometry">
            <mxRectangle width="50" height="33" as="alternateBounds" />
          </mxGeometry>
        </mxCell>
        <mxCell id="HCJ9zdkblOyx9PFgzRYO-265" value="2" style="shape=partialRectangle;html=1;whiteSpace=wrap;connectable=0;strokeColor=inherit;overflow=hidden;fillColor=none;top=0;left=0;bottom=0;right=0;pointerEvents=1;fontSize=16;" parent="HCJ9zdkblOyx9PFgzRYO-263" vertex="1">
          <mxGeometry x="50" width="50" height="33" as="geometry">
            <mxRectangle width="50" height="33" as="alternateBounds" />
          </mxGeometry>
        </mxCell>
        <mxCell id="HCJ9zdkblOyx9PFgzRYO-266" value="51" style="shape=partialRectangle;html=1;whiteSpace=wrap;connectable=0;strokeColor=inherit;overflow=hidden;fillColor=none;top=0;left=0;bottom=0;right=0;pointerEvents=1;fontSize=16;" parent="HCJ9zdkblOyx9PFgzRYO-263" vertex="1">
          <mxGeometry x="100" width="50" height="33" as="geometry">
            <mxRectangle width="50" height="33" as="alternateBounds" />
          </mxGeometry>
        </mxCell>
        <mxCell id="HCJ9zdkblOyx9PFgzRYO-267" value="" style="shape=table;startSize=0;container=1;collapsible=0;childLayout=tableLayout;fontSize=16;verticalAlign=top;horizontal=0;" parent="1" vertex="1">
          <mxGeometry x="1240" y="100" width="150" height="100" as="geometry" />
        </mxCell>
        <mxCell id="HCJ9zdkblOyx9PFgzRYO-268" value="" style="shape=tableRow;horizontal=0;startSize=0;swimlaneHead=0;swimlaneBody=0;strokeColor=inherit;top=0;left=0;bottom=0;right=0;collapsible=0;dropTarget=0;fillColor=none;points=[[0,0.5],[1,0.5]];portConstraint=eastwest;fontSize=16;" parent="HCJ9zdkblOyx9PFgzRYO-267" vertex="1">
          <mxGeometry width="150" height="33" as="geometry" />
        </mxCell>
        <mxCell id="HCJ9zdkblOyx9PFgzRYO-269" value="31" style="shape=partialRectangle;html=1;whiteSpace=wrap;connectable=0;strokeColor=inherit;overflow=hidden;fillColor=none;top=0;left=0;bottom=0;right=0;pointerEvents=1;fontSize=16;" parent="HCJ9zdkblOyx9PFgzRYO-268" vertex="1">
          <mxGeometry width="50" height="33" as="geometry">
            <mxRectangle width="50" height="33" as="alternateBounds" />
          </mxGeometry>
        </mxCell>
        <mxCell id="HCJ9zdkblOyx9PFgzRYO-270" value="5" style="shape=partialRectangle;html=1;whiteSpace=wrap;connectable=0;strokeColor=inherit;overflow=hidden;fillColor=none;top=0;left=0;bottom=0;right=0;pointerEvents=1;fontSize=16;" parent="HCJ9zdkblOyx9PFgzRYO-268" vertex="1">
          <mxGeometry x="50" width="50" height="33" as="geometry">
            <mxRectangle width="50" height="33" as="alternateBounds" />
          </mxGeometry>
        </mxCell>
        <mxCell id="HCJ9zdkblOyx9PFgzRYO-271" value="35" style="shape=partialRectangle;html=1;whiteSpace=wrap;connectable=0;strokeColor=inherit;overflow=hidden;fillColor=none;top=0;left=0;bottom=0;right=0;pointerEvents=1;fontSize=16;" parent="HCJ9zdkblOyx9PFgzRYO-268" vertex="1">
          <mxGeometry x="100" width="50" height="33" as="geometry">
            <mxRectangle width="50" height="33" as="alternateBounds" />
          </mxGeometry>
        </mxCell>
        <mxCell id="HCJ9zdkblOyx9PFgzRYO-272" value="" style="shape=tableRow;horizontal=0;startSize=0;swimlaneHead=0;swimlaneBody=0;strokeColor=inherit;top=0;left=0;bottom=0;right=0;collapsible=0;dropTarget=0;fillColor=none;points=[[0,0.5],[1,0.5]];portConstraint=eastwest;fontSize=16;" parent="HCJ9zdkblOyx9PFgzRYO-267" vertex="1">
          <mxGeometry y="33" width="150" height="34" as="geometry" />
        </mxCell>
        <mxCell id="HCJ9zdkblOyx9PFgzRYO-273" value="&lt;font style=&quot;font-size: 14px;&quot;&gt;3.3 Database Design&lt;/font&gt;" style="shape=partialRectangle;html=1;whiteSpace=wrap;connectable=0;strokeColor=inherit;overflow=hidden;fillColor=none;top=0;left=0;bottom=0;right=0;pointerEvents=1;fontSize=16;rowspan=1;colspan=3;" parent="HCJ9zdkblOyx9PFgzRYO-272" vertex="1">
          <mxGeometry width="150" height="34" as="geometry">
            <mxRectangle width="50" height="34" as="alternateBounds" />
          </mxGeometry>
        </mxCell>
        <mxCell id="HCJ9zdkblOyx9PFgzRYO-274" value="" style="shape=partialRectangle;html=1;whiteSpace=wrap;connectable=0;strokeColor=inherit;overflow=hidden;fillColor=none;top=0;left=0;bottom=0;right=0;pointerEvents=1;fontSize=16;" parent="HCJ9zdkblOyx9PFgzRYO-272" vertex="1" visible="0">
          <mxGeometry x="50" width="50" height="34" as="geometry">
            <mxRectangle width="50" height="34" as="alternateBounds" />
          </mxGeometry>
        </mxCell>
        <mxCell id="HCJ9zdkblOyx9PFgzRYO-275" value="" style="shape=partialRectangle;html=1;whiteSpace=wrap;connectable=0;strokeColor=inherit;overflow=hidden;fillColor=none;top=0;left=0;bottom=0;right=0;pointerEvents=1;fontSize=16;" parent="HCJ9zdkblOyx9PFgzRYO-272" vertex="1" visible="0">
          <mxGeometry x="100" width="50" height="34" as="geometry">
            <mxRectangle width="50" height="34" as="alternateBounds" />
          </mxGeometry>
        </mxCell>
        <mxCell id="HCJ9zdkblOyx9PFgzRYO-276" value="" style="shape=tableRow;horizontal=0;startSize=0;swimlaneHead=0;swimlaneBody=0;strokeColor=inherit;top=0;left=0;bottom=0;right=0;collapsible=0;dropTarget=0;fillColor=none;points=[[0,0.5],[1,0.5]];portConstraint=eastwest;fontSize=16;" parent="HCJ9zdkblOyx9PFgzRYO-267" vertex="1">
          <mxGeometry y="67" width="150" height="33" as="geometry" />
        </mxCell>
        <mxCell id="HCJ9zdkblOyx9PFgzRYO-277" value="45" style="shape=partialRectangle;html=1;whiteSpace=wrap;connectable=0;strokeColor=inherit;overflow=hidden;fillColor=none;top=0;left=0;bottom=0;right=0;pointerEvents=1;fontSize=16;" parent="HCJ9zdkblOyx9PFgzRYO-276" vertex="1">
          <mxGeometry width="50" height="33" as="geometry">
            <mxRectangle width="50" height="33" as="alternateBounds" />
          </mxGeometry>
        </mxCell>
        <mxCell id="HCJ9zdkblOyx9PFgzRYO-278" value="2" style="shape=partialRectangle;html=1;whiteSpace=wrap;connectable=0;strokeColor=inherit;overflow=hidden;fillColor=none;top=0;left=0;bottom=0;right=0;pointerEvents=1;fontSize=16;" parent="HCJ9zdkblOyx9PFgzRYO-276" vertex="1">
          <mxGeometry x="50" width="50" height="33" as="geometry">
            <mxRectangle width="50" height="33" as="alternateBounds" />
          </mxGeometry>
        </mxCell>
        <mxCell id="HCJ9zdkblOyx9PFgzRYO-279" value="51" style="shape=partialRectangle;html=1;whiteSpace=wrap;connectable=0;strokeColor=inherit;overflow=hidden;fillColor=none;top=0;left=0;bottom=0;right=0;pointerEvents=1;fontSize=16;" parent="HCJ9zdkblOyx9PFgzRYO-276" vertex="1">
          <mxGeometry x="100" width="50" height="33" as="geometry">
            <mxRectangle width="50" height="33" as="alternateBounds" />
          </mxGeometry>
        </mxCell>
        <mxCell id="HCJ9zdkblOyx9PFgzRYO-280" value="" style="shape=table;startSize=0;container=1;collapsible=0;childLayout=tableLayout;fontSize=16;verticalAlign=top;horizontal=0;" parent="1" vertex="1">
          <mxGeometry x="950" y="-110" width="160" height="100" as="geometry" />
        </mxCell>
        <mxCell id="HCJ9zdkblOyx9PFgzRYO-281" value="" style="shape=tableRow;horizontal=0;startSize=0;swimlaneHead=0;swimlaneBody=0;strokeColor=inherit;top=0;left=0;bottom=0;right=0;collapsible=0;dropTarget=0;fillColor=none;points=[[0,0.5],[1,0.5]];portConstraint=eastwest;fontSize=16;" parent="HCJ9zdkblOyx9PFgzRYO-280" vertex="1">
          <mxGeometry width="160" height="33" as="geometry" />
        </mxCell>
        <mxCell id="HCJ9zdkblOyx9PFgzRYO-282" value="21" style="shape=partialRectangle;html=1;whiteSpace=wrap;connectable=0;strokeColor=inherit;overflow=hidden;fillColor=none;top=0;left=0;bottom=0;right=0;pointerEvents=1;fontSize=16;" parent="HCJ9zdkblOyx9PFgzRYO-281" vertex="1">
          <mxGeometry width="50" height="33" as="geometry">
            <mxRectangle width="50" height="33" as="alternateBounds" />
          </mxGeometry>
        </mxCell>
        <mxCell id="HCJ9zdkblOyx9PFgzRYO-283" value="5" style="shape=partialRectangle;html=1;whiteSpace=wrap;connectable=0;strokeColor=inherit;overflow=hidden;fillColor=none;top=0;left=0;bottom=0;right=0;pointerEvents=1;fontSize=16;" parent="HCJ9zdkblOyx9PFgzRYO-281" vertex="1">
          <mxGeometry x="50" width="60" height="33" as="geometry">
            <mxRectangle width="60" height="33" as="alternateBounds" />
          </mxGeometry>
        </mxCell>
        <mxCell id="HCJ9zdkblOyx9PFgzRYO-284" value="25" style="shape=partialRectangle;html=1;whiteSpace=wrap;connectable=0;strokeColor=inherit;overflow=hidden;fillColor=none;top=0;left=0;bottom=0;right=0;pointerEvents=1;fontSize=16;" parent="HCJ9zdkblOyx9PFgzRYO-281" vertex="1">
          <mxGeometry x="110" width="50" height="33" as="geometry">
            <mxRectangle width="50" height="33" as="alternateBounds" />
          </mxGeometry>
        </mxCell>
        <mxCell id="HCJ9zdkblOyx9PFgzRYO-285" value="" style="shape=tableRow;horizontal=0;startSize=0;swimlaneHead=0;swimlaneBody=0;strokeColor=inherit;top=0;left=0;bottom=0;right=0;collapsible=0;dropTarget=0;fillColor=none;points=[[0,0.5],[1,0.5]];portConstraint=eastwest;fontSize=16;" parent="HCJ9zdkblOyx9PFgzRYO-280" vertex="1">
          <mxGeometry y="33" width="160" height="34" as="geometry" />
        </mxCell>
        <mxCell id="HCJ9zdkblOyx9PFgzRYO-286" value="&lt;font style=&quot;font-size: 10px;&quot;&gt;5.2 Requirement Confirm Report&lt;/font&gt;" style="shape=partialRectangle;html=1;whiteSpace=wrap;connectable=0;strokeColor=inherit;overflow=hidden;fillColor=none;top=0;left=0;bottom=0;right=0;pointerEvents=1;fontSize=16;rowspan=1;colspan=3;" parent="HCJ9zdkblOyx9PFgzRYO-285" vertex="1">
          <mxGeometry width="160" height="34" as="geometry">
            <mxRectangle width="50" height="34" as="alternateBounds" />
          </mxGeometry>
        </mxCell>
        <mxCell id="HCJ9zdkblOyx9PFgzRYO-287" value="" style="shape=partialRectangle;html=1;whiteSpace=wrap;connectable=0;strokeColor=inherit;overflow=hidden;fillColor=none;top=0;left=0;bottom=0;right=0;pointerEvents=1;fontSize=16;" parent="HCJ9zdkblOyx9PFgzRYO-285" vertex="1" visible="0">
          <mxGeometry x="50" width="60" height="34" as="geometry">
            <mxRectangle width="60" height="34" as="alternateBounds" />
          </mxGeometry>
        </mxCell>
        <mxCell id="HCJ9zdkblOyx9PFgzRYO-288" value="" style="shape=partialRectangle;html=1;whiteSpace=wrap;connectable=0;strokeColor=inherit;overflow=hidden;fillColor=none;top=0;left=0;bottom=0;right=0;pointerEvents=1;fontSize=16;" parent="HCJ9zdkblOyx9PFgzRYO-285" vertex="1" visible="0">
          <mxGeometry x="110" width="50" height="34" as="geometry">
            <mxRectangle width="50" height="34" as="alternateBounds" />
          </mxGeometry>
        </mxCell>
        <mxCell id="HCJ9zdkblOyx9PFgzRYO-289" value="" style="shape=tableRow;horizontal=0;startSize=0;swimlaneHead=0;swimlaneBody=0;strokeColor=inherit;top=0;left=0;bottom=0;right=0;collapsible=0;dropTarget=0;fillColor=none;points=[[0,0.5],[1,0.5]];portConstraint=eastwest;fontSize=16;" parent="HCJ9zdkblOyx9PFgzRYO-280" vertex="1">
          <mxGeometry y="67" width="160" height="33" as="geometry" />
        </mxCell>
        <mxCell id="HCJ9zdkblOyx9PFgzRYO-290" value="31" style="shape=partialRectangle;html=1;whiteSpace=wrap;connectable=0;strokeColor=inherit;overflow=hidden;fillColor=none;top=0;left=0;bottom=0;right=0;pointerEvents=1;fontSize=16;" parent="HCJ9zdkblOyx9PFgzRYO-289" vertex="1">
          <mxGeometry width="50" height="33" as="geometry">
            <mxRectangle width="50" height="33" as="alternateBounds" />
          </mxGeometry>
        </mxCell>
        <mxCell id="HCJ9zdkblOyx9PFgzRYO-291" value="2" style="shape=partialRectangle;html=1;whiteSpace=wrap;connectable=0;strokeColor=inherit;overflow=hidden;fillColor=none;top=0;left=0;bottom=0;right=0;pointerEvents=1;fontSize=16;" parent="HCJ9zdkblOyx9PFgzRYO-289" vertex="1">
          <mxGeometry x="50" width="60" height="33" as="geometry">
            <mxRectangle width="60" height="33" as="alternateBounds" />
          </mxGeometry>
        </mxCell>
        <mxCell id="HCJ9zdkblOyx9PFgzRYO-292" value="37" style="shape=partialRectangle;html=1;whiteSpace=wrap;connectable=0;strokeColor=inherit;overflow=hidden;fillColor=none;top=0;left=0;bottom=0;right=0;pointerEvents=1;fontSize=16;" parent="HCJ9zdkblOyx9PFgzRYO-289" vertex="1">
          <mxGeometry x="110" width="50" height="33" as="geometry">
            <mxRectangle width="50" height="33" as="alternateBounds" />
          </mxGeometry>
        </mxCell>
        <mxCell id="HCJ9zdkblOyx9PFgzRYO-332" value="" style="shape=table;startSize=0;container=1;collapsible=0;childLayout=tableLayout;fontSize=16;verticalAlign=top;horizontal=0;" parent="1" vertex="1">
          <mxGeometry x="2120" y="-170" width="180" height="100" as="geometry" />
        </mxCell>
        <mxCell id="HCJ9zdkblOyx9PFgzRYO-333" value="" style="shape=tableRow;horizontal=0;startSize=0;swimlaneHead=0;swimlaneBody=0;strokeColor=inherit;top=0;left=0;bottom=0;right=0;collapsible=0;dropTarget=0;fillColor=none;points=[[0,0.5],[1,0.5]];portConstraint=eastwest;fontSize=16;" parent="HCJ9zdkblOyx9PFgzRYO-332" vertex="1">
          <mxGeometry width="180" height="33" as="geometry" />
        </mxCell>
        <mxCell id="HCJ9zdkblOyx9PFgzRYO-334" value="76" style="shape=partialRectangle;html=1;whiteSpace=wrap;connectable=0;strokeColor=inherit;overflow=hidden;fillColor=none;top=0;left=0;bottom=0;right=0;pointerEvents=1;fontSize=16;" parent="HCJ9zdkblOyx9PFgzRYO-333" vertex="1">
          <mxGeometry width="60" height="33" as="geometry">
            <mxRectangle width="60" height="33" as="alternateBounds" />
          </mxGeometry>
        </mxCell>
        <mxCell id="HCJ9zdkblOyx9PFgzRYO-335" value="5" style="shape=partialRectangle;html=1;whiteSpace=wrap;connectable=0;strokeColor=inherit;overflow=hidden;fillColor=none;top=0;left=0;bottom=0;right=0;pointerEvents=1;fontSize=16;" parent="HCJ9zdkblOyx9PFgzRYO-333" vertex="1">
          <mxGeometry x="60" width="60" height="33" as="geometry">
            <mxRectangle width="60" height="33" as="alternateBounds" />
          </mxGeometry>
        </mxCell>
        <mxCell id="HCJ9zdkblOyx9PFgzRYO-336" value="80" style="shape=partialRectangle;html=1;whiteSpace=wrap;connectable=0;strokeColor=inherit;overflow=hidden;fillColor=none;top=0;left=0;bottom=0;right=0;pointerEvents=1;fontSize=16;" parent="HCJ9zdkblOyx9PFgzRYO-333" vertex="1">
          <mxGeometry x="120" width="60" height="33" as="geometry">
            <mxRectangle width="60" height="33" as="alternateBounds" />
          </mxGeometry>
        </mxCell>
        <mxCell id="HCJ9zdkblOyx9PFgzRYO-337" value="" style="shape=tableRow;horizontal=0;startSize=0;swimlaneHead=0;swimlaneBody=0;strokeColor=inherit;top=0;left=0;bottom=0;right=0;collapsible=0;dropTarget=0;fillColor=none;points=[[0,0.5],[1,0.5]];portConstraint=eastwest;fontSize=16;" parent="HCJ9zdkblOyx9PFgzRYO-332" vertex="1">
          <mxGeometry y="33" width="180" height="34" as="geometry" />
        </mxCell>
        <mxCell id="HCJ9zdkblOyx9PFgzRYO-338" value="5.3 Data Security Report" style="shape=partialRectangle;html=1;whiteSpace=wrap;connectable=0;strokeColor=inherit;overflow=hidden;fillColor=none;top=0;left=0;bottom=0;right=0;pointerEvents=1;fontSize=16;rowspan=1;colspan=3;" parent="HCJ9zdkblOyx9PFgzRYO-337" vertex="1">
          <mxGeometry width="180" height="34" as="geometry">
            <mxRectangle width="60" height="34" as="alternateBounds" />
          </mxGeometry>
        </mxCell>
        <mxCell id="HCJ9zdkblOyx9PFgzRYO-339" value="" style="shape=partialRectangle;html=1;whiteSpace=wrap;connectable=0;strokeColor=inherit;overflow=hidden;fillColor=none;top=0;left=0;bottom=0;right=0;pointerEvents=1;fontSize=16;" parent="HCJ9zdkblOyx9PFgzRYO-337" vertex="1" visible="0">
          <mxGeometry x="60" width="60" height="34" as="geometry">
            <mxRectangle width="60" height="34" as="alternateBounds" />
          </mxGeometry>
        </mxCell>
        <mxCell id="HCJ9zdkblOyx9PFgzRYO-340" value="" style="shape=partialRectangle;html=1;whiteSpace=wrap;connectable=0;strokeColor=inherit;overflow=hidden;fillColor=none;top=0;left=0;bottom=0;right=0;pointerEvents=1;fontSize=16;" parent="HCJ9zdkblOyx9PFgzRYO-337" vertex="1" visible="0">
          <mxGeometry x="120" width="60" height="34" as="geometry">
            <mxRectangle width="60" height="34" as="alternateBounds" />
          </mxGeometry>
        </mxCell>
        <mxCell id="HCJ9zdkblOyx9PFgzRYO-341" value="" style="shape=tableRow;horizontal=0;startSize=0;swimlaneHead=0;swimlaneBody=0;strokeColor=inherit;top=0;left=0;bottom=0;right=0;collapsible=0;dropTarget=0;fillColor=none;points=[[0,0.5],[1,0.5]];portConstraint=eastwest;fontSize=16;" parent="HCJ9zdkblOyx9PFgzRYO-332" vertex="1">
          <mxGeometry y="67" width="180" height="33" as="geometry" />
        </mxCell>
        <mxCell id="HCJ9zdkblOyx9PFgzRYO-342" value="113" style="shape=partialRectangle;html=1;whiteSpace=wrap;connectable=0;strokeColor=inherit;overflow=hidden;fillColor=none;top=0;left=0;bottom=0;right=0;pointerEvents=1;fontSize=16;" parent="HCJ9zdkblOyx9PFgzRYO-341" vertex="1">
          <mxGeometry width="60" height="33" as="geometry">
            <mxRectangle width="60" height="33" as="alternateBounds" />
          </mxGeometry>
        </mxCell>
        <mxCell id="HCJ9zdkblOyx9PFgzRYO-343" value="7" style="shape=partialRectangle;html=1;whiteSpace=wrap;connectable=0;strokeColor=inherit;overflow=hidden;fillColor=none;top=0;left=0;bottom=0;right=0;pointerEvents=1;fontSize=16;" parent="HCJ9zdkblOyx9PFgzRYO-341" vertex="1">
          <mxGeometry x="60" width="60" height="33" as="geometry">
            <mxRectangle width="60" height="33" as="alternateBounds" />
          </mxGeometry>
        </mxCell>
        <mxCell id="HCJ9zdkblOyx9PFgzRYO-344" value="124" style="shape=partialRectangle;html=1;whiteSpace=wrap;connectable=0;strokeColor=inherit;overflow=hidden;fillColor=none;top=0;left=0;bottom=0;right=0;pointerEvents=1;fontSize=16;" parent="HCJ9zdkblOyx9PFgzRYO-341" vertex="1">
          <mxGeometry x="120" width="60" height="33" as="geometry">
            <mxRectangle width="60" height="33" as="alternateBounds" />
          </mxGeometry>
        </mxCell>
        <mxCell id="HCJ9zdkblOyx9PFgzRYO-371" value="" style="shape=table;startSize=0;container=1;collapsible=0;childLayout=tableLayout;fontSize=16;verticalAlign=top;horizontal=0;" parent="1" vertex="1">
          <mxGeometry x="1511" y="-120" width="180" height="100" as="geometry" />
        </mxCell>
        <mxCell id="HCJ9zdkblOyx9PFgzRYO-372" value="" style="shape=tableRow;horizontal=0;startSize=0;swimlaneHead=0;swimlaneBody=0;strokeColor=inherit;top=0;left=0;bottom=0;right=0;collapsible=0;dropTarget=0;fillColor=none;points=[[0,0.5],[1,0.5]];portConstraint=eastwest;fontSize=16;" parent="HCJ9zdkblOyx9PFgzRYO-371" vertex="1">
          <mxGeometry width="180" height="33" as="geometry" />
        </mxCell>
        <mxCell id="HCJ9zdkblOyx9PFgzRYO-373" value="36" style="shape=partialRectangle;html=1;whiteSpace=wrap;connectable=0;strokeColor=inherit;overflow=hidden;fillColor=none;top=0;left=0;bottom=0;right=0;pointerEvents=1;fontSize=16;" parent="HCJ9zdkblOyx9PFgzRYO-372" vertex="1">
          <mxGeometry width="60" height="33" as="geometry">
            <mxRectangle width="60" height="33" as="alternateBounds" />
          </mxGeometry>
        </mxCell>
        <mxCell id="HCJ9zdkblOyx9PFgzRYO-374" value="30" style="shape=partialRectangle;html=1;whiteSpace=wrap;connectable=0;strokeColor=inherit;overflow=hidden;fillColor=none;top=0;left=0;bottom=0;right=0;pointerEvents=1;fontSize=16;" parent="HCJ9zdkblOyx9PFgzRYO-372" vertex="1">
          <mxGeometry x="60" width="60" height="33" as="geometry">
            <mxRectangle width="60" height="33" as="alternateBounds" />
          </mxGeometry>
        </mxCell>
        <mxCell id="HCJ9zdkblOyx9PFgzRYO-375" value="65" style="shape=partialRectangle;html=1;whiteSpace=wrap;connectable=0;strokeColor=inherit;overflow=hidden;fillColor=none;top=0;left=0;bottom=0;right=0;pointerEvents=1;fontSize=16;" parent="HCJ9zdkblOyx9PFgzRYO-372" vertex="1">
          <mxGeometry x="120" width="60" height="33" as="geometry">
            <mxRectangle width="60" height="33" as="alternateBounds" />
          </mxGeometry>
        </mxCell>
        <mxCell id="HCJ9zdkblOyx9PFgzRYO-376" value="" style="shape=tableRow;horizontal=0;startSize=0;swimlaneHead=0;swimlaneBody=0;strokeColor=inherit;top=0;left=0;bottom=0;right=0;collapsible=0;dropTarget=0;fillColor=none;points=[[0,0.5],[1,0.5]];portConstraint=eastwest;fontSize=16;" parent="HCJ9zdkblOyx9PFgzRYO-371" vertex="1">
          <mxGeometry y="33" width="180" height="34" as="geometry" />
        </mxCell>
        <mxCell id="HCJ9zdkblOyx9PFgzRYO-377" value="&lt;font style=&quot;font-size: 10px;&quot;&gt;4.1 Development Report for Backend&lt;/font&gt;" style="shape=partialRectangle;html=1;whiteSpace=wrap;connectable=0;strokeColor=inherit;overflow=hidden;fillColor=none;top=0;left=0;bottom=0;right=0;pointerEvents=1;fontSize=16;rowspan=1;colspan=3;" parent="HCJ9zdkblOyx9PFgzRYO-376" vertex="1">
          <mxGeometry width="180" height="34" as="geometry">
            <mxRectangle width="60" height="34" as="alternateBounds" />
          </mxGeometry>
        </mxCell>
        <mxCell id="HCJ9zdkblOyx9PFgzRYO-378" value="" style="shape=partialRectangle;html=1;whiteSpace=wrap;connectable=0;strokeColor=inherit;overflow=hidden;fillColor=none;top=0;left=0;bottom=0;right=0;pointerEvents=1;fontSize=16;" parent="HCJ9zdkblOyx9PFgzRYO-376" vertex="1" visible="0">
          <mxGeometry x="60" width="60" height="34" as="geometry">
            <mxRectangle width="60" height="34" as="alternateBounds" />
          </mxGeometry>
        </mxCell>
        <mxCell id="HCJ9zdkblOyx9PFgzRYO-379" value="" style="shape=partialRectangle;html=1;whiteSpace=wrap;connectable=0;strokeColor=inherit;overflow=hidden;fillColor=none;top=0;left=0;bottom=0;right=0;pointerEvents=1;fontSize=16;" parent="HCJ9zdkblOyx9PFgzRYO-376" vertex="1" visible="0">
          <mxGeometry x="120" width="60" height="34" as="geometry">
            <mxRectangle width="60" height="34" as="alternateBounds" />
          </mxGeometry>
        </mxCell>
        <mxCell id="HCJ9zdkblOyx9PFgzRYO-380" value="" style="shape=tableRow;horizontal=0;startSize=0;swimlaneHead=0;swimlaneBody=0;strokeColor=inherit;top=0;left=0;bottom=0;right=0;collapsible=0;dropTarget=0;fillColor=none;points=[[0,0.5],[1,0.5]];portConstraint=eastwest;fontSize=16;" parent="HCJ9zdkblOyx9PFgzRYO-371" vertex="1">
          <mxGeometry y="67" width="180" height="33" as="geometry" />
        </mxCell>
        <mxCell id="HCJ9zdkblOyx9PFgzRYO-381" value="52" style="shape=partialRectangle;html=1;whiteSpace=wrap;connectable=0;strokeColor=inherit;overflow=hidden;fillColor=none;top=0;left=0;bottom=0;right=0;pointerEvents=1;fontSize=16;" parent="HCJ9zdkblOyx9PFgzRYO-380" vertex="1">
          <mxGeometry width="60" height="33" as="geometry">
            <mxRectangle width="60" height="33" as="alternateBounds" />
          </mxGeometry>
        </mxCell>
        <mxCell id="HCJ9zdkblOyx9PFgzRYO-382" value="12" style="shape=partialRectangle;html=1;whiteSpace=wrap;connectable=0;strokeColor=inherit;overflow=hidden;fillColor=none;top=0;left=0;bottom=0;right=0;pointerEvents=1;fontSize=16;" parent="HCJ9zdkblOyx9PFgzRYO-380" vertex="1">
          <mxGeometry x="60" width="60" height="33" as="geometry">
            <mxRectangle width="60" height="33" as="alternateBounds" />
          </mxGeometry>
        </mxCell>
        <mxCell id="HCJ9zdkblOyx9PFgzRYO-383" value="93" style="shape=partialRectangle;html=1;whiteSpace=wrap;connectable=0;strokeColor=inherit;overflow=hidden;fillColor=none;top=0;left=0;bottom=0;right=0;pointerEvents=1;fontSize=16;" parent="HCJ9zdkblOyx9PFgzRYO-380" vertex="1">
          <mxGeometry x="120" width="60" height="33" as="geometry">
            <mxRectangle width="60" height="33" as="alternateBounds" />
          </mxGeometry>
        </mxCell>
        <mxCell id="HCJ9zdkblOyx9PFgzRYO-384" value="" style="shape=table;startSize=0;container=1;collapsible=0;childLayout=tableLayout;fontSize=16;verticalAlign=top;horizontal=0;" parent="1" vertex="1">
          <mxGeometry x="1511" y="40" width="180" height="100" as="geometry" />
        </mxCell>
        <mxCell id="HCJ9zdkblOyx9PFgzRYO-385" value="" style="shape=tableRow;horizontal=0;startSize=0;swimlaneHead=0;swimlaneBody=0;strokeColor=inherit;top=0;left=0;bottom=0;right=0;collapsible=0;dropTarget=0;fillColor=none;points=[[0,0.5],[1,0.5]];portConstraint=eastwest;fontSize=16;" parent="HCJ9zdkblOyx9PFgzRYO-384" vertex="1">
          <mxGeometry width="180" height="33" as="geometry" />
        </mxCell>
        <mxCell id="HCJ9zdkblOyx9PFgzRYO-386" value="36" style="shape=partialRectangle;html=1;whiteSpace=wrap;connectable=0;strokeColor=inherit;overflow=hidden;fillColor=none;top=0;left=0;bottom=0;right=0;pointerEvents=1;fontSize=16;" parent="HCJ9zdkblOyx9PFgzRYO-385" vertex="1">
          <mxGeometry width="60" height="33" as="geometry">
            <mxRectangle width="60" height="33" as="alternateBounds" />
          </mxGeometry>
        </mxCell>
        <mxCell id="HCJ9zdkblOyx9PFgzRYO-387" value="30" style="shape=partialRectangle;html=1;whiteSpace=wrap;connectable=0;strokeColor=inherit;overflow=hidden;fillColor=none;top=0;left=0;bottom=0;right=0;pointerEvents=1;fontSize=16;" parent="HCJ9zdkblOyx9PFgzRYO-385" vertex="1">
          <mxGeometry x="60" width="60" height="33" as="geometry">
            <mxRectangle width="60" height="33" as="alternateBounds" />
          </mxGeometry>
        </mxCell>
        <mxCell id="HCJ9zdkblOyx9PFgzRYO-388" value="65" style="shape=partialRectangle;html=1;whiteSpace=wrap;connectable=0;strokeColor=inherit;overflow=hidden;fillColor=none;top=0;left=0;bottom=0;right=0;pointerEvents=1;fontSize=16;" parent="HCJ9zdkblOyx9PFgzRYO-385" vertex="1">
          <mxGeometry x="120" width="60" height="33" as="geometry">
            <mxRectangle width="60" height="33" as="alternateBounds" />
          </mxGeometry>
        </mxCell>
        <mxCell id="HCJ9zdkblOyx9PFgzRYO-389" value="" style="shape=tableRow;horizontal=0;startSize=0;swimlaneHead=0;swimlaneBody=0;strokeColor=inherit;top=0;left=0;bottom=0;right=0;collapsible=0;dropTarget=0;fillColor=none;points=[[0,0.5],[1,0.5]];portConstraint=eastwest;fontSize=16;" parent="HCJ9zdkblOyx9PFgzRYO-384" vertex="1">
          <mxGeometry y="33" width="180" height="34" as="geometry" />
        </mxCell>
        <mxCell id="HCJ9zdkblOyx9PFgzRYO-390" value="&lt;font style=&quot;font-size: 10px;&quot;&gt;4.2 Development Report for Frontend&lt;/font&gt;" style="shape=partialRectangle;html=1;whiteSpace=wrap;connectable=0;strokeColor=inherit;overflow=hidden;fillColor=none;top=0;left=0;bottom=0;right=0;pointerEvents=1;fontSize=16;rowspan=1;colspan=3;" parent="HCJ9zdkblOyx9PFgzRYO-389" vertex="1">
          <mxGeometry width="180" height="34" as="geometry">
            <mxRectangle width="60" height="34" as="alternateBounds" />
          </mxGeometry>
        </mxCell>
        <mxCell id="HCJ9zdkblOyx9PFgzRYO-391" value="" style="shape=partialRectangle;html=1;whiteSpace=wrap;connectable=0;strokeColor=inherit;overflow=hidden;fillColor=none;top=0;left=0;bottom=0;right=0;pointerEvents=1;fontSize=16;" parent="HCJ9zdkblOyx9PFgzRYO-389" vertex="1" visible="0">
          <mxGeometry x="60" width="60" height="34" as="geometry">
            <mxRectangle width="60" height="34" as="alternateBounds" />
          </mxGeometry>
        </mxCell>
        <mxCell id="HCJ9zdkblOyx9PFgzRYO-392" value="" style="shape=partialRectangle;html=1;whiteSpace=wrap;connectable=0;strokeColor=inherit;overflow=hidden;fillColor=none;top=0;left=0;bottom=0;right=0;pointerEvents=1;fontSize=16;" parent="HCJ9zdkblOyx9PFgzRYO-389" vertex="1" visible="0">
          <mxGeometry x="120" width="60" height="34" as="geometry">
            <mxRectangle width="60" height="34" as="alternateBounds" />
          </mxGeometry>
        </mxCell>
        <mxCell id="HCJ9zdkblOyx9PFgzRYO-393" value="" style="shape=tableRow;horizontal=0;startSize=0;swimlaneHead=0;swimlaneBody=0;strokeColor=inherit;top=0;left=0;bottom=0;right=0;collapsible=0;dropTarget=0;fillColor=none;points=[[0,0.5],[1,0.5]];portConstraint=eastwest;fontSize=16;" parent="HCJ9zdkblOyx9PFgzRYO-384" vertex="1">
          <mxGeometry y="67" width="180" height="33" as="geometry" />
        </mxCell>
        <mxCell id="HCJ9zdkblOyx9PFgzRYO-394" value="52" style="shape=partialRectangle;html=1;whiteSpace=wrap;connectable=0;strokeColor=inherit;overflow=hidden;fillColor=none;top=0;left=0;bottom=0;right=0;pointerEvents=1;fontSize=16;" parent="HCJ9zdkblOyx9PFgzRYO-393" vertex="1">
          <mxGeometry width="60" height="33" as="geometry">
            <mxRectangle width="60" height="33" as="alternateBounds" />
          </mxGeometry>
        </mxCell>
        <mxCell id="HCJ9zdkblOyx9PFgzRYO-395" value="12" style="shape=partialRectangle;html=1;whiteSpace=wrap;connectable=0;strokeColor=inherit;overflow=hidden;fillColor=none;top=0;left=0;bottom=0;right=0;pointerEvents=1;fontSize=16;" parent="HCJ9zdkblOyx9PFgzRYO-393" vertex="1">
          <mxGeometry x="60" width="60" height="33" as="geometry">
            <mxRectangle width="60" height="33" as="alternateBounds" />
          </mxGeometry>
        </mxCell>
        <mxCell id="HCJ9zdkblOyx9PFgzRYO-396" value="93" style="shape=partialRectangle;html=1;whiteSpace=wrap;connectable=0;strokeColor=inherit;overflow=hidden;fillColor=none;top=0;left=0;bottom=0;right=0;pointerEvents=1;fontSize=16;" parent="HCJ9zdkblOyx9PFgzRYO-393" vertex="1">
          <mxGeometry x="120" width="60" height="33" as="geometry">
            <mxRectangle width="60" height="33" as="alternateBounds" />
          </mxGeometry>
        </mxCell>
        <mxCell id="HCJ9zdkblOyx9PFgzRYO-172" value="" style="shape=table;startSize=0;container=1;collapsible=0;childLayout=tableLayout;fontSize=16;verticalAlign=top;horizontal=0;" parent="1" vertex="1">
          <mxGeometry x="710" y="30" width="180" height="120" as="geometry" />
        </mxCell>
        <mxCell id="HCJ9zdkblOyx9PFgzRYO-173" value="" style="shape=tableRow;horizontal=0;startSize=0;swimlaneHead=0;swimlaneBody=0;strokeColor=inherit;top=0;left=0;bottom=0;right=0;collapsible=0;dropTarget=0;fillColor=none;points=[[0,0.5],[1,0.5]];portConstraint=eastwest;fontSize=16;" parent="HCJ9zdkblOyx9PFgzRYO-172" vertex="1">
          <mxGeometry width="180" height="39" as="geometry" />
        </mxCell>
        <mxCell id="HCJ9zdkblOyx9PFgzRYO-174" value="16" style="shape=partialRectangle;html=1;whiteSpace=wrap;connectable=0;strokeColor=inherit;overflow=hidden;fillColor=none;top=0;left=0;bottom=0;right=0;pointerEvents=1;fontSize=16;" parent="HCJ9zdkblOyx9PFgzRYO-173" vertex="1">
          <mxGeometry width="60" height="39" as="geometry">
            <mxRectangle width="60" height="39" as="alternateBounds" />
          </mxGeometry>
        </mxCell>
        <mxCell id="HCJ9zdkblOyx9PFgzRYO-175" value="5" style="shape=partialRectangle;html=1;whiteSpace=wrap;connectable=0;strokeColor=inherit;overflow=hidden;fillColor=none;top=0;left=0;bottom=0;right=0;pointerEvents=1;fontSize=16;" parent="HCJ9zdkblOyx9PFgzRYO-173" vertex="1">
          <mxGeometry x="60" width="70" height="39" as="geometry">
            <mxRectangle width="70" height="39" as="alternateBounds" />
          </mxGeometry>
        </mxCell>
        <mxCell id="HCJ9zdkblOyx9PFgzRYO-176" value="20" style="shape=partialRectangle;html=1;whiteSpace=wrap;connectable=0;strokeColor=inherit;overflow=hidden;fillColor=none;top=0;left=0;bottom=0;right=0;pointerEvents=1;fontSize=16;" parent="HCJ9zdkblOyx9PFgzRYO-173" vertex="1">
          <mxGeometry x="130" width="50" height="39" as="geometry">
            <mxRectangle width="50" height="39" as="alternateBounds" />
          </mxGeometry>
        </mxCell>
        <mxCell id="HCJ9zdkblOyx9PFgzRYO-177" value="" style="shape=tableRow;horizontal=0;startSize=0;swimlaneHead=0;swimlaneBody=0;strokeColor=inherit;top=0;left=0;bottom=0;right=0;collapsible=0;dropTarget=0;fillColor=none;points=[[0,0.5],[1,0.5]];portConstraint=eastwest;fontSize=16;" parent="HCJ9zdkblOyx9PFgzRYO-172" vertex="1">
          <mxGeometry y="39" width="180" height="42" as="geometry" />
        </mxCell>
        <mxCell id="HCJ9zdkblOyx9PFgzRYO-178" value="&lt;font style=&quot;font-size: 13px;&quot;&gt;2.4 Demand Research Report&lt;/font&gt;" style="shape=partialRectangle;html=1;whiteSpace=wrap;connectable=0;strokeColor=inherit;overflow=hidden;fillColor=none;top=0;left=0;bottom=0;right=0;pointerEvents=1;fontSize=16;rowspan=1;colspan=3;" parent="HCJ9zdkblOyx9PFgzRYO-177" vertex="1">
          <mxGeometry width="180" height="42" as="geometry">
            <mxRectangle width="60" height="42" as="alternateBounds" />
          </mxGeometry>
        </mxCell>
        <mxCell id="HCJ9zdkblOyx9PFgzRYO-179" value="" style="shape=partialRectangle;html=1;whiteSpace=wrap;connectable=0;strokeColor=inherit;overflow=hidden;fillColor=none;top=0;left=0;bottom=0;right=0;pointerEvents=1;fontSize=16;" parent="HCJ9zdkblOyx9PFgzRYO-177" vertex="1" visible="0">
          <mxGeometry x="60" width="70" height="42" as="geometry">
            <mxRectangle width="70" height="42" as="alternateBounds" />
          </mxGeometry>
        </mxCell>
        <mxCell id="HCJ9zdkblOyx9PFgzRYO-180" value="" style="shape=partialRectangle;html=1;whiteSpace=wrap;connectable=0;strokeColor=inherit;overflow=hidden;fillColor=none;top=0;left=0;bottom=0;right=0;pointerEvents=1;fontSize=16;" parent="HCJ9zdkblOyx9PFgzRYO-177" vertex="1" visible="0">
          <mxGeometry x="130" width="50" height="42" as="geometry">
            <mxRectangle width="50" height="42" as="alternateBounds" />
          </mxGeometry>
        </mxCell>
        <mxCell id="HCJ9zdkblOyx9PFgzRYO-181" value="" style="shape=tableRow;horizontal=0;startSize=0;swimlaneHead=0;swimlaneBody=0;strokeColor=inherit;top=0;left=0;bottom=0;right=0;collapsible=0;dropTarget=0;fillColor=none;points=[[0,0.5],[1,0.5]];portConstraint=eastwest;fontSize=16;" parent="HCJ9zdkblOyx9PFgzRYO-172" vertex="1">
          <mxGeometry y="81" width="180" height="39" as="geometry" />
        </mxCell>
        <mxCell id="HCJ9zdkblOyx9PFgzRYO-182" value="22" style="shape=partialRectangle;html=1;whiteSpace=wrap;connectable=0;strokeColor=inherit;overflow=hidden;fillColor=none;top=0;left=0;bottom=0;right=0;pointerEvents=1;fontSize=16;" parent="HCJ9zdkblOyx9PFgzRYO-181" vertex="1">
          <mxGeometry width="60" height="39" as="geometry">
            <mxRectangle width="60" height="39" as="alternateBounds" />
          </mxGeometry>
        </mxCell>
        <mxCell id="HCJ9zdkblOyx9PFgzRYO-183" value="4" style="shape=partialRectangle;html=1;whiteSpace=wrap;connectable=0;strokeColor=inherit;overflow=hidden;fillColor=none;top=0;left=0;bottom=0;right=0;pointerEvents=1;fontSize=16;" parent="HCJ9zdkblOyx9PFgzRYO-181" vertex="1">
          <mxGeometry x="60" width="70" height="39" as="geometry">
            <mxRectangle width="70" height="39" as="alternateBounds" />
          </mxGeometry>
        </mxCell>
        <mxCell id="HCJ9zdkblOyx9PFgzRYO-184" value="30" style="shape=partialRectangle;html=1;whiteSpace=wrap;connectable=0;strokeColor=inherit;overflow=hidden;fillColor=none;top=0;left=0;bottom=0;right=0;pointerEvents=1;fontSize=16;" parent="HCJ9zdkblOyx9PFgzRYO-181" vertex="1">
          <mxGeometry x="130" width="50" height="39" as="geometry">
            <mxRectangle width="50" height="39" as="alternateBounds" />
          </mxGeometry>
        </mxCell>
        <mxCell id="HCJ9zdkblOyx9PFgzRYO-159" value="" style="shape=table;startSize=0;container=1;collapsible=0;childLayout=tableLayout;fontSize=16;verticalAlign=top;horizontal=0;" parent="1" vertex="1">
          <mxGeometry x="710" y="-110" width="180" height="107" as="geometry" />
        </mxCell>
        <mxCell id="HCJ9zdkblOyx9PFgzRYO-160" value="" style="shape=tableRow;horizontal=0;startSize=0;swimlaneHead=0;swimlaneBody=0;strokeColor=inherit;top=0;left=0;bottom=0;right=0;collapsible=0;dropTarget=0;fillColor=none;points=[[0,0.5],[1,0.5]];portConstraint=eastwest;fontSize=16;" parent="HCJ9zdkblOyx9PFgzRYO-159" vertex="1">
          <mxGeometry width="180" height="40" as="geometry" />
        </mxCell>
        <mxCell id="HCJ9zdkblOyx9PFgzRYO-161" value="11" style="shape=partialRectangle;html=1;whiteSpace=wrap;connectable=0;strokeColor=inherit;overflow=hidden;fillColor=none;top=0;left=0;bottom=0;right=0;pointerEvents=1;fontSize=16;" parent="HCJ9zdkblOyx9PFgzRYO-160" vertex="1">
          <mxGeometry width="60" height="40" as="geometry">
            <mxRectangle width="60" height="40" as="alternateBounds" />
          </mxGeometry>
        </mxCell>
        <mxCell id="HCJ9zdkblOyx9PFgzRYO-162" value="10" style="shape=partialRectangle;html=1;whiteSpace=wrap;connectable=0;strokeColor=inherit;overflow=hidden;fillColor=none;top=0;left=0;bottom=0;right=0;pointerEvents=1;fontSize=16;" parent="HCJ9zdkblOyx9PFgzRYO-160" vertex="1">
          <mxGeometry x="60" width="70" height="40" as="geometry">
            <mxRectangle width="70" height="40" as="alternateBounds" />
          </mxGeometry>
        </mxCell>
        <mxCell id="HCJ9zdkblOyx9PFgzRYO-163" value="20" style="shape=partialRectangle;html=1;whiteSpace=wrap;connectable=0;strokeColor=inherit;overflow=hidden;fillColor=none;top=0;left=0;bottom=0;right=0;pointerEvents=1;fontSize=16;" parent="HCJ9zdkblOyx9PFgzRYO-160" vertex="1">
          <mxGeometry x="130" width="50" height="40" as="geometry">
            <mxRectangle width="50" height="40" as="alternateBounds" />
          </mxGeometry>
        </mxCell>
        <mxCell id="HCJ9zdkblOyx9PFgzRYO-164" value="" style="shape=tableRow;horizontal=0;startSize=0;swimlaneHead=0;swimlaneBody=0;strokeColor=inherit;top=0;left=0;bottom=0;right=0;collapsible=0;dropTarget=0;fillColor=none;points=[[0,0.5],[1,0.5]];portConstraint=eastwest;fontSize=16;" parent="HCJ9zdkblOyx9PFgzRYO-159" vertex="1">
          <mxGeometry y="40" width="180" height="34" as="geometry" />
        </mxCell>
        <mxCell id="HCJ9zdkblOyx9PFgzRYO-165" value="&lt;font style=&quot;font-size: 14px;&quot;&gt;1.4 Risk Management Log&lt;/font&gt;" style="shape=partialRectangle;html=1;whiteSpace=wrap;connectable=0;strokeColor=inherit;overflow=hidden;fillColor=none;top=0;left=0;bottom=0;right=0;pointerEvents=1;fontSize=16;rowspan=1;colspan=3;" parent="HCJ9zdkblOyx9PFgzRYO-164" vertex="1">
          <mxGeometry width="180" height="34" as="geometry">
            <mxRectangle width="60" height="34" as="alternateBounds" />
          </mxGeometry>
        </mxCell>
        <mxCell id="HCJ9zdkblOyx9PFgzRYO-166" value="" style="shape=partialRectangle;html=1;whiteSpace=wrap;connectable=0;strokeColor=inherit;overflow=hidden;fillColor=none;top=0;left=0;bottom=0;right=0;pointerEvents=1;fontSize=16;" parent="HCJ9zdkblOyx9PFgzRYO-164" vertex="1" visible="0">
          <mxGeometry x="60" width="70" height="34" as="geometry">
            <mxRectangle width="70" height="34" as="alternateBounds" />
          </mxGeometry>
        </mxCell>
        <mxCell id="HCJ9zdkblOyx9PFgzRYO-167" value="" style="shape=partialRectangle;html=1;whiteSpace=wrap;connectable=0;strokeColor=inherit;overflow=hidden;fillColor=none;top=0;left=0;bottom=0;right=0;pointerEvents=1;fontSize=16;" parent="HCJ9zdkblOyx9PFgzRYO-164" vertex="1" visible="0">
          <mxGeometry x="130" width="50" height="34" as="geometry">
            <mxRectangle width="50" height="34" as="alternateBounds" />
          </mxGeometry>
        </mxCell>
        <mxCell id="HCJ9zdkblOyx9PFgzRYO-168" value="" style="shape=tableRow;horizontal=0;startSize=0;swimlaneHead=0;swimlaneBody=0;strokeColor=inherit;top=0;left=0;bottom=0;right=0;collapsible=0;dropTarget=0;fillColor=none;points=[[0,0.5],[1,0.5]];portConstraint=eastwest;fontSize=16;" parent="HCJ9zdkblOyx9PFgzRYO-159" vertex="1">
          <mxGeometry y="74" width="180" height="33" as="geometry" />
        </mxCell>
        <mxCell id="HCJ9zdkblOyx9PFgzRYO-169" value="15" style="shape=partialRectangle;html=1;whiteSpace=wrap;connectable=0;strokeColor=inherit;overflow=hidden;fillColor=none;top=0;left=0;bottom=0;right=0;pointerEvents=1;fontSize=16;" parent="HCJ9zdkblOyx9PFgzRYO-168" vertex="1">
          <mxGeometry width="60" height="33" as="geometry">
            <mxRectangle width="60" height="33" as="alternateBounds" />
          </mxGeometry>
        </mxCell>
        <mxCell id="HCJ9zdkblOyx9PFgzRYO-170" value="4" style="shape=partialRectangle;html=1;whiteSpace=wrap;connectable=0;strokeColor=inherit;overflow=hidden;fillColor=none;top=0;left=0;bottom=0;right=0;pointerEvents=1;fontSize=16;" parent="HCJ9zdkblOyx9PFgzRYO-168" vertex="1">
          <mxGeometry x="60" width="70" height="33" as="geometry">
            <mxRectangle width="70" height="33" as="alternateBounds" />
          </mxGeometry>
        </mxCell>
        <mxCell id="HCJ9zdkblOyx9PFgzRYO-171" value="28" style="shape=partialRectangle;html=1;whiteSpace=wrap;connectable=0;strokeColor=inherit;overflow=hidden;fillColor=none;top=0;left=0;bottom=0;right=0;pointerEvents=1;fontSize=16;" parent="HCJ9zdkblOyx9PFgzRYO-168" vertex="1">
          <mxGeometry x="130" width="50" height="33" as="geometry">
            <mxRectangle width="50" height="33" as="alternateBounds" />
          </mxGeometry>
        </mxCell>
        <mxCell id="HCJ9zdkblOyx9PFgzRYO-502" style="edgeStyle=orthogonalEdgeStyle;rounded=0;orthogonalLoop=1;jettySize=auto;html=1;exitX=1;exitY=0.5;exitDx=0;exitDy=0;entryX=0;entryY=0.5;entryDx=0;entryDy=0;" parent="1" source="HCJ9zdkblOyx9PFgzRYO-27" target="HCJ9zdkblOyx9PFgzRYO-40" edge="1">
          <mxGeometry relative="1" as="geometry" />
        </mxCell>
        <mxCell id="HCJ9zdkblOyx9PFgzRYO-507" value="" style="edgeStyle=elbowEdgeStyle;elbow=horizontal;endArrow=classic;html=1;curved=0;rounded=0;endSize=8;startSize=8;entryX=0;entryY=0.5;entryDx=0;entryDy=0;strokeColor=#FF3333;" parent="1" target="HCJ9zdkblOyx9PFgzRYO-111" edge="1">
          <mxGeometry width="50" height="50" relative="1" as="geometry">
            <mxPoint x="230" as="sourcePoint" />
            <mxPoint x="290" y="160" as="targetPoint" />
          </mxGeometry>
        </mxCell>
        <mxCell id="HCJ9zdkblOyx9PFgzRYO-508" style="edgeStyle=orthogonalEdgeStyle;rounded=0;orthogonalLoop=1;jettySize=auto;html=1;exitX=1;exitY=0.5;exitDx=0;exitDy=0;entryX=0;entryY=0.5;entryDx=0;entryDy=0;" parent="1" source="HCJ9zdkblOyx9PFgzRYO-27" target="HCJ9zdkblOyx9PFgzRYO-66" edge="1">
          <mxGeometry relative="1" as="geometry" />
        </mxCell>
        <mxCell id="HCJ9zdkblOyx9PFgzRYO-509" style="edgeStyle=orthogonalEdgeStyle;rounded=0;orthogonalLoop=1;jettySize=auto;html=1;exitX=1;exitY=0.5;exitDx=0;exitDy=0;entryX=0;entryY=0.5;entryDx=0;entryDy=0;" parent="1" source="HCJ9zdkblOyx9PFgzRYO-40" target="HCJ9zdkblOyx9PFgzRYO-124" edge="1">
          <mxGeometry relative="1" as="geometry">
            <Array as="points">
              <mxPoint x="470" y="-150" />
              <mxPoint x="470" y="-80" />
            </Array>
          </mxGeometry>
        </mxCell>
        <mxCell id="HCJ9zdkblOyx9PFgzRYO-512" style="edgeStyle=orthogonalEdgeStyle;rounded=0;orthogonalLoop=1;jettySize=auto;html=1;exitX=1;exitY=0.5;exitDx=0;exitDy=0;entryX=0;entryY=0.5;entryDx=0;entryDy=0;" parent="1" source="HCJ9zdkblOyx9PFgzRYO-40" target="HCJ9zdkblOyx9PFgzRYO-150" edge="1">
          <mxGeometry relative="1" as="geometry">
            <Array as="points">
              <mxPoint x="470" y="-150" />
              <mxPoint x="470" y="-200" />
            </Array>
          </mxGeometry>
        </mxCell>
        <mxCell id="HCJ9zdkblOyx9PFgzRYO-513" style="edgeStyle=orthogonalEdgeStyle;rounded=0;orthogonalLoop=1;jettySize=auto;html=1;exitX=1;exitY=0.5;exitDx=0;exitDy=0;entryX=0;entryY=0.5;entryDx=0;entryDy=0;" parent="1" source="HCJ9zdkblOyx9PFgzRYO-40" target="HCJ9zdkblOyx9PFgzRYO-164" edge="1">
          <mxGeometry relative="1" as="geometry">
            <Array as="points">
              <mxPoint x="470" y="-150" />
              <mxPoint x="470" y="-180" />
              <mxPoint x="680" y="-180" />
              <mxPoint x="680" y="-53" />
            </Array>
          </mxGeometry>
        </mxCell>
        <mxCell id="HCJ9zdkblOyx9PFgzRYO-514" style="edgeStyle=orthogonalEdgeStyle;rounded=0;orthogonalLoop=1;jettySize=auto;html=1;exitX=1;exitY=0.5;exitDx=0;exitDy=0;strokeColor=#FF3333;" parent="1" source="HCJ9zdkblOyx9PFgzRYO-111" target="HCJ9zdkblOyx9PFgzRYO-137" edge="1">
          <mxGeometry relative="1" as="geometry" />
        </mxCell>
        <mxCell id="HCJ9zdkblOyx9PFgzRYO-517" style="edgeStyle=orthogonalEdgeStyle;rounded=0;orthogonalLoop=1;jettySize=auto;html=1;exitX=1;exitY=0.5;exitDx=0;exitDy=0;entryX=0;entryY=0.5;entryDx=0;entryDy=0;strokeColor=#FF3333;" parent="1" source="HCJ9zdkblOyx9PFgzRYO-177" target="HCJ9zdkblOyx9PFgzRYO-285" edge="1">
          <mxGeometry relative="1" as="geometry" />
        </mxCell>
        <mxCell id="HCJ9zdkblOyx9PFgzRYO-518" style="edgeStyle=orthogonalEdgeStyle;rounded=0;orthogonalLoop=1;jettySize=auto;html=1;exitX=0.5;exitY=1;exitDx=0;exitDy=0;entryX=0.497;entryY=0;entryDx=0;entryDy=0;entryPerimeter=0;strokeColor=#FF3333;" parent="1" source="HCJ9zdkblOyx9PFgzRYO-280" target="HCJ9zdkblOyx9PFgzRYO-186" edge="1">
          <mxGeometry relative="1" as="geometry" />
        </mxCell>
        <mxCell id="HCJ9zdkblOyx9PFgzRYO-519" style="edgeStyle=orthogonalEdgeStyle;rounded=0;orthogonalLoop=1;jettySize=auto;html=1;exitX=1;exitY=0.5;exitDx=0;exitDy=0;entryX=0;entryY=0.5;entryDx=0;entryDy=0;strokeColor=#FF3333;" parent="1" source="HCJ9zdkblOyx9PFgzRYO-190" target="HCJ9zdkblOyx9PFgzRYO-246" edge="1">
          <mxGeometry relative="1" as="geometry" />
        </mxCell>
        <mxCell id="HCJ9zdkblOyx9PFgzRYO-520" style="edgeStyle=orthogonalEdgeStyle;rounded=0;orthogonalLoop=1;jettySize=auto;html=1;exitX=1;exitY=0.5;exitDx=0;exitDy=0;entryX=0;entryY=0.5;entryDx=0;entryDy=0;strokeColor=#FF3333;" parent="1" source="HCJ9zdkblOyx9PFgzRYO-190" target="HCJ9zdkblOyx9PFgzRYO-259" edge="1">
          <mxGeometry relative="1" as="geometry" />
        </mxCell>
        <mxCell id="HCJ9zdkblOyx9PFgzRYO-522" style="edgeStyle=orthogonalEdgeStyle;rounded=0;orthogonalLoop=1;jettySize=auto;html=1;exitX=1;exitY=0.5;exitDx=0;exitDy=0;strokeColor=#FF3333;" parent="1" source="HCJ9zdkblOyx9PFgzRYO-246" target="HCJ9zdkblOyx9PFgzRYO-376" edge="1">
          <mxGeometry relative="1" as="geometry" />
        </mxCell>
        <mxCell id="HCJ9zdkblOyx9PFgzRYO-523" style="edgeStyle=orthogonalEdgeStyle;rounded=0;orthogonalLoop=1;jettySize=auto;html=1;exitX=1;exitY=0.5;exitDx=0;exitDy=0;entryX=0;entryY=0.5;entryDx=0;entryDy=0;strokeColor=#FF3333;" parent="1" source="HCJ9zdkblOyx9PFgzRYO-259" target="HCJ9zdkblOyx9PFgzRYO-389" edge="1">
          <mxGeometry relative="1" as="geometry">
            <Array as="points">
              <mxPoint x="1471" y="-10" />
              <mxPoint x="1471" y="90" />
            </Array>
          </mxGeometry>
        </mxCell>
        <mxCell id="HCJ9zdkblOyx9PFgzRYO-524" style="edgeStyle=orthogonalEdgeStyle;rounded=0;orthogonalLoop=1;jettySize=auto;html=1;exitX=1;exitY=0.5;exitDx=0;exitDy=0;entryX=0;entryY=0.5;entryDx=0;entryDy=0;strokeColor=#FF3333;" parent="1" source="HCJ9zdkblOyx9PFgzRYO-272" target="HCJ9zdkblOyx9PFgzRYO-376" edge="1">
          <mxGeometry relative="1" as="geometry" />
        </mxCell>
        <mxCell id="HCJ9zdkblOyx9PFgzRYO-525" value="" style="shape=table;startSize=0;container=1;collapsible=0;childLayout=tableLayout;fontSize=16;verticalAlign=top;horizontal=0;" parent="1" vertex="1">
          <mxGeometry x="1850" y="60" width="180" height="100" as="geometry" />
        </mxCell>
        <mxCell id="HCJ9zdkblOyx9PFgzRYO-526" value="" style="shape=tableRow;horizontal=0;startSize=0;swimlaneHead=0;swimlaneBody=0;strokeColor=inherit;top=0;left=0;bottom=0;right=0;collapsible=0;dropTarget=0;fillColor=none;points=[[0,0.5],[1,0.5]];portConstraint=eastwest;fontSize=16;" parent="HCJ9zdkblOyx9PFgzRYO-525" vertex="1">
          <mxGeometry width="180" height="33" as="geometry" />
        </mxCell>
        <mxCell id="HCJ9zdkblOyx9PFgzRYO-527" value="71" style="shape=partialRectangle;html=1;whiteSpace=wrap;connectable=0;strokeColor=inherit;overflow=hidden;fillColor=none;top=0;left=0;bottom=0;right=0;pointerEvents=1;fontSize=16;" parent="HCJ9zdkblOyx9PFgzRYO-526" vertex="1">
          <mxGeometry width="60" height="33" as="geometry">
            <mxRectangle width="60" height="33" as="alternateBounds" />
          </mxGeometry>
        </mxCell>
        <mxCell id="HCJ9zdkblOyx9PFgzRYO-528" value="5" style="shape=partialRectangle;html=1;whiteSpace=wrap;connectable=0;strokeColor=inherit;overflow=hidden;fillColor=none;top=0;left=0;bottom=0;right=0;pointerEvents=1;fontSize=16;" parent="HCJ9zdkblOyx9PFgzRYO-526" vertex="1">
          <mxGeometry x="60" width="60" height="33" as="geometry">
            <mxRectangle width="60" height="33" as="alternateBounds" />
          </mxGeometry>
        </mxCell>
        <mxCell id="HCJ9zdkblOyx9PFgzRYO-529" value="75" style="shape=partialRectangle;html=1;whiteSpace=wrap;connectable=0;strokeColor=inherit;overflow=hidden;fillColor=none;top=0;left=0;bottom=0;right=0;pointerEvents=1;fontSize=16;" parent="HCJ9zdkblOyx9PFgzRYO-526" vertex="1">
          <mxGeometry x="120" width="60" height="33" as="geometry">
            <mxRectangle width="60" height="33" as="alternateBounds" />
          </mxGeometry>
        </mxCell>
        <mxCell id="HCJ9zdkblOyx9PFgzRYO-530" value="" style="shape=tableRow;horizontal=0;startSize=0;swimlaneHead=0;swimlaneBody=0;strokeColor=inherit;top=0;left=0;bottom=0;right=0;collapsible=0;dropTarget=0;fillColor=none;points=[[0,0.5],[1,0.5]];portConstraint=eastwest;fontSize=16;" parent="HCJ9zdkblOyx9PFgzRYO-525" vertex="1">
          <mxGeometry y="33" width="180" height="34" as="geometry" />
        </mxCell>
        <mxCell id="HCJ9zdkblOyx9PFgzRYO-531" value="4.6 Code-review Report" style="shape=partialRectangle;html=1;whiteSpace=wrap;connectable=0;strokeColor=inherit;overflow=hidden;fillColor=none;top=0;left=0;bottom=0;right=0;pointerEvents=1;fontSize=16;rowspan=1;colspan=3;" parent="HCJ9zdkblOyx9PFgzRYO-530" vertex="1">
          <mxGeometry width="180" height="34" as="geometry">
            <mxRectangle width="60" height="34" as="alternateBounds" />
          </mxGeometry>
        </mxCell>
        <mxCell id="HCJ9zdkblOyx9PFgzRYO-532" value="" style="shape=partialRectangle;html=1;whiteSpace=wrap;connectable=0;strokeColor=inherit;overflow=hidden;fillColor=none;top=0;left=0;bottom=0;right=0;pointerEvents=1;fontSize=16;" parent="HCJ9zdkblOyx9PFgzRYO-530" vertex="1" visible="0">
          <mxGeometry x="60" width="60" height="34" as="geometry">
            <mxRectangle width="60" height="34" as="alternateBounds" />
          </mxGeometry>
        </mxCell>
        <mxCell id="HCJ9zdkblOyx9PFgzRYO-533" value="" style="shape=partialRectangle;html=1;whiteSpace=wrap;connectable=0;strokeColor=inherit;overflow=hidden;fillColor=none;top=0;left=0;bottom=0;right=0;pointerEvents=1;fontSize=16;" parent="HCJ9zdkblOyx9PFgzRYO-530" vertex="1" visible="0">
          <mxGeometry x="120" width="60" height="34" as="geometry">
            <mxRectangle width="60" height="34" as="alternateBounds" />
          </mxGeometry>
        </mxCell>
        <mxCell id="HCJ9zdkblOyx9PFgzRYO-534" value="" style="shape=tableRow;horizontal=0;startSize=0;swimlaneHead=0;swimlaneBody=0;strokeColor=inherit;top=0;left=0;bottom=0;right=0;collapsible=0;dropTarget=0;fillColor=none;points=[[0,0.5],[1,0.5]];portConstraint=eastwest;fontSize=16;" parent="HCJ9zdkblOyx9PFgzRYO-525" vertex="1">
          <mxGeometry y="67" width="180" height="33" as="geometry" />
        </mxCell>
        <mxCell id="HCJ9zdkblOyx9PFgzRYO-535" value="101" style="shape=partialRectangle;html=1;whiteSpace=wrap;connectable=0;strokeColor=inherit;overflow=hidden;fillColor=none;top=0;left=0;bottom=0;right=0;pointerEvents=1;fontSize=16;" parent="HCJ9zdkblOyx9PFgzRYO-534" vertex="1">
          <mxGeometry width="60" height="33" as="geometry">
            <mxRectangle width="60" height="33" as="alternateBounds" />
          </mxGeometry>
        </mxCell>
        <mxCell id="HCJ9zdkblOyx9PFgzRYO-536" value="7" style="shape=partialRectangle;html=1;whiteSpace=wrap;connectable=0;strokeColor=inherit;overflow=hidden;fillColor=none;top=0;left=0;bottom=0;right=0;pointerEvents=1;fontSize=16;" parent="HCJ9zdkblOyx9PFgzRYO-534" vertex="1">
          <mxGeometry x="60" width="60" height="33" as="geometry">
            <mxRectangle width="60" height="33" as="alternateBounds" />
          </mxGeometry>
        </mxCell>
        <mxCell id="HCJ9zdkblOyx9PFgzRYO-537" value="112" style="shape=partialRectangle;html=1;whiteSpace=wrap;connectable=0;strokeColor=inherit;overflow=hidden;fillColor=none;top=0;left=0;bottom=0;right=0;pointerEvents=1;fontSize=16;" parent="HCJ9zdkblOyx9PFgzRYO-534" vertex="1">
          <mxGeometry x="120" width="60" height="33" as="geometry">
            <mxRectangle width="60" height="33" as="alternateBounds" />
          </mxGeometry>
        </mxCell>
        <mxCell id="HCJ9zdkblOyx9PFgzRYO-539" value="" style="shape=table;startSize=0;container=1;collapsible=0;childLayout=tableLayout;fontSize=16;verticalAlign=top;horizontal=0;" parent="1" vertex="1">
          <mxGeometry x="1850" y="-100" width="180" height="100" as="geometry" />
        </mxCell>
        <mxCell id="HCJ9zdkblOyx9PFgzRYO-540" value="" style="shape=tableRow;horizontal=0;startSize=0;swimlaneHead=0;swimlaneBody=0;strokeColor=inherit;top=0;left=0;bottom=0;right=0;collapsible=0;dropTarget=0;fillColor=none;points=[[0,0.5],[1,0.5]];portConstraint=eastwest;fontSize=16;" parent="HCJ9zdkblOyx9PFgzRYO-539" vertex="1">
          <mxGeometry width="180" height="33" as="geometry" />
        </mxCell>
        <mxCell id="HCJ9zdkblOyx9PFgzRYO-541" value="66" style="shape=partialRectangle;html=1;whiteSpace=wrap;connectable=0;strokeColor=inherit;overflow=hidden;fillColor=none;top=0;left=0;bottom=0;right=0;pointerEvents=1;fontSize=16;" parent="HCJ9zdkblOyx9PFgzRYO-540" vertex="1">
          <mxGeometry width="60" height="33" as="geometry">
            <mxRectangle width="60" height="33" as="alternateBounds" />
          </mxGeometry>
        </mxCell>
        <mxCell id="HCJ9zdkblOyx9PFgzRYO-542" value="5" style="shape=partialRectangle;html=1;whiteSpace=wrap;connectable=0;strokeColor=inherit;overflow=hidden;fillColor=none;top=0;left=0;bottom=0;right=0;pointerEvents=1;fontSize=16;" parent="HCJ9zdkblOyx9PFgzRYO-540" vertex="1">
          <mxGeometry x="60" width="60" height="33" as="geometry">
            <mxRectangle width="60" height="33" as="alternateBounds" />
          </mxGeometry>
        </mxCell>
        <mxCell id="HCJ9zdkblOyx9PFgzRYO-543" value="70" style="shape=partialRectangle;html=1;whiteSpace=wrap;connectable=0;strokeColor=inherit;overflow=hidden;fillColor=none;top=0;left=0;bottom=0;right=0;pointerEvents=1;fontSize=16;" parent="HCJ9zdkblOyx9PFgzRYO-540" vertex="1">
          <mxGeometry x="120" width="60" height="33" as="geometry">
            <mxRectangle width="60" height="33" as="alternateBounds" />
          </mxGeometry>
        </mxCell>
        <mxCell id="HCJ9zdkblOyx9PFgzRYO-544" value="" style="shape=tableRow;horizontal=0;startSize=0;swimlaneHead=0;swimlaneBody=0;strokeColor=inherit;top=0;left=0;bottom=0;right=0;collapsible=0;dropTarget=0;fillColor=none;points=[[0,0.5],[1,0.5]];portConstraint=eastwest;fontSize=16;" parent="HCJ9zdkblOyx9PFgzRYO-539" vertex="1">
          <mxGeometry y="33" width="180" height="34" as="geometry" />
        </mxCell>
        <mxCell id="HCJ9zdkblOyx9PFgzRYO-545" value="&lt;font style=&quot;font-size: 13px;&quot;&gt;4.3 Quality Assurance Report&lt;/font&gt;" style="shape=partialRectangle;html=1;whiteSpace=wrap;connectable=0;strokeColor=inherit;overflow=hidden;fillColor=none;top=0;left=0;bottom=0;right=0;pointerEvents=1;fontSize=16;rowspan=1;colspan=3;" parent="HCJ9zdkblOyx9PFgzRYO-544" vertex="1">
          <mxGeometry width="180" height="34" as="geometry">
            <mxRectangle width="60" height="34" as="alternateBounds" />
          </mxGeometry>
        </mxCell>
        <mxCell id="HCJ9zdkblOyx9PFgzRYO-546" value="" style="shape=partialRectangle;html=1;whiteSpace=wrap;connectable=0;strokeColor=inherit;overflow=hidden;fillColor=none;top=0;left=0;bottom=0;right=0;pointerEvents=1;fontSize=16;" parent="HCJ9zdkblOyx9PFgzRYO-544" vertex="1" visible="0">
          <mxGeometry x="60" width="60" height="34" as="geometry">
            <mxRectangle width="60" height="34" as="alternateBounds" />
          </mxGeometry>
        </mxCell>
        <mxCell id="HCJ9zdkblOyx9PFgzRYO-547" value="" style="shape=partialRectangle;html=1;whiteSpace=wrap;connectable=0;strokeColor=inherit;overflow=hidden;fillColor=none;top=0;left=0;bottom=0;right=0;pointerEvents=1;fontSize=16;" parent="HCJ9zdkblOyx9PFgzRYO-544" vertex="1" visible="0">
          <mxGeometry x="120" width="60" height="34" as="geometry">
            <mxRectangle width="60" height="34" as="alternateBounds" />
          </mxGeometry>
        </mxCell>
        <mxCell id="HCJ9zdkblOyx9PFgzRYO-548" value="" style="shape=tableRow;horizontal=0;startSize=0;swimlaneHead=0;swimlaneBody=0;strokeColor=inherit;top=0;left=0;bottom=0;right=0;collapsible=0;dropTarget=0;fillColor=none;points=[[0,0.5],[1,0.5]];portConstraint=eastwest;fontSize=16;" parent="HCJ9zdkblOyx9PFgzRYO-539" vertex="1">
          <mxGeometry y="67" width="180" height="33" as="geometry" />
        </mxCell>
        <mxCell id="HCJ9zdkblOyx9PFgzRYO-549" value="94" style="shape=partialRectangle;html=1;whiteSpace=wrap;connectable=0;strokeColor=inherit;overflow=hidden;fillColor=none;top=0;left=0;bottom=0;right=0;pointerEvents=1;fontSize=16;" parent="HCJ9zdkblOyx9PFgzRYO-548" vertex="1">
          <mxGeometry width="60" height="33" as="geometry">
            <mxRectangle width="60" height="33" as="alternateBounds" />
          </mxGeometry>
        </mxCell>
        <mxCell id="HCJ9zdkblOyx9PFgzRYO-550" value="2" style="shape=partialRectangle;html=1;whiteSpace=wrap;connectable=0;strokeColor=inherit;overflow=hidden;fillColor=none;top=0;left=0;bottom=0;right=0;pointerEvents=1;fontSize=16;" parent="HCJ9zdkblOyx9PFgzRYO-548" vertex="1">
          <mxGeometry x="60" width="60" height="33" as="geometry">
            <mxRectangle width="60" height="33" as="alternateBounds" />
          </mxGeometry>
        </mxCell>
        <mxCell id="HCJ9zdkblOyx9PFgzRYO-551" value="100" style="shape=partialRectangle;html=1;whiteSpace=wrap;connectable=0;strokeColor=inherit;overflow=hidden;fillColor=none;top=0;left=0;bottom=0;right=0;pointerEvents=1;fontSize=16;" parent="HCJ9zdkblOyx9PFgzRYO-548" vertex="1">
          <mxGeometry x="120" width="60" height="33" as="geometry">
            <mxRectangle width="60" height="33" as="alternateBounds" />
          </mxGeometry>
        </mxCell>
        <mxCell id="HCJ9zdkblOyx9PFgzRYO-552" style="edgeStyle=orthogonalEdgeStyle;rounded=0;orthogonalLoop=1;jettySize=auto;html=1;exitX=1;exitY=0.5;exitDx=0;exitDy=0;entryX=0;entryY=0.5;entryDx=0;entryDy=0;strokeColor=#FF3333;" parent="1" source="HCJ9zdkblOyx9PFgzRYO-376" target="HCJ9zdkblOyx9PFgzRYO-544" edge="1">
          <mxGeometry relative="1" as="geometry" />
        </mxCell>
        <mxCell id="HCJ9zdkblOyx9PFgzRYO-436" value="" style="shape=table;startSize=0;container=1;collapsible=0;childLayout=tableLayout;fontSize=16;verticalAlign=top;horizontal=0;" parent="1" vertex="1">
          <mxGeometry x="2120" y="130" width="180" height="100" as="geometry" />
        </mxCell>
        <mxCell id="HCJ9zdkblOyx9PFgzRYO-437" value="" style="shape=tableRow;horizontal=0;startSize=0;swimlaneHead=0;swimlaneBody=0;strokeColor=inherit;top=0;left=0;bottom=0;right=0;collapsible=0;dropTarget=0;fillColor=none;points=[[0,0.5],[1,0.5]];portConstraint=eastwest;fontSize=16;" parent="HCJ9zdkblOyx9PFgzRYO-436" vertex="1">
          <mxGeometry width="180" height="33" as="geometry" />
        </mxCell>
        <mxCell id="HCJ9zdkblOyx9PFgzRYO-438" value="86" style="shape=partialRectangle;html=1;whiteSpace=wrap;connectable=0;strokeColor=inherit;overflow=hidden;fillColor=none;top=0;left=0;bottom=0;right=0;pointerEvents=1;fontSize=16;" parent="HCJ9zdkblOyx9PFgzRYO-437" vertex="1">
          <mxGeometry width="60" height="33" as="geometry">
            <mxRectangle width="60" height="33" as="alternateBounds" />
          </mxGeometry>
        </mxCell>
        <mxCell id="HCJ9zdkblOyx9PFgzRYO-439" value="10" style="shape=partialRectangle;html=1;whiteSpace=wrap;connectable=0;strokeColor=inherit;overflow=hidden;fillColor=none;top=0;left=0;bottom=0;right=0;pointerEvents=1;fontSize=16;" parent="HCJ9zdkblOyx9PFgzRYO-437" vertex="1">
          <mxGeometry x="60" width="60" height="33" as="geometry">
            <mxRectangle width="60" height="33" as="alternateBounds" />
          </mxGeometry>
        </mxCell>
        <mxCell id="HCJ9zdkblOyx9PFgzRYO-440" value="95" style="shape=partialRectangle;html=1;whiteSpace=wrap;connectable=0;strokeColor=inherit;overflow=hidden;fillColor=none;top=0;left=0;bottom=0;right=0;pointerEvents=1;fontSize=16;" parent="HCJ9zdkblOyx9PFgzRYO-437" vertex="1">
          <mxGeometry x="120" width="60" height="33" as="geometry">
            <mxRectangle width="60" height="33" as="alternateBounds" />
          </mxGeometry>
        </mxCell>
        <mxCell id="HCJ9zdkblOyx9PFgzRYO-441" value="" style="shape=tableRow;horizontal=0;startSize=0;swimlaneHead=0;swimlaneBody=0;strokeColor=inherit;top=0;left=0;bottom=0;right=0;collapsible=0;dropTarget=0;fillColor=none;points=[[0,0.5],[1,0.5]];portConstraint=eastwest;fontSize=16;" parent="HCJ9zdkblOyx9PFgzRYO-436" vertex="1">
          <mxGeometry y="33" width="180" height="34" as="geometry" />
        </mxCell>
        <mxCell id="HCJ9zdkblOyx9PFgzRYO-442" value="5.5 Code Quaity Report" style="shape=partialRectangle;html=1;whiteSpace=wrap;connectable=0;strokeColor=inherit;overflow=hidden;fillColor=none;top=0;left=0;bottom=0;right=0;pointerEvents=1;fontSize=16;rowspan=1;colspan=3;" parent="HCJ9zdkblOyx9PFgzRYO-441" vertex="1">
          <mxGeometry width="180" height="34" as="geometry">
            <mxRectangle width="60" height="34" as="alternateBounds" />
          </mxGeometry>
        </mxCell>
        <mxCell id="HCJ9zdkblOyx9PFgzRYO-443" value="" style="shape=partialRectangle;html=1;whiteSpace=wrap;connectable=0;strokeColor=inherit;overflow=hidden;fillColor=none;top=0;left=0;bottom=0;right=0;pointerEvents=1;fontSize=16;" parent="HCJ9zdkblOyx9PFgzRYO-441" vertex="1" visible="0">
          <mxGeometry x="60" width="60" height="34" as="geometry">
            <mxRectangle width="60" height="34" as="alternateBounds" />
          </mxGeometry>
        </mxCell>
        <mxCell id="HCJ9zdkblOyx9PFgzRYO-444" value="" style="shape=partialRectangle;html=1;whiteSpace=wrap;connectable=0;strokeColor=inherit;overflow=hidden;fillColor=none;top=0;left=0;bottom=0;right=0;pointerEvents=1;fontSize=16;" parent="HCJ9zdkblOyx9PFgzRYO-441" vertex="1" visible="0">
          <mxGeometry x="120" width="60" height="34" as="geometry">
            <mxRectangle width="60" height="34" as="alternateBounds" />
          </mxGeometry>
        </mxCell>
        <mxCell id="HCJ9zdkblOyx9PFgzRYO-445" value="" style="shape=tableRow;horizontal=0;startSize=0;swimlaneHead=0;swimlaneBody=0;strokeColor=inherit;top=0;left=0;bottom=0;right=0;collapsible=0;dropTarget=0;fillColor=none;points=[[0,0.5],[1,0.5]];portConstraint=eastwest;fontSize=16;" parent="HCJ9zdkblOyx9PFgzRYO-436" vertex="1">
          <mxGeometry y="67" width="180" height="33" as="geometry" />
        </mxCell>
        <mxCell id="HCJ9zdkblOyx9PFgzRYO-446" value="132" style="shape=partialRectangle;html=1;whiteSpace=wrap;connectable=0;strokeColor=inherit;overflow=hidden;fillColor=none;top=0;left=0;bottom=0;right=0;pointerEvents=1;fontSize=16;" parent="HCJ9zdkblOyx9PFgzRYO-445" vertex="1">
          <mxGeometry width="60" height="33" as="geometry">
            <mxRectangle width="60" height="33" as="alternateBounds" />
          </mxGeometry>
        </mxCell>
        <mxCell id="HCJ9zdkblOyx9PFgzRYO-447" value="4" style="shape=partialRectangle;html=1;whiteSpace=wrap;connectable=0;strokeColor=inherit;overflow=hidden;fillColor=none;top=0;left=0;bottom=0;right=0;pointerEvents=1;fontSize=16;" parent="HCJ9zdkblOyx9PFgzRYO-445" vertex="1">
          <mxGeometry x="60" width="60" height="33" as="geometry">
            <mxRectangle width="60" height="33" as="alternateBounds" />
          </mxGeometry>
        </mxCell>
        <mxCell id="HCJ9zdkblOyx9PFgzRYO-448" value="145" style="shape=partialRectangle;html=1;whiteSpace=wrap;connectable=0;strokeColor=inherit;overflow=hidden;fillColor=none;top=0;left=0;bottom=0;right=0;pointerEvents=1;fontSize=16;" parent="HCJ9zdkblOyx9PFgzRYO-445" vertex="1">
          <mxGeometry x="120" width="60" height="33" as="geometry">
            <mxRectangle width="60" height="33" as="alternateBounds" />
          </mxGeometry>
        </mxCell>
        <mxCell id="HCJ9zdkblOyx9PFgzRYO-557" style="edgeStyle=orthogonalEdgeStyle;rounded=0;orthogonalLoop=1;jettySize=auto;html=1;exitX=1;exitY=0.5;exitDx=0;exitDy=0;entryX=0;entryY=0.5;entryDx=0;entryDy=0;strokeColor=#FF3333;" parent="1" source="HCJ9zdkblOyx9PFgzRYO-530" target="HCJ9zdkblOyx9PFgzRYO-337" edge="1">
          <mxGeometry relative="1" as="geometry" />
        </mxCell>
        <mxCell id="HCJ9zdkblOyx9PFgzRYO-423" value="" style="shape=table;startSize=0;container=1;collapsible=0;childLayout=tableLayout;fontSize=16;verticalAlign=top;horizontal=0;" parent="1" vertex="1">
          <mxGeometry x="2120" y="-20" width="180" height="100" as="geometry" />
        </mxCell>
        <mxCell id="HCJ9zdkblOyx9PFgzRYO-424" value="" style="shape=tableRow;horizontal=0;startSize=0;swimlaneHead=0;swimlaneBody=0;strokeColor=inherit;top=0;left=0;bottom=0;right=0;collapsible=0;dropTarget=0;fillColor=none;points=[[0,0.5],[1,0.5]];portConstraint=eastwest;fontSize=16;" parent="HCJ9zdkblOyx9PFgzRYO-423" vertex="1">
          <mxGeometry width="180" height="33" as="geometry" />
        </mxCell>
        <mxCell id="HCJ9zdkblOyx9PFgzRYO-425" value="81" style="shape=partialRectangle;html=1;whiteSpace=wrap;connectable=0;strokeColor=inherit;overflow=hidden;fillColor=none;top=0;left=0;bottom=0;right=0;pointerEvents=1;fontSize=16;" parent="HCJ9zdkblOyx9PFgzRYO-424" vertex="1">
          <mxGeometry width="60" height="33" as="geometry">
            <mxRectangle width="60" height="33" as="alternateBounds" />
          </mxGeometry>
        </mxCell>
        <mxCell id="HCJ9zdkblOyx9PFgzRYO-426" value="5" style="shape=partialRectangle;html=1;whiteSpace=wrap;connectable=0;strokeColor=inherit;overflow=hidden;fillColor=none;top=0;left=0;bottom=0;right=0;pointerEvents=1;fontSize=16;" parent="HCJ9zdkblOyx9PFgzRYO-424" vertex="1">
          <mxGeometry x="60" width="60" height="33" as="geometry">
            <mxRectangle width="60" height="33" as="alternateBounds" />
          </mxGeometry>
        </mxCell>
        <mxCell id="HCJ9zdkblOyx9PFgzRYO-427" value="85" style="shape=partialRectangle;html=1;whiteSpace=wrap;connectable=0;strokeColor=inherit;overflow=hidden;fillColor=none;top=0;left=0;bottom=0;right=0;pointerEvents=1;fontSize=16;" parent="HCJ9zdkblOyx9PFgzRYO-424" vertex="1">
          <mxGeometry x="120" width="60" height="33" as="geometry">
            <mxRectangle width="60" height="33" as="alternateBounds" />
          </mxGeometry>
        </mxCell>
        <mxCell id="HCJ9zdkblOyx9PFgzRYO-428" value="" style="shape=tableRow;horizontal=0;startSize=0;swimlaneHead=0;swimlaneBody=0;strokeColor=inherit;top=0;left=0;bottom=0;right=0;collapsible=0;dropTarget=0;fillColor=none;points=[[0,0.5],[1,0.5]];portConstraint=eastwest;fontSize=16;" parent="HCJ9zdkblOyx9PFgzRYO-423" vertex="1">
          <mxGeometry y="33" width="180" height="34" as="geometry" />
        </mxCell>
        <mxCell id="HCJ9zdkblOyx9PFgzRYO-429" value="&lt;font style=&quot;font-size: 10px;&quot;&gt;5.4 System Redundancy Testing Report&lt;/font&gt;" style="shape=partialRectangle;html=1;whiteSpace=wrap;connectable=0;strokeColor=inherit;overflow=hidden;fillColor=none;top=0;left=0;bottom=0;right=0;pointerEvents=1;fontSize=16;rowspan=1;colspan=3;" parent="HCJ9zdkblOyx9PFgzRYO-428" vertex="1">
          <mxGeometry width="180" height="34" as="geometry">
            <mxRectangle width="60" height="34" as="alternateBounds" />
          </mxGeometry>
        </mxCell>
        <mxCell id="HCJ9zdkblOyx9PFgzRYO-430" value="" style="shape=partialRectangle;html=1;whiteSpace=wrap;connectable=0;strokeColor=inherit;overflow=hidden;fillColor=none;top=0;left=0;bottom=0;right=0;pointerEvents=1;fontSize=16;" parent="HCJ9zdkblOyx9PFgzRYO-428" vertex="1" visible="0">
          <mxGeometry x="60" width="60" height="34" as="geometry">
            <mxRectangle width="60" height="34" as="alternateBounds" />
          </mxGeometry>
        </mxCell>
        <mxCell id="HCJ9zdkblOyx9PFgzRYO-431" value="" style="shape=partialRectangle;html=1;whiteSpace=wrap;connectable=0;strokeColor=inherit;overflow=hidden;fillColor=none;top=0;left=0;bottom=0;right=0;pointerEvents=1;fontSize=16;" parent="HCJ9zdkblOyx9PFgzRYO-428" vertex="1" visible="0">
          <mxGeometry x="120" width="60" height="34" as="geometry">
            <mxRectangle width="60" height="34" as="alternateBounds" />
          </mxGeometry>
        </mxCell>
        <mxCell id="HCJ9zdkblOyx9PFgzRYO-432" value="" style="shape=tableRow;horizontal=0;startSize=0;swimlaneHead=0;swimlaneBody=0;strokeColor=inherit;top=0;left=0;bottom=0;right=0;collapsible=0;dropTarget=0;fillColor=none;points=[[0,0.5],[1,0.5]];portConstraint=eastwest;fontSize=16;" parent="HCJ9zdkblOyx9PFgzRYO-423" vertex="1">
          <mxGeometry y="67" width="180" height="33" as="geometry" />
        </mxCell>
        <mxCell id="HCJ9zdkblOyx9PFgzRYO-433" value="125" style="shape=partialRectangle;html=1;whiteSpace=wrap;connectable=0;strokeColor=inherit;overflow=hidden;fillColor=none;top=0;left=0;bottom=0;right=0;pointerEvents=1;fontSize=16;" parent="HCJ9zdkblOyx9PFgzRYO-432" vertex="1">
          <mxGeometry width="60" height="33" as="geometry">
            <mxRectangle width="60" height="33" as="alternateBounds" />
          </mxGeometry>
        </mxCell>
        <mxCell id="HCJ9zdkblOyx9PFgzRYO-434" value="2" style="shape=partialRectangle;html=1;whiteSpace=wrap;connectable=0;strokeColor=inherit;overflow=hidden;fillColor=none;top=0;left=0;bottom=0;right=0;pointerEvents=1;fontSize=16;" parent="HCJ9zdkblOyx9PFgzRYO-432" vertex="1">
          <mxGeometry x="60" width="60" height="33" as="geometry">
            <mxRectangle width="60" height="33" as="alternateBounds" />
          </mxGeometry>
        </mxCell>
        <mxCell id="HCJ9zdkblOyx9PFgzRYO-435" value="131" style="shape=partialRectangle;html=1;whiteSpace=wrap;connectable=0;strokeColor=inherit;overflow=hidden;fillColor=none;top=0;left=0;bottom=0;right=0;pointerEvents=1;fontSize=16;" parent="HCJ9zdkblOyx9PFgzRYO-432" vertex="1">
          <mxGeometry x="120" width="60" height="33" as="geometry">
            <mxRectangle width="60" height="33" as="alternateBounds" />
          </mxGeometry>
        </mxCell>
        <mxCell id="HCJ9zdkblOyx9PFgzRYO-558" style="edgeStyle=orthogonalEdgeStyle;rounded=0;orthogonalLoop=1;jettySize=auto;html=1;exitX=0.501;exitY=0.997;exitDx=0;exitDy=0;entryX=0.496;entryY=0.01;entryDx=0;entryDy=0;entryPerimeter=0;strokeColor=#FF3333;exitPerimeter=0;" parent="1" source="HCJ9zdkblOyx9PFgzRYO-341" target="HCJ9zdkblOyx9PFgzRYO-424" edge="1">
          <mxGeometry relative="1" as="geometry" />
        </mxCell>
        <mxCell id="HCJ9zdkblOyx9PFgzRYO-462" value="" style="shape=table;startSize=0;container=1;collapsible=0;childLayout=tableLayout;fontSize=16;verticalAlign=top;horizontal=0;" parent="1" vertex="1">
          <mxGeometry x="2390" y="-170" width="180" height="100" as="geometry" />
        </mxCell>
        <mxCell id="HCJ9zdkblOyx9PFgzRYO-463" value="" style="shape=tableRow;horizontal=0;startSize=0;swimlaneHead=0;swimlaneBody=0;strokeColor=inherit;top=0;left=0;bottom=0;right=0;collapsible=0;dropTarget=0;fillColor=none;points=[[0,0.5],[1,0.5]];portConstraint=eastwest;fontSize=16;" parent="HCJ9zdkblOyx9PFgzRYO-462" vertex="1">
          <mxGeometry width="180" height="33" as="geometry" />
        </mxCell>
        <mxCell id="HCJ9zdkblOyx9PFgzRYO-464" value="96" style="shape=partialRectangle;html=1;whiteSpace=wrap;connectable=0;strokeColor=inherit;overflow=hidden;fillColor=none;top=0;left=0;bottom=0;right=0;pointerEvents=1;fontSize=16;" parent="HCJ9zdkblOyx9PFgzRYO-463" vertex="1">
          <mxGeometry width="60" height="33" as="geometry">
            <mxRectangle width="60" height="33" as="alternateBounds" />
          </mxGeometry>
        </mxCell>
        <mxCell id="HCJ9zdkblOyx9PFgzRYO-465" value="10" style="shape=partialRectangle;html=1;whiteSpace=wrap;connectable=0;strokeColor=inherit;overflow=hidden;fillColor=none;top=0;left=0;bottom=0;right=0;pointerEvents=1;fontSize=16;" parent="HCJ9zdkblOyx9PFgzRYO-463" vertex="1">
          <mxGeometry x="60" width="60" height="33" as="geometry">
            <mxRectangle width="60" height="33" as="alternateBounds" />
          </mxGeometry>
        </mxCell>
        <mxCell id="HCJ9zdkblOyx9PFgzRYO-466" value="105" style="shape=partialRectangle;html=1;whiteSpace=wrap;connectable=0;strokeColor=inherit;overflow=hidden;fillColor=none;top=0;left=0;bottom=0;right=0;pointerEvents=1;fontSize=16;" parent="HCJ9zdkblOyx9PFgzRYO-463" vertex="1">
          <mxGeometry x="120" width="60" height="33" as="geometry">
            <mxRectangle width="60" height="33" as="alternateBounds" />
          </mxGeometry>
        </mxCell>
        <mxCell id="HCJ9zdkblOyx9PFgzRYO-467" value="" style="shape=tableRow;horizontal=0;startSize=0;swimlaneHead=0;swimlaneBody=0;strokeColor=inherit;top=0;left=0;bottom=0;right=0;collapsible=0;dropTarget=0;fillColor=none;points=[[0,0.5],[1,0.5]];portConstraint=eastwest;fontSize=16;" parent="HCJ9zdkblOyx9PFgzRYO-462" vertex="1">
          <mxGeometry y="33" width="180" height="34" as="geometry" />
        </mxCell>
        <mxCell id="HCJ9zdkblOyx9PFgzRYO-468" value="6.1 Technicial Document" style="shape=partialRectangle;html=1;whiteSpace=wrap;connectable=0;strokeColor=inherit;overflow=hidden;fillColor=none;top=0;left=0;bottom=0;right=0;pointerEvents=1;fontSize=16;rowspan=1;colspan=3;" parent="HCJ9zdkblOyx9PFgzRYO-467" vertex="1">
          <mxGeometry width="180" height="34" as="geometry">
            <mxRectangle width="60" height="34" as="alternateBounds" />
          </mxGeometry>
        </mxCell>
        <mxCell id="HCJ9zdkblOyx9PFgzRYO-469" value="" style="shape=partialRectangle;html=1;whiteSpace=wrap;connectable=0;strokeColor=inherit;overflow=hidden;fillColor=none;top=0;left=0;bottom=0;right=0;pointerEvents=1;fontSize=16;" parent="HCJ9zdkblOyx9PFgzRYO-467" vertex="1" visible="0">
          <mxGeometry x="60" width="60" height="34" as="geometry">
            <mxRectangle width="60" height="34" as="alternateBounds" />
          </mxGeometry>
        </mxCell>
        <mxCell id="HCJ9zdkblOyx9PFgzRYO-470" value="" style="shape=partialRectangle;html=1;whiteSpace=wrap;connectable=0;strokeColor=inherit;overflow=hidden;fillColor=none;top=0;left=0;bottom=0;right=0;pointerEvents=1;fontSize=16;" parent="HCJ9zdkblOyx9PFgzRYO-467" vertex="1" visible="0">
          <mxGeometry x="120" width="60" height="34" as="geometry">
            <mxRectangle width="60" height="34" as="alternateBounds" />
          </mxGeometry>
        </mxCell>
        <mxCell id="HCJ9zdkblOyx9PFgzRYO-471" value="" style="shape=tableRow;horizontal=0;startSize=0;swimlaneHead=0;swimlaneBody=0;strokeColor=inherit;top=0;left=0;bottom=0;right=0;collapsible=0;dropTarget=0;fillColor=none;points=[[0,0.5],[1,0.5]];portConstraint=eastwest;fontSize=16;" parent="HCJ9zdkblOyx9PFgzRYO-462" vertex="1">
          <mxGeometry y="67" width="180" height="33" as="geometry" />
        </mxCell>
        <mxCell id="HCJ9zdkblOyx9PFgzRYO-472" value="146" style="shape=partialRectangle;html=1;whiteSpace=wrap;connectable=0;strokeColor=inherit;overflow=hidden;fillColor=none;top=0;left=0;bottom=0;right=0;pointerEvents=1;fontSize=16;" parent="HCJ9zdkblOyx9PFgzRYO-471" vertex="1">
          <mxGeometry width="60" height="33" as="geometry">
            <mxRectangle width="60" height="33" as="alternateBounds" />
          </mxGeometry>
        </mxCell>
        <mxCell id="HCJ9zdkblOyx9PFgzRYO-473" value="4" style="shape=partialRectangle;html=1;whiteSpace=wrap;connectable=0;strokeColor=inherit;overflow=hidden;fillColor=none;top=0;left=0;bottom=0;right=0;pointerEvents=1;fontSize=16;" parent="HCJ9zdkblOyx9PFgzRYO-471" vertex="1">
          <mxGeometry x="60" width="60" height="33" as="geometry">
            <mxRectangle width="60" height="33" as="alternateBounds" />
          </mxGeometry>
        </mxCell>
        <mxCell id="HCJ9zdkblOyx9PFgzRYO-474" value="159" style="shape=partialRectangle;html=1;whiteSpace=wrap;connectable=0;strokeColor=inherit;overflow=hidden;fillColor=none;top=0;left=0;bottom=0;right=0;pointerEvents=1;fontSize=16;" parent="HCJ9zdkblOyx9PFgzRYO-471" vertex="1">
          <mxGeometry x="120" width="60" height="33" as="geometry">
            <mxRectangle width="60" height="33" as="alternateBounds" />
          </mxGeometry>
        </mxCell>
        <mxCell id="HCJ9zdkblOyx9PFgzRYO-449" value="" style="shape=table;startSize=0;container=1;collapsible=0;childLayout=tableLayout;fontSize=16;verticalAlign=top;horizontal=0;" parent="1" vertex="1">
          <mxGeometry x="2390" y="-20" width="180" height="100" as="geometry" />
        </mxCell>
        <mxCell id="HCJ9zdkblOyx9PFgzRYO-450" value="" style="shape=tableRow;horizontal=0;startSize=0;swimlaneHead=0;swimlaneBody=0;strokeColor=inherit;top=0;left=0;bottom=0;right=0;collapsible=0;dropTarget=0;fillColor=none;points=[[0,0.5],[1,0.5]];portConstraint=eastwest;fontSize=16;" parent="HCJ9zdkblOyx9PFgzRYO-449" vertex="1">
          <mxGeometry width="180" height="33" as="geometry" />
        </mxCell>
        <mxCell id="HCJ9zdkblOyx9PFgzRYO-451" value="106" style="shape=partialRectangle;html=1;whiteSpace=wrap;connectable=0;strokeColor=inherit;overflow=hidden;fillColor=none;top=0;left=0;bottom=0;right=0;pointerEvents=1;fontSize=16;" parent="HCJ9zdkblOyx9PFgzRYO-450" vertex="1">
          <mxGeometry width="60" height="33" as="geometry">
            <mxRectangle width="60" height="33" as="alternateBounds" />
          </mxGeometry>
        </mxCell>
        <mxCell id="HCJ9zdkblOyx9PFgzRYO-452" value="5" style="shape=partialRectangle;html=1;whiteSpace=wrap;connectable=0;strokeColor=inherit;overflow=hidden;fillColor=none;top=0;left=0;bottom=0;right=0;pointerEvents=1;fontSize=16;" parent="HCJ9zdkblOyx9PFgzRYO-450" vertex="1">
          <mxGeometry x="60" width="60" height="33" as="geometry">
            <mxRectangle width="60" height="33" as="alternateBounds" />
          </mxGeometry>
        </mxCell>
        <mxCell id="HCJ9zdkblOyx9PFgzRYO-453" value="110" style="shape=partialRectangle;html=1;whiteSpace=wrap;connectable=0;strokeColor=inherit;overflow=hidden;fillColor=none;top=0;left=0;bottom=0;right=0;pointerEvents=1;fontSize=16;" parent="HCJ9zdkblOyx9PFgzRYO-450" vertex="1">
          <mxGeometry x="120" width="60" height="33" as="geometry">
            <mxRectangle width="60" height="33" as="alternateBounds" />
          </mxGeometry>
        </mxCell>
        <mxCell id="HCJ9zdkblOyx9PFgzRYO-454" value="" style="shape=tableRow;horizontal=0;startSize=0;swimlaneHead=0;swimlaneBody=0;strokeColor=inherit;top=0;left=0;bottom=0;right=0;collapsible=0;dropTarget=0;fillColor=none;points=[[0,0.5],[1,0.5]];portConstraint=eastwest;fontSize=16;" parent="HCJ9zdkblOyx9PFgzRYO-449" vertex="1">
          <mxGeometry y="33" width="180" height="34" as="geometry" />
        </mxCell>
        <mxCell id="HCJ9zdkblOyx9PFgzRYO-455" value="6.2 Training Plan" style="shape=partialRectangle;html=1;whiteSpace=wrap;connectable=0;strokeColor=inherit;overflow=hidden;fillColor=none;top=0;left=0;bottom=0;right=0;pointerEvents=1;fontSize=16;rowspan=1;colspan=3;" parent="HCJ9zdkblOyx9PFgzRYO-454" vertex="1">
          <mxGeometry width="180" height="34" as="geometry">
            <mxRectangle width="60" height="34" as="alternateBounds" />
          </mxGeometry>
        </mxCell>
        <mxCell id="HCJ9zdkblOyx9PFgzRYO-456" value="" style="shape=partialRectangle;html=1;whiteSpace=wrap;connectable=0;strokeColor=inherit;overflow=hidden;fillColor=none;top=0;left=0;bottom=0;right=0;pointerEvents=1;fontSize=16;" parent="HCJ9zdkblOyx9PFgzRYO-454" vertex="1" visible="0">
          <mxGeometry x="60" width="60" height="34" as="geometry">
            <mxRectangle width="60" height="34" as="alternateBounds" />
          </mxGeometry>
        </mxCell>
        <mxCell id="HCJ9zdkblOyx9PFgzRYO-457" value="" style="shape=partialRectangle;html=1;whiteSpace=wrap;connectable=0;strokeColor=inherit;overflow=hidden;fillColor=none;top=0;left=0;bottom=0;right=0;pointerEvents=1;fontSize=16;" parent="HCJ9zdkblOyx9PFgzRYO-454" vertex="1" visible="0">
          <mxGeometry x="120" width="60" height="34" as="geometry">
            <mxRectangle width="60" height="34" as="alternateBounds" />
          </mxGeometry>
        </mxCell>
        <mxCell id="HCJ9zdkblOyx9PFgzRYO-458" value="" style="shape=tableRow;horizontal=0;startSize=0;swimlaneHead=0;swimlaneBody=0;strokeColor=inherit;top=0;left=0;bottom=0;right=0;collapsible=0;dropTarget=0;fillColor=none;points=[[0,0.5],[1,0.5]];portConstraint=eastwest;fontSize=16;" parent="HCJ9zdkblOyx9PFgzRYO-449" vertex="1">
          <mxGeometry y="67" width="180" height="33" as="geometry" />
        </mxCell>
        <mxCell id="HCJ9zdkblOyx9PFgzRYO-459" value="160" style="shape=partialRectangle;html=1;whiteSpace=wrap;connectable=0;strokeColor=inherit;overflow=hidden;fillColor=none;top=0;left=0;bottom=0;right=0;pointerEvents=1;fontSize=16;" parent="HCJ9zdkblOyx9PFgzRYO-458" vertex="1">
          <mxGeometry width="60" height="33" as="geometry">
            <mxRectangle width="60" height="33" as="alternateBounds" />
          </mxGeometry>
        </mxCell>
        <mxCell id="HCJ9zdkblOyx9PFgzRYO-460" value="2" style="shape=partialRectangle;html=1;whiteSpace=wrap;connectable=0;strokeColor=inherit;overflow=hidden;fillColor=none;top=0;left=0;bottom=0;right=0;pointerEvents=1;fontSize=16;" parent="HCJ9zdkblOyx9PFgzRYO-458" vertex="1">
          <mxGeometry x="60" width="60" height="33" as="geometry">
            <mxRectangle width="60" height="33" as="alternateBounds" />
          </mxGeometry>
        </mxCell>
        <mxCell id="HCJ9zdkblOyx9PFgzRYO-461" value="166" style="shape=partialRectangle;html=1;whiteSpace=wrap;connectable=0;strokeColor=inherit;overflow=hidden;fillColor=none;top=0;left=0;bottom=0;right=0;pointerEvents=1;fontSize=16;" parent="HCJ9zdkblOyx9PFgzRYO-458" vertex="1">
          <mxGeometry x="120" width="60" height="33" as="geometry">
            <mxRectangle width="60" height="33" as="alternateBounds" />
          </mxGeometry>
        </mxCell>
        <mxCell id="HCJ9zdkblOyx9PFgzRYO-475" value="" style="shape=table;startSize=0;container=1;collapsible=0;childLayout=tableLayout;fontSize=16;verticalAlign=top;horizontal=0;" parent="1" vertex="1">
          <mxGeometry x="2390" y="130" width="180" height="100" as="geometry" />
        </mxCell>
        <mxCell id="HCJ9zdkblOyx9PFgzRYO-476" value="" style="shape=tableRow;horizontal=0;startSize=0;swimlaneHead=0;swimlaneBody=0;strokeColor=inherit;top=0;left=0;bottom=0;right=0;collapsible=0;dropTarget=0;fillColor=none;points=[[0,0.5],[1,0.5]];portConstraint=eastwest;fontSize=16;" parent="HCJ9zdkblOyx9PFgzRYO-475" vertex="1">
          <mxGeometry width="180" height="33" as="geometry" />
        </mxCell>
        <mxCell id="HCJ9zdkblOyx9PFgzRYO-477" value="111" style="shape=partialRectangle;html=1;whiteSpace=wrap;connectable=0;strokeColor=inherit;overflow=hidden;fillColor=none;top=0;left=0;bottom=0;right=0;pointerEvents=1;fontSize=16;" parent="HCJ9zdkblOyx9PFgzRYO-476" vertex="1">
          <mxGeometry width="60" height="33" as="geometry">
            <mxRectangle width="60" height="33" as="alternateBounds" />
          </mxGeometry>
        </mxCell>
        <mxCell id="HCJ9zdkblOyx9PFgzRYO-478" value="10" style="shape=partialRectangle;html=1;whiteSpace=wrap;connectable=0;strokeColor=inherit;overflow=hidden;fillColor=none;top=0;left=0;bottom=0;right=0;pointerEvents=1;fontSize=16;" parent="HCJ9zdkblOyx9PFgzRYO-476" vertex="1">
          <mxGeometry x="60" width="60" height="33" as="geometry">
            <mxRectangle width="60" height="33" as="alternateBounds" />
          </mxGeometry>
        </mxCell>
        <mxCell id="HCJ9zdkblOyx9PFgzRYO-479" value="120" style="shape=partialRectangle;html=1;whiteSpace=wrap;connectable=0;strokeColor=inherit;overflow=hidden;fillColor=none;top=0;left=0;bottom=0;right=0;pointerEvents=1;fontSize=16;" parent="HCJ9zdkblOyx9PFgzRYO-476" vertex="1">
          <mxGeometry x="120" width="60" height="33" as="geometry">
            <mxRectangle width="60" height="33" as="alternateBounds" />
          </mxGeometry>
        </mxCell>
        <mxCell id="HCJ9zdkblOyx9PFgzRYO-480" value="" style="shape=tableRow;horizontal=0;startSize=0;swimlaneHead=0;swimlaneBody=0;strokeColor=inherit;top=0;left=0;bottom=0;right=0;collapsible=0;dropTarget=0;fillColor=none;points=[[0,0.5],[1,0.5]];portConstraint=eastwest;fontSize=16;" parent="HCJ9zdkblOyx9PFgzRYO-475" vertex="1">
          <mxGeometry y="33" width="180" height="34" as="geometry" />
        </mxCell>
        <mxCell id="HCJ9zdkblOyx9PFgzRYO-481" value="6.3 User Manual" style="shape=partialRectangle;html=1;whiteSpace=wrap;connectable=0;strokeColor=inherit;overflow=hidden;fillColor=none;top=0;left=0;bottom=0;right=0;pointerEvents=1;fontSize=16;rowspan=1;colspan=3;" parent="HCJ9zdkblOyx9PFgzRYO-480" vertex="1">
          <mxGeometry width="180" height="34" as="geometry">
            <mxRectangle width="60" height="34" as="alternateBounds" />
          </mxGeometry>
        </mxCell>
        <mxCell id="HCJ9zdkblOyx9PFgzRYO-482" value="" style="shape=partialRectangle;html=1;whiteSpace=wrap;connectable=0;strokeColor=inherit;overflow=hidden;fillColor=none;top=0;left=0;bottom=0;right=0;pointerEvents=1;fontSize=16;" parent="HCJ9zdkblOyx9PFgzRYO-480" vertex="1" visible="0">
          <mxGeometry x="60" width="60" height="34" as="geometry">
            <mxRectangle width="60" height="34" as="alternateBounds" />
          </mxGeometry>
        </mxCell>
        <mxCell id="HCJ9zdkblOyx9PFgzRYO-483" value="" style="shape=partialRectangle;html=1;whiteSpace=wrap;connectable=0;strokeColor=inherit;overflow=hidden;fillColor=none;top=0;left=0;bottom=0;right=0;pointerEvents=1;fontSize=16;" parent="HCJ9zdkblOyx9PFgzRYO-480" vertex="1" visible="0">
          <mxGeometry x="120" width="60" height="34" as="geometry">
            <mxRectangle width="60" height="34" as="alternateBounds" />
          </mxGeometry>
        </mxCell>
        <mxCell id="HCJ9zdkblOyx9PFgzRYO-484" value="" style="shape=tableRow;horizontal=0;startSize=0;swimlaneHead=0;swimlaneBody=0;strokeColor=inherit;top=0;left=0;bottom=0;right=0;collapsible=0;dropTarget=0;fillColor=none;points=[[0,0.5],[1,0.5]];portConstraint=eastwest;fontSize=16;" parent="HCJ9zdkblOyx9PFgzRYO-475" vertex="1">
          <mxGeometry y="67" width="180" height="33" as="geometry" />
        </mxCell>
        <mxCell id="HCJ9zdkblOyx9PFgzRYO-485" value="167" style="shape=partialRectangle;html=1;whiteSpace=wrap;connectable=0;strokeColor=inherit;overflow=hidden;fillColor=none;top=0;left=0;bottom=0;right=0;pointerEvents=1;fontSize=16;" parent="HCJ9zdkblOyx9PFgzRYO-484" vertex="1">
          <mxGeometry width="60" height="33" as="geometry">
            <mxRectangle width="60" height="33" as="alternateBounds" />
          </mxGeometry>
        </mxCell>
        <mxCell id="HCJ9zdkblOyx9PFgzRYO-486" value="4" style="shape=partialRectangle;html=1;whiteSpace=wrap;connectable=0;strokeColor=inherit;overflow=hidden;fillColor=none;top=0;left=0;bottom=0;right=0;pointerEvents=1;fontSize=16;" parent="HCJ9zdkblOyx9PFgzRYO-484" vertex="1">
          <mxGeometry x="60" width="60" height="33" as="geometry">
            <mxRectangle width="60" height="33" as="alternateBounds" />
          </mxGeometry>
        </mxCell>
        <mxCell id="HCJ9zdkblOyx9PFgzRYO-487" value="180" style="shape=partialRectangle;html=1;whiteSpace=wrap;connectable=0;strokeColor=inherit;overflow=hidden;fillColor=none;top=0;left=0;bottom=0;right=0;pointerEvents=1;fontSize=16;" parent="HCJ9zdkblOyx9PFgzRYO-484" vertex="1">
          <mxGeometry x="120" width="60" height="33" as="geometry">
            <mxRectangle width="60" height="33" as="alternateBounds" />
          </mxGeometry>
        </mxCell>
        <mxCell id="HCJ9zdkblOyx9PFgzRYO-559" style="edgeStyle=orthogonalEdgeStyle;rounded=0;orthogonalLoop=1;jettySize=auto;html=1;exitX=0.488;exitY=0.997;exitDx=0;exitDy=0;entryX=0.489;entryY=0.03;entryDx=0;entryDy=0;entryPerimeter=0;strokeColor=#FF3333;exitPerimeter=0;" parent="1" source="HCJ9zdkblOyx9PFgzRYO-432" target="HCJ9zdkblOyx9PFgzRYO-437" edge="1">
          <mxGeometry relative="1" as="geometry" />
        </mxCell>
        <mxCell id="HCJ9zdkblOyx9PFgzRYO-560" style="edgeStyle=orthogonalEdgeStyle;rounded=0;orthogonalLoop=1;jettySize=auto;html=1;exitX=1;exitY=0.5;exitDx=0;exitDy=0;entryX=0;entryY=0.5;entryDx=0;entryDy=0;strokeColor=#FF3333;" parent="1" source="HCJ9zdkblOyx9PFgzRYO-441" target="HCJ9zdkblOyx9PFgzRYO-467" edge="1">
          <mxGeometry relative="1" as="geometry" />
        </mxCell>
        <mxCell id="HCJ9zdkblOyx9PFgzRYO-561" style="edgeStyle=orthogonalEdgeStyle;rounded=0;orthogonalLoop=1;jettySize=auto;html=1;exitX=0.501;exitY=0.97;exitDx=0;exitDy=0;entryX=0.5;entryY=0;entryDx=0;entryDy=0;entryPerimeter=0;strokeColor=#FF3333;exitPerimeter=0;" parent="1" source="HCJ9zdkblOyx9PFgzRYO-471" target="HCJ9zdkblOyx9PFgzRYO-450" edge="1">
          <mxGeometry relative="1" as="geometry" />
        </mxCell>
        <mxCell id="HCJ9zdkblOyx9PFgzRYO-562" style="edgeStyle=orthogonalEdgeStyle;rounded=0;orthogonalLoop=1;jettySize=auto;html=1;exitX=0.491;exitY=1.011;exitDx=0;exitDy=0;entryX=0.493;entryY=-0.01;entryDx=0;entryDy=0;entryPerimeter=0;strokeColor=#FF3333;exitPerimeter=0;" parent="1" source="HCJ9zdkblOyx9PFgzRYO-458" target="HCJ9zdkblOyx9PFgzRYO-476" edge="1">
          <mxGeometry relative="1" as="geometry" />
        </mxCell>
        <mxCell id="KgSU7FPv7WRNqP70AirV-1" style="edgeStyle=orthogonalEdgeStyle;rounded=0;orthogonalLoop=1;jettySize=auto;html=1;exitX=1;exitY=0.5;exitDx=0;exitDy=0;entryX=0;entryY=0.5;entryDx=0;entryDy=0;strokeColor=#FF3333;" parent="1" source="HCJ9zdkblOyx9PFgzRYO-389" target="HCJ9zdkblOyx9PFgzRYO-544" edge="1">
          <mxGeometry relative="1" as="geometry" />
        </mxCell>
        <mxCell id="KgSU7FPv7WRNqP70AirV-6" style="edgeStyle=orthogonalEdgeStyle;rounded=0;orthogonalLoop=1;jettySize=auto;html=1;strokeColor=#FF3333;" parent="1" source="HCJ9zdkblOyx9PFgzRYO-539" edge="1">
          <mxGeometry relative="1" as="geometry">
            <mxPoint x="1940" y="60" as="targetPoint" />
          </mxGeometry>
        </mxCell>
        <mxCell id="HCJ9zdkblOyx9PFgzRYO-488" value="" style="shape=table;startSize=0;container=1;collapsible=0;childLayout=tableLayout;fontSize=16;verticalAlign=top;horizontal=0;" parent="1" vertex="1">
          <mxGeometry x="290" y="-370" width="180" height="100" as="geometry" />
        </mxCell>
        <mxCell id="HCJ9zdkblOyx9PFgzRYO-489" value="" style="shape=tableRow;horizontal=0;startSize=0;swimlaneHead=0;swimlaneBody=0;strokeColor=inherit;top=0;left=0;bottom=0;right=0;collapsible=0;dropTarget=0;fillColor=none;points=[[0,0.5],[1,0.5]];portConstraint=eastwest;fontSize=16;" parent="HCJ9zdkblOyx9PFgzRYO-488" vertex="1">
          <mxGeometry width="180" height="33" as="geometry" />
        </mxCell>
        <mxCell id="HCJ9zdkblOyx9PFgzRYO-490" value="5" style="shape=partialRectangle;html=1;whiteSpace=wrap;connectable=0;strokeColor=inherit;overflow=hidden;fillColor=none;top=0;left=0;bottom=0;right=0;pointerEvents=1;fontSize=16;" parent="HCJ9zdkblOyx9PFgzRYO-489" vertex="1">
          <mxGeometry width="60" height="33" as="geometry">
            <mxRectangle width="60" height="33" as="alternateBounds" />
          </mxGeometry>
        </mxCell>
        <mxCell id="HCJ9zdkblOyx9PFgzRYO-491" value="175" style="shape=partialRectangle;html=1;whiteSpace=wrap;connectable=0;strokeColor=inherit;overflow=hidden;fillColor=none;top=0;left=0;bottom=0;right=0;pointerEvents=1;fontSize=16;" parent="HCJ9zdkblOyx9PFgzRYO-489" vertex="1">
          <mxGeometry x="60" width="60" height="33" as="geometry">
            <mxRectangle width="60" height="33" as="alternateBounds" />
          </mxGeometry>
        </mxCell>
        <mxCell id="HCJ9zdkblOyx9PFgzRYO-492" value="180" style="shape=partialRectangle;html=1;whiteSpace=wrap;connectable=0;strokeColor=inherit;overflow=hidden;fillColor=none;top=0;left=0;bottom=0;right=0;pointerEvents=1;fontSize=16;" parent="HCJ9zdkblOyx9PFgzRYO-489" vertex="1">
          <mxGeometry x="120" width="60" height="33" as="geometry">
            <mxRectangle width="60" height="33" as="alternateBounds" />
          </mxGeometry>
        </mxCell>
        <mxCell id="HCJ9zdkblOyx9PFgzRYO-493" value="" style="shape=tableRow;horizontal=0;startSize=0;swimlaneHead=0;swimlaneBody=0;strokeColor=inherit;top=0;left=0;bottom=0;right=0;collapsible=0;dropTarget=0;fillColor=none;points=[[0,0.5],[1,0.5]];portConstraint=eastwest;fontSize=16;" parent="HCJ9zdkblOyx9PFgzRYO-488" vertex="1">
          <mxGeometry y="33" width="180" height="34" as="geometry" />
        </mxCell>
        <mxCell id="HCJ9zdkblOyx9PFgzRYO-494" value="&lt;font style=&quot;font-size: 11px;&quot;&gt;5.1 Client Regular Meeting Record&lt;/font&gt;" style="shape=partialRectangle;html=1;whiteSpace=wrap;connectable=0;strokeColor=inherit;overflow=hidden;fillColor=none;top=0;left=0;bottom=0;right=0;pointerEvents=1;fontSize=16;rowspan=1;colspan=3;" parent="HCJ9zdkblOyx9PFgzRYO-493" vertex="1">
          <mxGeometry width="180" height="34" as="geometry">
            <mxRectangle width="60" height="34" as="alternateBounds" />
          </mxGeometry>
        </mxCell>
        <mxCell id="HCJ9zdkblOyx9PFgzRYO-495" value="" style="shape=partialRectangle;html=1;whiteSpace=wrap;connectable=0;strokeColor=inherit;overflow=hidden;fillColor=none;top=0;left=0;bottom=0;right=0;pointerEvents=1;fontSize=16;" parent="HCJ9zdkblOyx9PFgzRYO-493" vertex="1" visible="0">
          <mxGeometry x="60" width="60" height="34" as="geometry">
            <mxRectangle width="60" height="34" as="alternateBounds" />
          </mxGeometry>
        </mxCell>
        <mxCell id="HCJ9zdkblOyx9PFgzRYO-496" value="" style="shape=partialRectangle;html=1;whiteSpace=wrap;connectable=0;strokeColor=inherit;overflow=hidden;fillColor=none;top=0;left=0;bottom=0;right=0;pointerEvents=1;fontSize=16;" parent="HCJ9zdkblOyx9PFgzRYO-493" vertex="1" visible="0">
          <mxGeometry x="120" width="60" height="34" as="geometry">
            <mxRectangle width="60" height="34" as="alternateBounds" />
          </mxGeometry>
        </mxCell>
        <mxCell id="HCJ9zdkblOyx9PFgzRYO-497" value="" style="shape=tableRow;horizontal=0;startSize=0;swimlaneHead=0;swimlaneBody=0;strokeColor=inherit;top=0;left=0;bottom=0;right=0;collapsible=0;dropTarget=0;fillColor=none;points=[[0,0.5],[1,0.5]];portConstraint=eastwest;fontSize=16;" parent="HCJ9zdkblOyx9PFgzRYO-488" vertex="1">
          <mxGeometry y="67" width="180" height="33" as="geometry" />
        </mxCell>
        <mxCell id="HCJ9zdkblOyx9PFgzRYO-498" value="0" style="shape=partialRectangle;html=1;whiteSpace=wrap;connectable=0;strokeColor=inherit;overflow=hidden;fillColor=none;top=0;left=0;bottom=0;right=0;pointerEvents=1;fontSize=16;" parent="HCJ9zdkblOyx9PFgzRYO-497" vertex="1">
          <mxGeometry width="60" height="33" as="geometry">
            <mxRectangle width="60" height="33" as="alternateBounds" />
          </mxGeometry>
        </mxCell>
        <mxCell id="HCJ9zdkblOyx9PFgzRYO-499" value="0" style="shape=partialRectangle;html=1;whiteSpace=wrap;connectable=0;strokeColor=inherit;overflow=hidden;fillColor=none;top=0;left=0;bottom=0;right=0;pointerEvents=1;fontSize=16;" parent="HCJ9zdkblOyx9PFgzRYO-497" vertex="1">
          <mxGeometry x="60" width="60" height="33" as="geometry">
            <mxRectangle width="60" height="33" as="alternateBounds" />
          </mxGeometry>
        </mxCell>
        <mxCell id="HCJ9zdkblOyx9PFgzRYO-500" value="180" style="shape=partialRectangle;html=1;whiteSpace=wrap;connectable=0;strokeColor=inherit;overflow=hidden;fillColor=none;top=0;left=0;bottom=0;right=0;pointerEvents=1;fontSize=16;" parent="HCJ9zdkblOyx9PFgzRYO-497" vertex="1">
          <mxGeometry x="120" width="60" height="33" as="geometry">
            <mxRectangle width="60" height="33" as="alternateBounds" />
          </mxGeometry>
        </mxCell>
        <mxCell id="wchQYt4lpTtZt8wnbd3F-1" style="edgeStyle=orthogonalEdgeStyle;rounded=0;orthogonalLoop=1;jettySize=auto;html=1;exitX=1;exitY=0.5;exitDx=0;exitDy=0;entryX=0;entryY=0.5;entryDx=0;entryDy=0;" edge="1" parent="1" source="HCJ9zdkblOyx9PFgzRYO-27" target="HCJ9zdkblOyx9PFgzRYO-493">
          <mxGeometry relative="1" as="geometry" />
        </mxCell>
      </root>
    </mxGraphModel>
  </diagram>
</mxfile>
